<?xml version="1.0" encoding="utf-8"?>
<!-- Generator: Adobe Illustrator 19.2.1, SVG Export Plug-In . SVG Version: 6.00 Build 0)  -->
<svg version="1.1" xmlns="http://www.w3.org/2000/svg" xmlns:xlink="http://www.w3.org/1999/xlink" x="0px" y="0px"
	 viewBox="0 0 1920 1080" style="enable-background:new 0 0 1920 1080;" xml:space="preserve">
<style type="text/css">
	.st0{fill:#9E9DB2;}
	.st1{fill:#804104;}
	.st2{fill:#A35305;}
	.st3{fill:#6CC971;}
	.st4{fill:#76CE78;}
	.st5{fill:#83DD83;}
	.st6{fill:#4FA161;}
	.st7{fill:#878683;}
	.st8{fill:#A09F9D;}
	.st9{fill:#969696;}
	.st10{fill:#666665;}
	.st11{fill:#7D7DD8;}
	.st12{fill:#80DB6A;}
	.st13{fill:#8E7B82;}
	.st14{fill:#736369;}
	.st15{fill:#75DB7B;}
	.st16{fill:#CBF2A4;}
	.st17{fill:#B7B6B0;}
	.st18{fill:#E04C4C;}
</style>
<g id="Calque_2">
	<rect class="st0" width="1920" height="1080"/>
	<polygon class="st0" points="632.4,640.3 618.2,643.4 616.9,657.9 607.1,647.2 593.9,653.3 598.3,639.4 586.4,631.1 600.6,627.9 
		601.9,613.5 611.7,624.2 624.8,618.1 620.5,631.9 	"/>
	<g>
		<g>
			<g>
				<g>
					<path class="st1" d="M1671.5,757L1671.5,757c-5.4,0-9.8-4.4-9.8-9.8V578.6c0-5.4,4.4-9.8,9.8-9.8l0,0c5.4,0,9.8,4.4,9.8,9.8
						v168.6C1681.4,752.6,1677,757,1671.5,757z"/>
				</g>
				<g>
					<line class="st1" x1="1671.5" y1="757" x2="1671.5" y2="757"/>
					<path class="st2" d="M1671.5,568.7c5.4,0,9.8,4.4,9.8,9.8v168.6c0,5.4-4.4,9.8-9.8,9.8"/>
					<line class="st1" x1="1671.5" y1="568.7" x2="1671.5" y2="568.7"/>
				</g>
			</g>
			<polygon class="st3" points="1671.5,469.3 1757.1,618.1 1586,618.1 			"/>
			<polygon class="st4" points="1671.5,450.4 1736.2,566.8 1606.9,566.8 			"/>
			<polygon class="st5" points="1671.5,442 1724.9,522.2 1618.2,522.2 			"/>
			<polyline class="st6" points="1626,553.7 1629.6,547.4 1633.1,553.5 			"/>
			<polyline class="st6" points="1643.4,537.5 1647.1,531.3 1650.5,537.4 			"/>
			<polyline class="st6" points="1659.7,556.8 1663.4,550.5 1666.8,556.7 			"/>
			<polyline class="st6" points="1668,534.4 1671.6,528.1 1675.1,534.3 			"/>
			<polyline class="st6" points="1684.6,556.8 1688.2,550.5 1691.6,556.7 			"/>
			<polyline class="st6" points="1699.6,540.7 1703.2,534.4 1706.7,540.5 			"/>
			<polyline class="st6" points="1626,583.3 1629.6,577.1 1633.1,583.2 			"/>
			<polyline class="st6" points="1606.9,603.3 1610.5,597 1613.9,603.2 			"/>
			<polyline class="st6" points="1636.4,609.5 1640,603.3 1643.4,609.4 			"/>
			<polyline class="st6" points="1659.7,577.1 1663.4,570.8 1666.8,577 			"/>
			<polyline class="st6" points="1668,607.9 1671.6,601.7 1675.1,607.8 			"/>
			<polyline class="st6" points="1710.7,577.1 1714.4,570.8 1717.8,577 			"/>
			<polyline class="st6" points="1684.6,586.5 1688.2,580.2 1691.6,586.3 			"/>
			<polyline class="st6" points="1714.3,604.8 1717.9,598.5 1721.3,604.7 			"/>
			<polyline class="st6" points="1647,592.7 1650.6,586.5 1654,592.6 			"/>
			<polyline class="st6" points="1641.6,517.9 1645.2,511.6 1648.7,517.7 			"/>
			<polyline class="st6" points="1658.2,501.5 1661.8,495.3 1665.2,501.4 			"/>
			<polyline class="st6" points="1677.9,514.7 1681.5,508.5 1684.9,514.6 			"/>
			<polyline class="st6" points="1681.4,488.3 1685,482.1 1688.4,488.2 			"/>
			<polyline class="st6" points="1668,472.4 1671.6,466.1 1675.1,472.3 			"/>
		</g>
		<polyline class="st6" points="1677.1,544.7 1680.7,538.5 1684.1,544.6 		"/>
	</g>
	<polygon class="st7" points="1700.4,733.4 1764,673.9 1314.1,252.6 864.2,673.9 927.8,733.4 	"/>
	<polygon class="st7" points="1017.6,728.6 1082.9,661.6 621.2,188.1 159.4,661.6 224.7,728.6 	"/>
</g>
<g id="Calque_3">
	<polygon class="st8" points="1460.9,728.6 1543.2,646.2 961,64 378.8,646.2 461.1,728.6 	"/>
	<polygon class="st9" points="1439.6,729.5 1518.4,660.3 961,171.3 403.6,660.3 482.4,729.5 	"/>
	<polygon class="st7" points="1347.3,728.6 1410.9,669 961,247.7 511.1,669 574.7,728.6 	"/>
	<polygon class="st10" points="1262.2,726.9 1312.1,680.6 959.1,353.1 606.1,680.6 656,726.9 	"/>
	
		<rect x="927.6" y="440" transform="matrix(0.6729 0.7397 -0.7397 0.6729 635.5591 -544.8201)" class="st11" width="12.5" height="12.5"/>
	
		<rect x="1061.6" y="517.5" transform="matrix(0.6729 0.7397 -0.7397 0.6729 736.7206 -618.6304)" class="st11" width="12.5" height="12.5"/>
	
		<rect x="998.6" y="604.5" transform="matrix(0.6729 0.7397 -0.7397 0.6729 780.4702 -543.5688)" class="st11" width="12.5" height="12.5"/>
	
		<rect x="1152.6" y="641.5" transform="matrix(0.6729 0.7397 -0.7397 0.6729 858.2145 -645.3855)" class="st11" width="12.5" height="12.5"/>
	
		<rect x="804.6" y="649.5" transform="matrix(0.6729 0.7397 -0.7397 0.6729 750.3002 -385.3401)" class="st11" width="12.5" height="12.5"/>
	
		<rect x="713.6" y="647.5" transform="matrix(0.6729 0.7397 -0.7397 0.6729 719.0542 -318.6782)" class="st11" width="12.5" height="12.5"/>
</g>
<g id="Calque_5">
	
		<rect x="816.6" y="554.5" transform="matrix(0.6729 0.7397 -0.7397 0.6729 683.9504 -425.2919)" class="st11" width="12.5" height="12.5"/>
	
		<rect x="833.2" y="486.8" transform="matrix(0.6729 0.7397 -0.7397 0.6729 639.2933 -459.7333)" class="st11" width="12.5" height="12.5"/>
	
		<rect x="839.6" y="595.2" transform="matrix(0.6729 0.7397 -0.7397 0.6729 718.1856 -427.6514)" class="st12" width="6.1" height="6.1"/>
	
		<rect x="762.6" y="615.2" transform="matrix(0.6729 0.7397 -0.7397 0.6729 707.7933 -364.1495)" class="st12" width="6.1" height="6.1"/>
	
		<rect x="931.6" y="678.2" transform="matrix(0.6729 0.7397 -0.7397 0.6729 809.6774 -468.5575)" class="st12" width="6.1" height="6.1"/>
	
		<rect x="1107.6" y="611.2" transform="matrix(0.6729 0.7397 -0.7397 0.6729 817.6854 -620.6673)" class="st12" width="6.1" height="6.1"/>
	
		<rect x="1034.6" y="535.2" transform="matrix(0.6729 0.7397 -0.7397 0.6729 737.5867 -591.5264)" class="st12" width="6.1" height="6.1"/>
	
		<rect x="975.6" y="494.2" transform="matrix(0.6729 0.7397 -0.7397 0.6729 687.9583 -561.2932)" class="st12" width="6.1" height="6.1"/>
</g>
<g id="Calque_4">
	<g>
		<g>
			<path class="st13" d="M1602.3,761.3L1602.3,761.3c-2.2,0-4-1.8-4-4v-86.1c0-2.2,1.8-4,4-4l0,0c2.2,0,4,1.8,4,4v86.1
				C1606.3,759.5,1604.5,761.3,1602.3,761.3z"/>
			<path class="st14" d="M1602.3,761.3L1602.3,761.3c-2.2,0-4-1.7-4-3.9v-86.4c0-2.1,1.8-3.9,4-3.9l0,0"/>
		</g>
		<g>
			<ellipse class="st15" cx="1602.3" cy="664.6" rx="29.1" ry="28"/>
			<ellipse class="st16" cx="1608.9" cy="663.1" rx="22.4" ry="21.6"/>
		</g>
	</g>
	<g>
		<g>
			<g>
				<g>
					<path class="st1" d="M371.6,738.4L371.6,738.4c-5.4,0-9.8-4.4-9.8-9.8V560c0-5.4,4.4-9.8,9.8-9.8h0c5.4,0,9.8,4.4,9.8,9.8
						v168.6C381.5,734,377.1,738.4,371.6,738.4z"/>
				</g>
				<g>
					<line class="st1" x1="371.6" y1="738.4" x2="371.6" y2="738.4"/>
					<path class="st2" d="M371.6,550.1c5.4,0,9.8,4.4,9.8,9.8v168.6c0,5.4-4.4,9.8-9.8,9.8"/>
					<line class="st1" x1="371.6" y1="550.1" x2="371.6" y2="550.1"/>
				</g>
			</g>
			<polygon class="st3" points="371.6,450.7 457.2,599.5 286,599.5 			"/>
			<polygon class="st4" points="371.6,431.8 436.3,548.2 307,548.2 			"/>
			<polygon class="st5" points="371.6,423.4 424.9,503.6 318.3,503.6 			"/>
			<polyline class="st6" points="326.1,535.1 329.7,528.8 333.1,535 			"/>
			<polyline class="st6" points="343.5,518.9 347.1,512.7 350.6,518.8 			"/>
			<polyline class="st6" points="359.8,538.2 363.4,531.9 366.9,538.1 			"/>
			<polyline class="st6" points="368.1,515.8 371.7,509.6 375.1,515.7 			"/>
			<polyline class="st6" points="384.7,538.2 388.3,531.9 391.7,538.1 			"/>
			<polyline class="st6" points="399.7,522.1 403.3,515.8 406.7,522 			"/>
			<polyline class="st6" points="326.1,564.7 329.7,558.5 333.1,564.6 			"/>
			<polyline class="st6" points="307,584.7 310.6,578.4 314,584.6 			"/>
			<polyline class="st6" points="336.5,591 340.1,584.7 343.5,590.8 			"/>
			<polyline class="st6" points="359.8,558.5 363.4,552.2 366.9,558.4 			"/>
			<polyline class="st6" points="368.1,589.3 371.7,583.1 375.1,589.2 			"/>
			<polyline class="st6" points="410.8,558.5 414.4,552.2 417.9,558.4 			"/>
			<polyline class="st6" points="384.7,567.9 388.3,561.6 391.7,567.8 			"/>
			<polyline class="st6" points="414.3,586.2 418,580 421.4,586.1 			"/>
			<polyline class="st6" points="347,574.1 350.7,567.9 354.1,574 			"/>
			<polyline class="st6" points="341.7,499.3 345.3,493 348.7,499.2 			"/>
			<polyline class="st6" points="358.2,483 361.9,476.7 365.3,482.8 			"/>
			<polyline class="st6" points="377.9,496.1 381.6,489.9 385,496 			"/>
			<polyline class="st6" points="381.5,469.8 385.1,463.5 388.5,469.6 			"/>
			<polyline class="st6" points="368.1,453.8 371.7,447.6 375.1,453.7 			"/>
		</g>
		<polyline class="st6" points="377.2,526.2 380.8,519.9 384.2,526.1 		"/>
	</g>
	<g>
		<g>
			<g>
				<g>
					<path class="st1" d="M1521.8,739.9h-8.2c-5.4,0-9.8-4.4-9.8-9.8V426.2c0-5.4,4.4-9.8,9.8-9.8h8.2c5.4,0,9.8,4.4,9.8,9.8v303.8
						C1531.6,735.5,1527.2,739.9,1521.8,739.9z"/>
				</g>
				<g>
					<line class="st1" x1="1517.7" y1="739.9" x2="1517.7" y2="739.9"/>
					<path class="st2" d="M1517.7,416.4c7.7,0,13.9,7.6,13.9,16.9V723c0,9.3-6.2,16.9-13.9,16.9"/>
					<line class="st1" x1="1517.7" y1="416.4" x2="1517.7" y2="416.4"/>
				</g>
			</g>
			<polygon class="st3" points="1517.7,245.6 1638.9,501.2 1396.5,501.2 			"/>
			<polygon class="st4" points="1517.7,213.1 1609.2,413.1 1426.2,413.1 			"/>
			<polygon class="st5" points="1517.7,198.6 1593.2,336.4 1442.2,336.4 			"/>
			<polyline class="st6" points="1453.2,390.5 1458.3,379.8 1463.2,390.3 			"/>
			<polyline class="st6" points="1477.9,362.8 1483,352.1 1487.9,362.6 			"/>
			<polyline class="st6" points="1501,395.9 1506.1,385.1 1511,395.7 			"/>
			<polyline class="st6" points="1512.7,357.4 1517.8,346.7 1522.7,357.2 			"/>
			<polyline class="st6" points="1536.2,395.9 1541.3,385.1 1546.2,395.7 			"/>
			<polyline class="st6" points="1557.5,368.2 1562.6,357.4 1567.4,368 			"/>
			<polyline class="st6" points="1453.2,441.5 1458.3,430.7 1463.2,441.3 			"/>
			<polyline class="st6" points="1426.2,475.8 1431.3,465 1436.1,475.6 			"/>
			<polyline class="st6" points="1467.9,486.5 1473,475.8 1477.9,486.4 			"/>
			<polyline class="st6" points="1501,430.7 1506.1,420 1511,430.6 			"/>
			<polyline class="st6" points="1512.7,483.8 1517.8,473 1522.7,483.6 			"/>
			<polyline class="st6" points="1573.2,430.7 1578.3,420 1583.2,430.6 			"/>
			<polyline class="st6" points="1536.2,446.9 1541.3,436.1 1546.2,446.7 			"/>
			<polyline class="st6" points="1578.2,478.4 1583.3,467.6 1588.2,478.2 			"/>
			<polyline class="st6" points="1482.9,457.6 1488,446.9 1492.9,457.5 			"/>
			<polyline class="st6" points="1475.3,329 1480.4,318.3 1485.3,328.8 			"/>
			<polyline class="st6" points="1498.7,301 1503.9,290.2 1508.7,300.8 			"/>
			<polyline class="st6" points="1526.6,323.6 1531.8,312.9 1536.6,323.4 			"/>
			<polyline class="st6" points="1531.6,278.3 1536.8,267.5 1541.6,278.1 			"/>
			<polyline class="st6" points="1512.7,250.9 1517.8,240.2 1522.7,250.7 			"/>
		</g>
		<polyline class="st6" points="1525.5,375.2 1530.7,364.5 1535.5,375 		"/>
	</g>
	<g>
		<g>
			<g>
				<g>
					<path class="st1" d="M283.7,746.9h-11.9c-5.4,0-9.8-4.4-9.8-9.8V398.7c0-5.4,4.4-9.8,9.8-9.8h11.9c5.4,0,9.8,4.4,9.8,9.8v338.4
						C293.6,742.5,289.2,746.9,283.7,746.9z"/>
				</g>
				<g>
					<line class="st1" x1="277.8" y1="746.9" x2="277.8" y2="746.9"/>
					<path class="st2" d="M277.8,388.9c8.7,0,15.8,8.4,15.8,18.7v320.6c0,10.3-7.1,18.7-15.8,18.7"/>
					<line class="st1" x1="277.8" y1="388.9" x2="277.8" y2="388.9"/>
				</g>
			</g>
			<polygon class="st3" points="277.8,199.8 415.2,482.8 140.4,482.8 			"/>
			<polygon class="st4" points="277.8,163.9 381.5,385.2 174,385.2 			"/>
			<polygon class="st5" points="277.8,147.9 363.4,300.4 192.1,300.4 			"/>
			<polyline class="st6" points="204.7,360.3 210.5,348.4 216,360.1 			"/>
			<polyline class="st6" points="232.6,329.6 238.5,317.7 244,329.4 			"/>
			<polyline class="st6" points="258.8,366.2 264.7,354.3 270.2,366 			"/>
			<polyline class="st6" points="272.1,323.6 277.9,311.7 283.4,323.4 			"/>
			<polyline class="st6" points="298.7,366.2 304.5,354.3 310,366 			"/>
			<polyline class="st6" points="322.8,335.6 328.7,323.6 334.2,335.3 			"/>
			<polyline class="st6" points="204.7,416.7 210.5,404.8 216,416.5 			"/>
			<polyline class="st6" points="174,454.6 179.8,442.7 185.3,454.4 			"/>
			<polyline class="st6" points="221.3,466.5 227.1,454.6 232.6,466.3 			"/>
			<polyline class="st6" points="258.8,404.8 264.7,392.9 270.2,404.6 			"/>
			<polyline class="st6" points="272.1,463.5 277.9,451.6 283.4,463.3 			"/>
			<polyline class="st6" points="340.7,404.8 346.5,392.9 352,404.6 			"/>
			<polyline class="st6" points="298.7,422.6 304.5,410.7 310,422.4 			"/>
			<polyline class="st6" points="346.4,457.5 352.2,445.6 357.7,457.3 			"/>
			<polyline class="st6" points="238.3,434.6 244.1,422.6 249.6,434.3 			"/>
			<polyline class="st6" points="229.7,292.2 235.5,280.3 241,292 			"/>
			<polyline class="st6" points="256.3,261.2 262.1,249.3 267.6,261 			"/>
			<polyline class="st6" points="287.9,286.2 293.7,274.3 299.2,286 			"/>
			<polyline class="st6" points="293.6,236.1 299.4,224.2 304.9,235.9 			"/>
			<polyline class="st6" points="272.1,205.8 277.9,193.9 283.4,205.6 			"/>
		</g>
		<polyline class="st6" points="286.7,343.3 292.5,331.4 298,343.1 		"/>
	</g>
	<g>
		<g>
			<path class="st13" d="M329.6,751.7L329.6,751.7c-1.9,0-3.5-1.6-3.5-3.5v-86.3c0-1.9,1.6-3.5,3.5-3.5h0c1.9,0,3.5,1.6,3.5,3.5
				v86.3C333.1,750.2,331.5,751.7,329.6,751.7z"/>
			<path class="st14" d="M329.6,751.7L329.6,751.7c-1.9,0-3.5-1.7-3.5-3.8v-85.6c0-2.1,1.6-3.8,3.5-3.8h0"/>
		</g>
		<g>
			<ellipse class="st15" cx="329.6" cy="655.9" rx="25" ry="27.7"/>
			<ellipse class="st16" cx="335.3" cy="654.4" rx="19.3" ry="21.4"/>
		</g>
	</g>
	<g>
		<g>
			<path class="st13" d="M1553.9,761.3h-1.2c-2.7,0-4.9-2.2-4.9-4.9V629.5c0-2.7,2.2-4.9,4.9-4.9h1.2c2.7,0,4.9,2.2,4.9,4.9v126.9
				C1558.8,759.1,1556.6,761.3,1553.9,761.3z"/>
			<path class="st14" d="M1553.3,761.3L1553.3,761.3c-3.1,0-5.5-2.5-5.5-5.6V630.2c0-3.1,2.5-5.6,5.5-5.6l0,0"/>
		</g>
		<g>
			<ellipse class="st15" cx="1553.3" cy="620.8" rx="39.9" ry="40.6"/>
			<ellipse class="st16" cx="1562.4" cy="618.6" rx="30.8" ry="31.3"/>
		</g>
	</g>
</g>
<g id="Calque_1">
	<path class="st17" d="M1736.4,821.1H187.2c-25.9,0-46.8-21-46.8-46.8v0c0-25.9,21-46.8,46.8-46.8h1549.2c25.9,0,46.8,21,46.8,46.8
		v0C1783.2,800.1,1762.2,821.1,1736.4,821.1z"/>
	<circle class="st18" cx="829.2" cy="525.7" r="3.2"/>
	<circle class="st18" cx="865.2" cy="648.7" r="3.2"/>
	<circle class="st18" cx="744.2" cy="634.7" r="3.2"/>
	<circle class="st18" cx="1136.2" cy="615.7" r="3.2"/>
	<circle class="st18" cx="1054.2" cy="527.7" r="3.2"/>
	<circle class="st18" cx="1008.2" cy="452.7" r="3.2"/>
	<polygon class="st17" points="432.8,673.4 506.4,719.3 478.3,793.5 387.4,793.5 359.3,719.3 	"/>
	<polygon class="st17" points="558.8,678.3 632.4,724.2 604.3,798.5 513.4,798.5 485.3,724.2 	"/>
</g>
<g id="Calque_6">
	<polygon class="st17" points="220.4,670.9 293.9,716.8 265.8,791.1 174.9,791.1 146.9,716.8 	"/>
	<polygon class="st17" points="307,672.3 380.5,718.2 352.4,792.5 261.5,792.5 233.4,718.2 	"/>
	<polygon class="st17" points="1366.5,666.8 1440,712.7 1411.9,787 1321,787 1292.9,712.7 	"/>
	<polygon class="st17" points="1492.9,666.8 1566.4,712.7 1538.3,787 1447.4,787 1419.3,712.7 	"/>
	<polygon class="st17" points="1610.4,669.4 1684,715.3 1655.9,789.5 1565,789.5 1536.9,715.3 	"/>
	<polygon class="st17" points="1699.6,678.3 1773.1,724.2 1745.1,798.5 1654.2,798.5 1626.1,724.2 	"/>
</g>
</svg>
