<?xml version="1.0" encoding="utf-8"?>
<!-- Generator: Adobe Illustrator 19.2.1, SVG Export Plug-In . SVG Version: 6.00 Build 0)  -->
<svg version="1.1" xmlns="http://www.w3.org/2000/svg" xmlns:xlink="http://www.w3.org/1999/xlink" x="0px" y="0px"
	 viewBox="0 0 1920 1080" style="enable-background:new 0 0 1920 1080;" xml:space="preserve">
<style type="text/css">
	.st0{fill:#EFDC8F;stroke:#000000;stroke-miterlimit:10;}
	.st1{fill:#DBC052;}
	.st2{fill:#EDD25F;}
	.st3{fill:#057033;}
	.st4{fill:#4A4044;}
	.st5{fill:#706167;}
	.st6{fill:#3F383B;}
	.st7{fill:#009245;}
	.st8{fill:#02873E;}
	.st9{fill:#CC4C4C;}
	.st10{fill:#EAD8D8;}
	.st11{fill:#E2E224;}
	.st12{display:none;}
	.st13{display:inline;fill:#EDD25F;}
</style>
<g id="Fond">
	<rect x="-0.5" y="0.5" class="st0" width="1920" height="1080"/>
</g>
<g id="Calque_7">
	<path class="st1" d="M1810.7,843.9c4.6-16.7,7-33.8,7-51.1c0-187.8-278.8-340.1-622.6-340.1S572.4,604.9,572.4,792.8
		c0,17.4,2.4,34.5,7,51.1H1810.7z"/>
	<path class="st2" d="M1291.2,842.9c4.2-13.5,6.4-27.4,6.4-41.5c0-152.5-253.6-276.1-566.5-276.1S164.5,648.9,164.5,801.4
		c0,14.1,2.2,28,6.4,41.5H1291.2z"/>
</g>
<g id="Calque_4">
	<polygon class="st3" points="991.3,782.6 993.6,787.7 988.9,787.7 	"/>
</g>
<g id="Calque_5">
	<g>
		<path class="st4" d="M295.2,497.6c1.3,5.8-1.9,11.5-7.2,12.6l-30,6.6l-37.3,8.2c-5.3,1.2-10.6-2.6-11.8-8.4l-11.1-50.2
			c-1.3-5.8,1.9-11.5,7.2-12.6l4.4-1c5.3-1.2,10.6,2.6,11.8,8.4l6.4,29.1c1.3,5.8,6.6,9.6,11.8,8.4l43.9-9.7
			C288.7,488,294,491.7,295.2,497.6L295.2,497.6z"/>
		<path class="st5" d="M329.8,568c1.3,6.2,6.3,10.4,11.1,9.4l27.8-5.7l34.5-7.1c4.9-1,7.8-6.9,6.5-13.1l-11.1-53.6
			c-1.3-6.2-6.3-10.4-11.1-9.4l-4.1,0.8c-4.9,1-7.8,6.9-6.5,13.1l6.4,31.1c1.3,6.2-1.6,12.1-6.5,13.1l-40.6,8.4
			C331.4,555.9,328.5,561.8,329.8,568L329.8,568z"/>
		<g>
			<path class="st4" d="M376,820.5L376,820.5c-14.1,3-28-6-31.1-20.1l-84.2-392.5c-3-14.1,6-28,20.1-31.1l0,0c14.1-3,28,6,31.1,20.1
				l84.2,392.5C399.1,803.5,390.1,817.4,376,820.5z"/>
			<path class="st5" d="M280.8,377.1c14.4-3.1,28.6,5.9,31.6,20l83.7,392.7c3,14.1-6.2,28.1-20.7,31.2"/>
		</g>
		<circle class="st4" cx="334.8" cy="605.1" r="13.9"/>
		<circle class="st6" cx="336.3" cy="605.4" r="7.8"/>
	</g>
	<path class="st4" d="M1701.5,529c-2.8,5.2-9,7.4-13.7,4.8l-27-14.6l-33.6-18.2c-4.7-2.6-6.3-8.9-3.4-14.1l24.5-45.2
		c2.8-5.2,9-7.4,13.7-4.8l4,2.1c4.7,2.6,6.3,8.9,3.4,14.1l-14.2,26.2c-2.8,5.2-1.3,11.6,3.4,14.1l39.5,21.4
		C1702.8,517.5,1704.4,523.8,1701.5,529L1701.5,529z"/>
	<path class="st5" d="M1681.5,604.9c-3.1,5.5-2.1,12,2.2,14.4l24.7,13.9l30.8,17.2c4.3,2.4,10.4-0.1,13.5-5.6l26.7-47.8
		c3.1-5.5,2.1-12-2.2-14.4l-3.6-2c-4.3-2.4-10.4,0.1-13.5,5.6l-15.5,27.7c-3.1,5.5-9.1,8-13.5,5.6l-36.2-20.3
		C1690.6,596.9,1684.6,599.4,1681.5,604.9L1681.5,604.9z"/>
	<path class="st4" d="M1551,825.9L1551,825.9c-12.7-7-17.3-22.9-10.3-35.5l193.5-351.7c7-12.7,22.9-17.3,35.5-10.3l0,0
		c12.7,7,17.3,22.9,10.3,35.5l-193.5,351.7C1579.6,828.3,1563.7,832.9,1551,825.9z"/>
	<path class="st5" d="M1769.6,428.6c12.9,7.1,17.7,23.2,10.7,35.8l-194.1,351.5c-7,12.6-23.1,17.1-36,10"/>
	
		<ellipse transform="matrix(0.6551 -0.7555 0.7555 0.6551 92.1333 1474.271)" class="st4" cx="1661" cy="636.2" rx="13.9" ry="13.9"/>
	
		<ellipse transform="matrix(0.6551 -0.7555 0.7555 0.6551 91.5737 1475.3677)" class="st6" cx="1661.9" cy="637.4" rx="7.8" ry="7.8"/>
</g>
<g id="Calque_1">
	<path class="st7" d="M606.1,815.5L606.1,815.5c-16.4,0-29.7-13.3-29.7-29.7V543.8c0-16.4,13.3-29.7,29.7-29.7h0
		c16.4,0,29.7,13.3,29.7,29.7v242.1C635.7,802.2,622.4,815.5,606.1,815.5z"/>
	<path class="st8" d="M628.8,648.6c0,4.2,2.9,7.5,6.5,7.5h20.5h25.5c3.6,0,6.5-3.4,6.5-7.5v-35.9c0-4.2-2.9-7.5-6.5-7.5h-3
		c-3.6,0-6.5,3.4-6.5,7.5v20.9c0,4.2-2.9,7.5-6.5,7.5h-30C631.7,641,628.8,644.4,628.8,648.6L628.8,648.6z"/>
	<path class="st7" d="M584.4,618.2c0,4.2-2.9,7.5-6.5,7.5h-20.5h-25.5c-3.6,0-6.5-3.4-6.5-7.5v-35.9c0-4.2,2.9-7.5,6.5-7.5h3
		c3.6,0,6.5,3.4,6.5,7.5v20.9c0,4.2,2.9,7.5,6.5,7.5h30C581.5,610.7,584.4,614,584.4,618.2L584.4,618.2z"/>
	<path class="st8" d="M606.1,514.1L606.1,514.1c16.4,0,29.7,13.3,29.7,29.7v242.1c0,16.4-13.3,29.7-29.7,29.7h0"/>
	<polygon class="st3" points="612.5,635.5 614.9,640.6 610.2,640.6 	"/>
	<polygon class="st3" points="620.9,647.4 623.3,652.5 618.5,652.5 	"/>
	<polygon class="st3" points="626.4,615.7 628.8,620.8 624,620.8 	"/>
	<polygon class="st3" points="625.6,632.9 628,638 623.3,638 	"/>
	<polygon class="st3" points="616.1,622.1 618.5,627.2 613.8,627.2 	"/>
	<polygon class="st3" points="612.5,609 614.9,614.1 610.2,614.1 	"/>
	<polygon class="st3" points="620.9,600.2 623.3,605.3 618.5,605.3 	"/>
	<polygon class="st3" points="631.2,593.6 633.5,598.7 628.8,598.7 	"/>
	<polygon class="st3" points="612.5,585.9 614.9,591 610.2,591 	"/>
	<polygon class="st3" points="623.3,582.3 625.6,587.4 620.9,587.4 	"/>
	<polygon class="st3" points="628.8,569.6 631.2,574.7 626.4,574.7 	"/>
	<polygon class="st3" points="611.6,572.2 614,577.3 609.2,577.3 	"/>
	<polygon class="st3" points="620,562.2 622.4,567.3 617.6,567.3 	"/>
	<polygon class="st3" points="630.4,555.2 632.8,560.3 628,560.3 	"/>
	<polygon class="st3" points="611.6,550.1 614,555.2 609.2,555.2 	"/>
	<polygon class="st3" points="626.4,538.8 628.8,543.9 624,543.9 	"/>
	<polygon class="st3" points="616.4,527.8 618.7,532.9 614,532.9 	"/>
	<polygon class="st3" points="631.5,659.4 633.9,664.5 629.1,664.5 	"/>
	<polygon class="st3" points="613.8,658.4 616.1,663.5 611.4,663.5 	"/>
	<polygon class="st3" points="623.3,670.4 625.6,675.5 620.9,675.5 	"/>
	<polygon class="st3" points="631.5,682.3 633.9,687.4 629.1,687.4 	"/>
	<polygon class="st3" points="613.8,684.1 616.1,689.2 611.4,689.2 	"/>
	<polygon class="st3" points="617,698.4 619.4,703.5 614.6,703.5 	"/>
	<polygon class="st3" points="629.9,700.2 632.3,705.3 627.5,705.3 	"/>
	<polygon class="st3" points="629.1,713.9 631.5,719 626.8,719 	"/>
	<polygon class="st3" points="613.8,712.7 616.1,717.8 611.4,717.8 	"/>
	<polygon class="st3" points="616.1,728 618.5,733.1 613.8,733.1 	"/>
	<polygon class="st3" points="629.9,726 632.3,731.1 627.5,731.1 	"/>
	<polygon class="st3" points="628.4,740.5 630.8,745.6 626,745.6 	"/>
	<polygon class="st3" points="613.8,740.5 616.1,745.6 611.4,745.6 	"/>
	<polygon class="st3" points="624.9,752.4 627.3,757.5 622.5,757.5 	"/>
	<polygon class="st3" points="615.5,760.2 617.9,765.3 613.1,765.3 	"/>
	<polygon class="st3" points="627.3,768 629.6,773.1 624.9,773.1 	"/>
	<polygon class="st3" points="617.3,779.9 619.7,785 614.9,785 	"/>
	<polygon class="st3" points="623.7,787.4 626,792.5 621.3,792.5 	"/>
	<polygon class="st3" points="614.9,800.7 617.3,805.8 612.5,805.8 	"/>
	<polygon class="st3" points="635.7,642.3 638.1,647.4 633.3,647.4 	"/>
	<polygon class="st3" points="648,647.4 650.4,652.5 645.6,652.5 	"/>
	<polygon class="st3" points="678.3,647.4 680.6,652.5 675.9,652.5 	"/>
	<polygon class="st3" points="662.1,644.9 664.5,650 659.7,650 	"/>
	<polygon class="st3" points="679.7,637.2 682.1,642.3 677.3,642.3 	"/>
	<polygon class="st3" points="677.3,626.8 679.7,631.9 674.9,631.9 	"/>
	<polygon class="st3" points="682.5,614.4 684.9,619.5 680.1,619.5 	"/>
	<g>
		<path class="st7" d="M1443.4,808.9L1443.4,808.9c-13,0-23.6-10.6-23.6-23.6V622.1c0-13,10.6-23.6,23.6-23.6h0
			c13,0,23.6,10.6,23.6,23.6v163.2C1467,798.4,1456.5,808.9,1443.4,808.9z"/>
		<path class="st8" d="M1461.5,692.4c0,2.9,2.3,5.3,5.2,5.3h16.3h20.3c2.9,0,5.2-2.4,5.2-5.3v-25.1c0-2.9-2.3-5.3-5.2-5.3h-2.4
			c-2.9,0-5.2,2.4-5.2,5.3v14.6c0,2.9-2.3,5.3-5.2,5.3h-23.8C1463.8,687.1,1461.5,689.5,1461.5,692.4L1461.5,692.4z"/>
		<path class="st7" d="M1426.2,671.2c0,2.9-2.3,5.3-5.2,5.3h-16.3h-20.3c-2.9,0-5.2-2.4-5.2-5.3v-25.1c0-2.9,2.3-5.3,5.2-5.3h2.4
			c2.9,0,5.2,2.4,5.2,5.3v14.6c0,2.9,2.3,5.3,5.2,5.3h23.8C1423.9,665.9,1426.2,668.3,1426.2,671.2L1426.2,671.2z"/>
		<path class="st8" d="M1443.4,598.5L1443.4,598.5c13,0,23.6,9.3,23.6,20.7v169c0,11.4-10.6,20.7-23.6,20.7h0"/>
		<polygon class="st3" points="1448.6,683.2 1450.5,686.8 1446.7,686.8 		"/>
		<polygon class="st3" points="1455.2,691.6 1457.1,695.1 1453.3,695.1 		"/>
		<polygon class="st3" points="1459.6,669.4 1461.5,673 1457.7,673 		"/>
		<polygon class="st3" points="1459,681.5 1460.9,685 1457.1,685 		"/>
		<polygon class="st3" points="1451.5,673.9 1453.3,677.5 1449.6,677.5 		"/>
		<polygon class="st3" points="1448.6,664.8 1450.5,668.4 1446.7,668.4 		"/>
		<polygon class="st3" points="1455.2,658.7 1457.1,662.2 1453.3,662.2 		"/>
		<polygon class="st3" points="1463.4,654 1465.3,657.5 1461.5,657.5 		"/>
		<polygon class="st3" points="1448.6,648.6 1450.5,652.2 1446.7,652.2 		"/>
		<polygon class="st3" points="1457.1,646.1 1459,649.7 1455.2,649.7 		"/>
		<polygon class="st3" points="1461.5,637.3 1463.4,640.9 1459.6,640.9 		"/>
		<polygon class="st3" points="1447.9,639.1 1449.7,642.6 1446,642.6 		"/>
		<polygon class="st3" points="1454.5,632.1 1456.4,635.6 1452.6,635.6 		"/>
		<polygon class="st3" points="1462.8,627.2 1464.7,630.8 1460.9,630.8 		"/>
		<polygon class="st3" points="1447.9,623.7 1449.7,627.2 1446,627.2 		"/>
		<polygon class="st3" points="1459.6,615.8 1461.5,619.3 1457.7,619.3 		"/>
		<polygon class="st3" points="1451.6,608.1 1453.5,611.7 1449.7,611.7 		"/>
		<polygon class="st3" points="1463.7,700 1465.6,703.5 1461.8,703.5 		"/>
		<polygon class="st3" points="1449.6,699.3 1451.5,702.9 1447.7,702.9 		"/>
		<polygon class="st3" points="1457.1,707.6 1459,711.2 1455.2,711.2 		"/>
		<polygon class="st3" points="1463.7,715.9 1465.6,719.5 1461.8,719.5 		"/>
		<polygon class="st3" points="1449.6,717.2 1451.5,720.8 1447.7,720.8 		"/>
		<polygon class="st3" points="1452.1,727.2 1454,730.7 1450.2,730.7 		"/>
		<polygon class="st3" points="1462.4,728.5 1464.3,732 1460.5,732 		"/>
		<polygon class="st3" points="1461.8,738 1463.7,741.5 1459.9,741.5 		"/>
		<polygon class="st3" points="1449.6,737.1 1451.5,740.7 1447.7,740.7 		"/>
		<polygon class="st3" points="1451.5,747.8 1453.3,751.4 1449.6,751.4 		"/>
		<polygon class="st3" points="1462.4,746.5 1464.3,750 1460.5,750 		"/>
		<polygon class="st3" points="1461.2,756.6 1463.1,760.1 1459.3,760.1 		"/>
		<polygon class="st3" points="1449.6,756.6 1451.5,760.1 1447.7,760.1 		"/>
		<polygon class="st3" points="1458.4,764.9 1460.3,768.4 1456.5,768.4 		"/>
		<polygon class="st3" points="1451,770.3 1452.8,773.9 1449.1,773.9 		"/>
		<polygon class="st3" points="1460.3,775.8 1462.2,779.3 1458.4,779.3 		"/>
		<polygon class="st3" points="1452.4,784.1 1454.3,787.7 1450.5,787.7 		"/>
		<polygon class="st3" points="1457.4,789.3 1459.3,792.9 1455.6,792.9 		"/>
		<polygon class="st3" points="1450.5,798.6 1452.4,802.2 1448.6,802.2 		"/>
		<polygon class="st3" points="1467,688 1468.9,691.6 1465.1,691.6 		"/>
		<polygon class="st3" points="1476.8,691.6 1478.7,695.1 1474.9,695.1 		"/>
		<polygon class="st3" points="1500.8,691.6 1502.7,695.1 1499,695.1 		"/>
		<polygon class="st3" points="1488,689.8 1489.9,693.4 1486.1,693.4 		"/>
		<polygon class="st3" points="1502,684.5 1503.9,688 1500.1,688 		"/>
		<polygon class="st3" points="1500.1,677.2 1502,680.8 1498.2,680.8 		"/>
		<polygon class="st3" points="1504.2,668.5 1506.1,672.1 1502.3,672.1 		"/>
	</g>
	<g>
		<g>
			<ellipse class="st7" cx="957.6" cy="746.5" rx="97.7" ry="76.2"/>
			<ellipse class="st8" cx="993.8" cy="744.6" rx="62.3" ry="51.6"/>
		</g>
		<polygon class="st3" points="963.3,734.4 965.7,739.5 960.9,739.5 		"/>
		<polygon class="st3" points="1030.7,756.3 1033,761.4 1028.3,761.4 		"/>
		<polygon class="st3" points="1021.7,771.4 1024.1,776.5 1019.3,776.5 		"/>
		<polygon class="st3" points="1001.6,761.4 1004,766.5 999.2,766.5 		"/>
		<polygon class="st3" points="1013.2,743.9 1015.6,749 1010.8,749 		"/>
		<polygon class="st3" points="1043.7,743.9 1046.1,749 1041.4,749 		"/>
		<polygon class="st3" points="1030.7,734.4 1033,739.5 1028.3,739.5 		"/>
		<polygon class="st3" points="1033.9,717.2 1036.2,722.3 1031.5,722.3 		"/>
		<polygon class="st3" points="1010.8,723.2 1013.2,728.3 1008.4,728.3 		"/>
		<polygon class="st3" points="1015.6,704.6 1017.9,709.7 1013.2,709.7 		"/>
		<polygon class="st3" points="972.8,776.5 975.2,781.6 970.4,781.6 		"/>
		<polygon class="st3" points="982.4,758.9 984.8,764 980.1,764 		"/>
		<polygon class="st3" points="992.6,739.5 995,744.6 990.2,744.6 		"/>
		<polygon class="st3" points="990.2,722.3 992.6,727.4 987.9,727.4 		"/>
		<polygon class="st3" points="962.4,752.1 964.8,757.2 960,757.2 		"/>
		<polygon class="st3" points="958.7,767.4 961.1,772.5 956.3,772.5 		"/>
		<polygon class="st3" points="944.9,754.6 947.2,759.7 942.5,759.7 		"/>
		<polygon class="st3" points="944.9,736.1 947.2,741.2 942.5,741.2 		"/>
		<polygon class="st9" points="949.7,670.9 965.4,661 963.3,677.7 981.1,684.4 963.3,691.2 965.4,707.9 949.7,698 934,707.9 
			936.1,691.2 918.3,684.4 936.1,677.7 934,661 		"/>
		<polygon class="st10" points="949.4,675.2 959.7,668.1 958.4,680.1 970.1,685 958.4,689.9 959.7,701.9 949.4,694.7 939,701.9 
			940.4,689.9 928.7,685 940.4,680.1 939,668.1 		"/>
		<circle class="st11" cx="949.4" cy="684.2" r="3.5"/>
		<polygon class="st3" points="957.6,705.4 960,710.5 955.3,710.5 		"/>
		<polygon class="st3" points="972.8,699.5 975.2,704.6 970.4,704.6 		"/>
		<polygon class="st3" points="988.9,696.9 991.3,702 986.5,702 		"/>
		<polygon class="st3" points="968,713.8 970.4,718.9 965.7,718.9 		"/>
		<polygon class="st3" points="950.2,718.9 952.5,724 947.8,724 		"/>
	</g>
	<g>
		<ellipse class="st7" cx="437.9" cy="775.4" rx="68.6" ry="50.3"/>
		<ellipse class="st8" cx="463.3" cy="774.2" rx="43.7" ry="34"/>
	</g>
	<polygon class="st3" points="441.9,767.4 443.6,770.8 440.2,770.8 	"/>
	<polygon class="st3" points="489.2,781.9 490.9,785.3 487.5,785.3 	"/>
	<polygon class="st3" points="482.9,791.8 484.6,795.2 481.3,795.2 	"/>
	<polygon class="st3" points="468.8,785.3 470.5,788.6 467.1,788.6 	"/>
	<polygon class="st3" points="476.9,773.7 478.6,777.1 475.3,777.1 	"/>
	<polygon class="st3" points="498.4,773.7 500.1,777.1 496.7,777.1 	"/>
	<polygon class="st3" points="489.2,767.4 490.9,770.8 487.5,770.8 	"/>
	<polygon class="st3" points="491.5,756.1 493.1,759.4 489.8,759.4 	"/>
	<polygon class="st3" points="475.3,760.1 476.9,763.4 473.6,763.4 	"/>
	<polygon class="st3" points="478.6,747.8 480.3,751.1 476.9,751.1 	"/>
	<polygon class="st3" points="448.6,795.2 450.2,798.6 446.9,798.6 	"/>
	<polygon class="st3" points="455.3,783.6 457,787 453.7,787 	"/>
	<polygon class="st3" points="462.5,770.8 464.2,774.1 460.8,774.1 	"/>
	<polygon class="st3" points="460.8,759.4 462.5,762.8 459.1,762.8 	"/>
	<polygon class="st3" points="441.2,779.1 442.9,782.5 439.6,782.5 	"/>
	<polygon class="st3" points="438.7,789.2 440.3,792.6 437,792.6 	"/>
	<polygon class="st3" points="428.9,780.8 430.6,784.2 427.3,784.2 	"/>
	<polygon class="st3" points="428.9,768.6 430.6,772 427.3,772 	"/>
	<polygon class="st9" points="432.3,725.5 443.4,719 441.9,730 454.4,734.5 441.9,738.9 443.4,749.9 432.3,743.4 421.3,749.9 
		422.8,738.9 410.3,734.5 422.8,730 421.3,719 	"/>
	<polygon class="st10" points="432.1,728.4 439.4,723.7 438.4,731.6 446.7,734.8 438.4,738.1 439.4,746 432.1,741.3 424.8,746 
		425.8,738.1 417.6,734.8 425.8,731.6 424.8,723.7 	"/>
	<ellipse class="st11" cx="432.1" cy="734.3" rx="2.4" ry="2.3"/>
	<polygon class="st3" points="437.9,748.3 439.6,751.6 436.2,751.6 	"/>
	<polygon class="st3" points="448.6,744.4 450.2,747.8 446.9,747.8 	"/>
	<polygon class="st3" points="459.9,742.7 461.5,746.1 458.2,746.1 	"/>
	<polygon class="st3" points="445.2,753.9 446.9,757.2 443.6,757.2 	"/>
	<polygon class="st3" points="432.7,757.2 434.3,760.6 431,760.6 	"/>
</g>
<g id="Calque_3" class="st12">
	<path class="st13" d="M1738.3,860.5H228.7c-16.6,0-30.1-13.5-30.1-30.1v0c0-16.6,13.5-30.1,30.1-30.1h1509.6
		c16.6,0,30.1,13.5,30.1,30.1v0C1768.4,847,1754.9,860.5,1738.3,860.5z"/>
</g>
<g id="Calque_6">
	<path class="st2" d="M390.4,845.3c4.3-6.8,6.7-14.1,6.7-21.8c0-36.1-52.6-65.3-117.5-65.3s-117.5,29.2-117.5,65.3
		c0,7.6,2.4,14.9,6.7,21.8H390.4z"/>
	<path class="st2" d="M630.2,845.3c5.1-6.8,7.9-14.1,7.9-21.8c0-36.1-61.6-65.3-137.5-65.3c-76,0-137.5,29.2-137.5,65.3
		c0,7.6,2.8,14.9,7.9,21.8H630.2z"/>
	<path class="st2" d="M808.2,845.3c5.3-6.8,8.2-14.1,8.2-21.8c0-36.1-64-65.3-143-65.3c-79,0-143,29.2-143,65.3
		c0,7.6,2.9,14.9,8.2,21.8H808.2z"/>
	<path class="st2" d="M1057.9,845.3c5.4-6.8,8.4-14.1,8.4-21.8c0-36.1-65.8-65.3-147-65.3c-81.2,0-147,29.2-147,65.3
		c0,7.6,3,14.9,8.4,21.8H1057.9z"/>
	<path class="st2" d="M1308.6,845.3c5-6.8,7.7-14.1,7.7-21.8c0-36.1-60.5-65.3-135.1-65.3c-74.6,0-135.1,29.2-135.1,65.3
		c0,7.6,2.7,14.9,7.7,21.8H1308.6z"/>
	<path class="st2" d="M1558.7,845.3c5-6.8,7.7-14.1,7.7-21.8c0-36.1-60.2-65.3-134.4-65.3c-74.2,0-134.4,29.2-134.4,65.3
		c0,7.6,2.7,14.9,7.7,21.8H1558.7z"/>
	<path class="st2" d="M1808.6,845.3c5-6.8,7.8-14.1,7.8-21.8c0-36.1-60.9-65.3-136.1-65.3c-75.2,0-136.1,29.2-136.1,65.3
		c0,7.6,2.8,14.9,7.8,21.8H1808.6z"/>
</g>
</svg>
