<?xml version="1.0" encoding="utf-8"?>
<!-- Generator: Adobe Illustrator 19.2.1, SVG Export Plug-In . SVG Version: 6.00 Build 0)  -->
<svg version="1.1" xmlns="http://www.w3.org/2000/svg" xmlns:xlink="http://www.w3.org/1999/xlink" x="0px" y="0px"
	 viewBox="0 0 1920 1080" style="enable-background:new 0 0 1920 1080;" xml:space="preserve">
<style type="text/css">
	.st0{fill:#FFFFC8;}
	.st1{fill:#75DB7B;}
	.st2{fill:#4FA161;}
	.st3{fill:#3D7D4B;}
	.st4{fill:#CBF2A4;}
	.st5{fill:#804104;}
	.st6{fill:#A35305;}
	.st7{fill:#8E7B82;}
	.st8{fill:#736369;}
	.st9{fill:#994E05;}
	.st10{fill:#7C3A09;}
	.st11{fill:#6DCC72;}
	.st12{fill:#6CC971;}
	.st13{fill:#76CE78;}
	.st14{fill:#83DD83;}
	.st15{fill:#7CE882;}
	.st16{fill:#A35305;stroke:#A35305;stroke-width:3;stroke-linecap:round;stroke-linejoin:round;stroke-miterlimit:10;}
</style>
<g id="Calque_2">
	<rect y="-2" class="st0" width="1920" height="1080"/>
</g>
<g id="Tree1">
	<g>
		<g>
			<path class="st1" d="M526.4,483.9L526.4,483.9c-1.8-3-0.7-6.9,2.3-8.7l62.4-36c3-1.8,6.9-0.7,8.7,2.3l0,0c1.8,3,0.7,6.9-2.3,8.7
				l-62.4,36C532,488,528.1,487,526.4,483.9z"/>
			<path class="st2" d="M461.6,680.1L461.6,680.1c-1.8-3-0.7-6.9,2.3-8.7l121.6-70.2c3-1.8,6.9-0.7,8.7,2.3l0,0
				c1.8,3,0.7,6.9-2.3,8.7l-121.6,70.2C467.2,684.2,463.3,683.2,461.6,680.1z"/>
			<path class="st1" d="M490.9,583.3L490.9,583.3c-1.8-3-0.7-6.9,2.3-8.7l92.3-53.3c3-1.8,6.9-0.7,8.7,2.3l0,0
				c1.8,3,0.7,6.9-2.3,8.7l-92.3,53.3C496.5,587.4,492.6,586.3,490.9,583.3z"/>
			<path class="st3" d="M441.7,733.1L441.7,733.1c-1.8-3-0.7-6.9,2.3-8.7l141.4-81.7c3-1.8,6.9-0.7,8.7,2.3l0,0
				c1.8,3,0.7,6.9-2.3,8.7l-141.4,81.7C447.4,737.2,443.5,736.1,441.7,733.1z"/>
			<path class="st4" d="M513.1,570.5L513.1,570.5c-1.8-3-0.7-6.9,2.3-8.7l70.1-40.5c3-1.8,6.9-0.7,8.7,2.3l0,0
				c1.8,3,0.7,6.9-2.3,8.7l-70.1,40.5C518.7,574.6,514.8,573.5,513.1,570.5z"/>
			<path class="st4" d="M547.9,471.5L547.9,471.5c-1.8-3-0.7-6.9,2.3-8.7l40.9-23.6c3-1.8,6.9-0.7,8.7,2.3l0,0
				c1.8,3,0.7,6.9-2.3,8.7l-40.9,23.6C553.5,475.6,549.6,474.6,547.9,471.5z"/>
			<path class="st1" d="M494.3,661.2L494.3,661.2c-1.8-3-0.7-6.9,2.3-8.7l88.8-51.3c3-1.8,6.9-0.7,8.7,2.3l0,0
				c1.8,3,0.7,6.9-2.3,8.7L503,663.6C500,665.3,496.1,664.3,494.3,661.2z"/>
			<path class="st4" d="M533.6,638.5L533.6,638.5c-1.8-3-0.7-6.9,2.3-8.7l49.6-28.6c3-1.8,6.9-0.7,8.7,2.3l0,0
				c1.8,3,0.7,6.9-2.3,8.7l-49.6,28.6C539.3,642.6,535.4,641.6,533.6,638.5z"/>
			<path class="st2" d="M468.6,717.5L468.6,717.5c-1.8-3-0.7-6.9,2.3-8.7l114.5-66.1c3-1.8,6.9-0.7,8.7,2.3l0,0
				c1.8,3,0.7,6.9-2.3,8.7l-114.5,66.1C474.3,721.6,470.4,720.6,468.6,717.5z"/>
			<path class="st1" d="M499.7,699.6L499.7,699.6c-1.8-3-0.7-6.9,2.3-8.7l83.5-48.2c3-1.8,6.9-0.7,8.7,2.3l0,0
				c1.8,3,0.7,6.9-2.3,8.7L508.4,702C505.3,703.7,501.4,702.7,499.7,699.6z"/>
			<path class="st4" d="M536.8,678.2L536.8,678.2c-1.8-3-0.7-6.9,2.3-8.7l46.3-26.7c3-1.8,6.9-0.7,8.7,2.3l0,0
				c1.8,3,0.7,6.9-2.3,8.7l-46.3,26.7C542.5,682.3,538.6,681.2,536.8,678.2z"/>
			<path class="st1" d="M502,536.9L502,536.9c-1.8-3-0.7-6.9,2.3-8.7l81.2-46.9c3-1.8,6.9-0.7,8.7,2.3l0,0c1.8,3,0.7,6.9-2.3,8.7
				l-81.2,46.9C507.6,541,503.7,540,502,536.9z"/>
			<path class="st4" d="M521.8,525.5L521.8,525.5c-1.8-3-0.7-6.9,2.3-8.7l61.4-35.4c3-1.8,6.9-0.7,8.7,2.3l0,0
				c1.8,3,0.7,6.9-2.3,8.7l-61.4,35.4C527.5,529.6,523.6,528.5,521.8,525.5z"/>
			<path class="st1" d="M480.7,628.4L480.7,628.4c-1.8-3-0.7-6.9,2.3-8.7l102.4-59.1c3-1.8,6.9-0.7,8.7,2.3v0c1.8,3,0.7,6.9-2.3,8.7
				l-102.4,59.1C486.4,632.5,482.5,631.4,480.7,628.4z"/>
			<path class="st4" d="M505.1,614.3L505.1,614.3c-1.8-3-0.7-6.9,2.3-8.7l78-45.1c3-1.8,6.9-0.7,8.7,2.3v0c1.8,3,0.7,6.9-2.3,8.7
				l-78,45.1C510.8,618.4,506.9,617.4,505.1,614.3z"/>
		</g>
		<g>
			<path class="st1" d="M666.5,485.2L666.5,485.2c1.8-3,0.7-6.9-2.3-8.7l-62.4-36c-3-1.8-6.9-0.7-8.7,2.3l0,0
				c-1.8,3-0.7,6.9,2.3,8.7l62.4,36C660.8,489.3,664.7,488.3,666.5,485.2z"/>
			<path class="st2" d="M731.3,681.4L731.3,681.4c1.8-3,0.7-6.9-2.3-8.7l-121.6-70.2c-3-1.8-6.9-0.7-8.7,2.3l0,0
				c-1.8,3-0.7,6.9,2.3,8.7l121.6,70.2C725.6,685.5,729.5,684.5,731.3,681.4z"/>
			<path class="st1" d="M702,584.6L702,584.6c1.8-3,0.7-6.9-2.3-8.7l-92.3-53.3c-3-1.8-6.9-0.7-8.7,2.3l0,0c-1.8,3-0.7,6.9,2.3,8.7
				l92.3,53.3C696.3,588.7,700.2,587.6,702,584.6z"/>
			<path class="st3" d="M751.1,734.4L751.1,734.4c1.8-3,0.7-6.9-2.3-8.7L607.4,644c-3-1.8-6.9-0.7-8.7,2.3v0c-1.8,3-0.7,6.9,2.3,8.7
				l141.4,81.7C745.5,738.5,749.4,737.4,751.1,734.4z"/>
			<path class="st4" d="M679.8,571.8L679.8,571.8c1.8-3,0.7-6.9-2.3-8.7l-70.1-40.5c-3-1.8-6.9-0.7-8.7,2.3l0,0
				c-1.8,3-0.7,6.9,2.3,8.7l70.1,40.5C674.1,575.9,678,574.8,679.8,571.8z"/>
			<path class="st4" d="M645,472.8L645,472.8c1.8-3,0.7-6.9-2.3-8.7l-40.9-23.6c-3-1.8-6.9-0.7-8.7,2.3l0,0c-1.8,3-0.7,6.9,2.3,8.7
				l40.9,23.6C639.3,476.9,643.2,475.9,645,472.8z"/>
			<path class="st1" d="M698.5,662.5L698.5,662.5c1.8-3,0.7-6.9-2.3-8.7l-88.8-51.3c-3-1.8-6.9-0.7-8.7,2.3l0,0
				c-1.8,3-0.7,6.9,2.3,8.7l88.8,51.3C692.9,666.6,696.8,665.6,698.5,662.5z"/>
			<path class="st4" d="M659.2,639.8L659.2,639.8c1.8-3,0.7-6.9-2.3-8.7l-49.6-28.6c-3-1.8-6.9-0.7-8.7,2.3l0,0
				c-1.8,3-0.7,6.9,2.3,8.7l49.6,28.6C653.6,643.9,657.5,642.9,659.2,639.8z"/>
			<path class="st2" d="M724.2,718.8L724.2,718.8c1.8-3,0.7-6.9-2.3-8.7L607.4,644c-3-1.8-6.9-0.7-8.7,2.3v0c-1.8,3-0.7,6.9,2.3,8.7
				l114.5,66.1C718.6,722.9,722.5,721.9,724.2,718.8z"/>
			<path class="st1" d="M693.2,700.9L693.2,700.9c1.8-3,0.7-6.9-2.3-8.7L607.4,644c-3-1.8-6.9-0.7-8.7,2.3v0c-1.8,3-0.7,6.9,2.3,8.7
				l83.5,48.2C687.5,705,691.4,704,693.2,700.9z"/>
			<path class="st4" d="M656,679.5L656,679.5c1.8-3,0.7-6.9-2.3-8.7L607.4,644c-3-1.8-6.9-0.7-8.7,2.3v0c-1.8,3-0.7,6.9,2.3,8.7
				l46.3,26.7C650.4,683.6,654.3,682.5,656,679.5z"/>
			<path class="st1" d="M690.9,538.2L690.9,538.2c1.8-3,0.7-6.9-2.3-8.7l-81.2-46.9c-3-1.8-6.9-0.7-8.7,2.3v0
				c-1.8,3-0.7,6.9,2.3,8.7l81.2,46.9C685.2,542.3,689.1,541.3,690.9,538.2z"/>
			<path class="st4" d="M671.1,526.8L671.1,526.8c1.8-3,0.7-6.9-2.3-8.7l-61.4-35.4c-3-1.8-6.9-0.7-8.7,2.3v0
				c-1.8,3-0.7,6.9,2.3,8.7l61.4,35.4C665.4,530.9,669.3,529.8,671.1,526.8z"/>
			<path class="st1" d="M712.1,629.7L712.1,629.7c1.8-3,0.7-6.9-2.3-8.7l-102.4-59.1c-3-1.8-6.9-0.7-8.7,2.3l0,0
				c-1.8,3-0.7,6.9,2.3,8.7L703.4,632C706.5,633.8,710.4,632.7,712.1,629.7z"/>
			<path class="st4" d="M687.7,615.6L687.7,615.6c1.8-3,0.7-6.9-2.3-8.7l-78-45.1c-3-1.8-6.9-0.7-8.7,2.3l0,0
				c-1.8,3-0.7,6.9,2.3,8.7l78,45.1C682.1,619.7,686,618.7,687.7,615.6z"/>
		</g>
		<g>
			<path class="st5" d="M605,851.2c0,5.4-4.4,9.8-9.8,9.8h-0.3c-5.4,0-9.8-4.4-9.8-9.8V447.8c0-5.4,4.4-9.8,9.8-9.8h0.3
				c5.4,0,9.8,4.4,9.8,9.8V851.2z"/>
			<path class="st6" d="M595.1,438.1c5.4,0,9.9,4.4,9.9,9.8v403.7c0,5.4-4.4,9.8-9.9,9.8"/>
		</g>
	</g>
	<g>
		<g>
			<path class="st1" d="M1074.1,482.9L1074.1,482.9c-1.8-3-0.7-6.9,2.3-8.7l62.4-36c3-1.8,6.9-0.7,8.7,2.3h0c1.8,3,0.7,6.9-2.3,8.7
				l-62.4,36C1079.7,487,1075.8,486,1074.1,482.9z"/>
			<path class="st2" d="M1009.3,679.1L1009.3,679.1c-1.8-3-0.7-6.9,2.3-8.7l121.6-70.2c3-1.8,6.9-0.7,8.7,2.3l0,0
				c1.8,3,0.7,6.9-2.3,8.7L1018,681.5C1014.9,683.2,1011,682.2,1009.3,679.1z"/>
			<path class="st1" d="M1038.5,582.3L1038.5,582.3c-1.8-3-0.7-6.9,2.3-8.7l92.3-53.3c3-1.8,6.9-0.7,8.7,2.3l0,0
				c1.8,3,0.7,6.9-2.3,8.7l-92.3,53.3C1044.2,586.4,1040.3,585.3,1038.5,582.3z"/>
			<path class="st3" d="M989.4,732.1L989.4,732.1c-1.8-3-0.7-6.9,2.3-8.7l141.4-81.7c3-1.8,6.9-0.7,8.7,2.3l0,0
				c1.8,3,0.7,6.9-2.3,8.7l-141.4,81.7C995.1,736.2,991.2,735.1,989.4,732.1z"/>
			<path class="st4" d="M1060.8,569.5L1060.8,569.5c-1.8-3-0.7-6.9,2.3-8.7l70.1-40.5c3-1.8,6.9-0.7,8.7,2.3l0,0
				c1.8,3,0.7,6.9-2.3,8.7l-70.1,40.5C1066.4,573.6,1062.5,572.5,1060.8,569.5z"/>
			<path class="st4" d="M1095.6,470.5L1095.6,470.5c-1.8-3-0.7-6.9,2.3-8.7l40.9-23.6c3-1.8,6.9-0.7,8.7,2.3h0
				c1.8,3,0.7,6.9-2.3,8.7l-40.9,23.6C1101.2,474.6,1097.3,473.6,1095.6,470.5z"/>
			<path class="st1" d="M1042,660.2L1042,660.2c-1.8-3-0.7-6.9,2.3-8.7l88.8-51.3c3-1.8,6.9-0.7,8.7,2.3l0,0c1.8,3,0.7,6.9-2.3,8.7
				l-88.8,51.3C1047.7,664.3,1043.8,663.3,1042,660.2z"/>
			<path class="st4" d="M1081.3,637.5L1081.3,637.5c-1.8-3-0.7-6.9,2.3-8.7l49.6-28.6c3-1.8,6.9-0.7,8.7,2.3l0,0
				c1.8,3,0.7,6.9-2.3,8.7l-49.6,28.6C1087,641.6,1083.1,640.6,1081.3,637.5z"/>
			<path class="st2" d="M1016.3,716.5L1016.3,716.5c-1.8-3-0.7-6.9,2.3-8.7l114.5-66.1c3-1.8,6.9-0.7,8.7,2.3l0,0
				c1.8,3,0.7,6.9-2.3,8.7L1025,718.9C1022,720.6,1018.1,719.6,1016.3,716.5z"/>
			<path class="st1" d="M1047.3,698.6L1047.3,698.6c-1.8-3-0.7-6.9,2.3-8.7l83.5-48.2c3-1.8,6.9-0.7,8.7,2.3l0,0
				c1.8,3,0.7,6.9-2.3,8.7L1056,701C1053,702.7,1049.1,701.7,1047.3,698.6z"/>
			<path class="st4" d="M1084.5,677.2L1084.5,677.2c-1.8-3-0.7-6.9,2.3-8.7l46.3-26.7c3-1.8,6.9-0.7,8.7,2.3l0,0
				c1.8,3,0.7,6.9-2.3,8.7l-46.3,26.7C1090.2,681.3,1086.3,680.2,1084.5,677.2z"/>
			<path class="st1" d="M1049.7,535.9L1049.7,535.9c-1.8-3-0.7-6.9,2.3-8.7l81.2-46.9c3-1.8,6.9-0.7,8.7,2.3l0,0
				c1.8,3,0.7,6.9-2.3,8.7l-81.2,46.9C1055.3,540,1051.4,539,1049.7,535.9z"/>
			<path class="st4" d="M1069.5,524.5L1069.5,524.5c-1.8-3-0.7-6.9,2.3-8.7l61.4-35.4c3-1.8,6.9-0.7,8.7,2.3l0,0
				c1.8,3,0.7,6.9-2.3,8.7l-61.4,35.4C1075.1,528.6,1071.2,527.5,1069.5,524.5z"/>
			<path class="st1" d="M1028.4,627.4L1028.4,627.4c-1.8-3-0.7-6.9,2.3-8.7l102.4-59.1c3-1.8,6.9-0.7,8.7,2.3v0
				c1.8,3,0.7,6.9-2.3,8.7l-102.4,59.1C1034.1,631.5,1030.2,630.4,1028.4,627.4z"/>
			<path class="st4" d="M1052.8,613.3L1052.8,613.3c-1.8-3-0.7-6.9,2.3-8.7l78-45.1c3-1.8,6.9-0.7,8.7,2.3v0c1.8,3,0.7,6.9-2.3,8.7
				l-78,45.1C1058.5,617.4,1054.6,616.4,1052.8,613.3z"/>
		</g>
		<g>
			<path class="st1" d="M1214.2,484.2L1214.2,484.2c1.8-3,0.7-6.9-2.3-8.7l-62.4-36c-3-1.8-6.9-0.7-8.7,2.3v0
				c-1.8,3-0.7,6.9,2.3,8.7l62.4,36C1208.5,488.3,1212.4,487.3,1214.2,484.2z"/>
			<path class="st2" d="M1279,680.4L1279,680.4c1.8-3,0.7-6.9-2.3-8.7L1155,601.5c-3-1.8-6.9-0.7-8.7,2.3h0c-1.8,3-0.7,6.9,2.3,8.7
				l121.6,70.2C1273.3,684.5,1277.2,683.5,1279,680.4z"/>
			<path class="st1" d="M1249.7,583.6L1249.7,583.6c1.8-3,0.7-6.9-2.3-8.7l-92.3-53.3c-3-1.8-6.9-0.7-8.7,2.3h0
				c-1.8,3-0.7,6.9,2.3,8.7l92.3,53.3C1244,587.7,1247.9,586.6,1249.7,583.6z"/>
			<path class="st3" d="M1298.8,733.4L1298.8,733.4c1.8-3,0.7-6.9-2.3-8.7L1155,643c-3-1.8-6.9-0.7-8.7,2.3l0,0
				c-1.8,3-0.7,6.9,2.3,8.7l141.4,81.7C1293.1,737.5,1297,736.4,1298.8,733.4z"/>
			<path class="st4" d="M1227.5,570.8L1227.5,570.8c1.8-3,0.7-6.9-2.3-8.7l-70.1-40.5c-3-1.8-6.9-0.7-8.7,2.3h0
				c-1.8,3-0.7,6.9,2.3,8.7l70.1,40.5C1221.8,574.9,1225.7,573.8,1227.5,570.8z"/>
			<path class="st4" d="M1192.7,471.8L1192.7,471.8c1.8-3,0.7-6.9-2.3-8.7l-40.9-23.6c-3-1.8-6.9-0.7-8.7,2.3v0
				c-1.8,3-0.7,6.9,2.3,8.7l40.9,23.6C1187,475.9,1190.9,474.9,1192.7,471.8z"/>
			<path class="st1" d="M1246.2,661.5L1246.2,661.5c1.8-3,0.7-6.9-2.3-8.7l-88.8-51.3c-3-1.8-6.9-0.7-8.7,2.3h0
				c-1.8,3-0.7,6.9,2.3,8.7l88.8,51.3C1240.5,665.6,1244.4,664.6,1246.2,661.5z"/>
			<path class="st4" d="M1206.9,638.8L1206.9,638.8c1.8-3,0.7-6.9-2.3-8.7l-49.6-28.6c-3-1.8-6.9-0.7-8.7,2.3h0
				c-1.8,3-0.7,6.9,2.3,8.7l49.6,28.6C1201.3,642.9,1205.2,641.9,1206.9,638.8z"/>
			<path class="st2" d="M1271.9,717.8L1271.9,717.8c1.8-3,0.7-6.9-2.3-8.7L1155,643c-3-1.8-6.9-0.7-8.7,2.3l0,0
				c-1.8,3-0.7,6.9,2.3,8.7l114.5,66.1C1266.3,721.9,1270.1,720.9,1271.9,717.8z"/>
			<path class="st1" d="M1240.9,699.9L1240.9,699.9c1.8-3,0.7-6.9-2.3-8.7L1155,643c-3-1.8-6.9-0.7-8.7,2.3l0,0
				c-1.8,3-0.7,6.9,2.3,8.7l83.5,48.2C1235.2,704,1239.1,703,1240.9,699.9z"/>
			<path class="st4" d="M1203.7,678.5L1203.7,678.5c1.8-3,0.7-6.9-2.3-8.7L1155,643c-3-1.8-6.9-0.7-8.7,2.3l0,0
				c-1.8,3-0.7,6.9,2.3,8.7l46.3,26.7C1198,682.6,1201.9,681.5,1203.7,678.5z"/>
			<path class="st1" d="M1238.6,537.2L1238.6,537.2c1.8-3,0.7-6.9-2.3-8.7l-81.2-46.9c-3-1.8-6.9-0.7-8.7,2.3l0,0
				c-1.8,3-0.7,6.9,2.3,8.7l81.2,46.9C1232.9,541.3,1236.8,540.3,1238.6,537.2z"/>
			<path class="st4" d="M1218.7,525.8L1218.7,525.8c1.8-3,0.7-6.9-2.3-8.7l-61.4-35.4c-3-1.8-6.9-0.7-8.7,2.3l0,0
				c-1.8,3-0.7,6.9,2.3,8.7l61.4,35.4C1213.1,529.9,1217,528.8,1218.7,525.8z"/>
			<path class="st1" d="M1259.8,628.7L1259.8,628.7c1.8-3,0.7-6.9-2.3-8.7L1155,560.8c-3-1.8-6.9-0.7-8.7,2.3h0
				c-1.8,3-0.7,6.9,2.3,8.7l102.4,59.1C1254.2,632.8,1258.1,631.7,1259.8,628.7z"/>
			<path class="st4" d="M1235.4,614.6L1235.4,614.6c1.8-3,0.7-6.9-2.3-8.7l-78-45.1c-3-1.8-6.9-0.7-8.7,2.3h0
				c-1.8,3-0.7,6.9,2.3,8.7l78,45.1C1229.8,618.7,1233.7,617.7,1235.4,614.6z"/>
		</g>
		<g>
			<path class="st5" d="M1153,851.2c0,5.4-4.4,9.8-9.8,9.8h-0.3c-5.4,0-9.8-4.4-9.8-9.8V447.8c0-5.4,4.4-9.8,9.8-9.8h0.3
				c5.4,0,9.8,4.4,9.8,9.8V851.2z"/>
			<path class="st6" d="M1142.9,438.1c5.4,0,10.1,4.4,10.1,9.8v403.7c0,5.4-4.5,9.8-10,9.8"/>
		</g>
	</g>
</g>
<g id="Tree3">
</g>
<g id="Bush">
	<g>
		<g>
			<path class="st7" d="M875,854.1c0,3.8-3.1,6.9-6.9,6.9h-0.1c-3.8,0-6.9-3.1-6.9-6.9V699.9c0-3.8,3.1-6.9,6.9-6.9h0.1
				c3.8,0,6.9,3.1,6.9,6.9V854.1z"/>
			<path class="st8" d="M868,861.5L868,861.5c-3.9,0-7-3.1-7-6.9V700.2c0-3.8,3.1-6.9,7-6.9h0"/>
		</g>
		<g>
			<circle class="st1" cx="868" cy="688.6" r="50"/>
			<circle class="st4" cx="879.4" cy="685.9" r="38.5"/>
		</g>
	</g>
	<g>
		<g>
			<path class="st7" d="M526,856c0,2.8-2.2,5-5,5l0,0c-2.8,0-5-2.2-5-5v-99c0-2.8,2.2-5,5-5l0,0c2.8,0,5,2.2,5,5V856z"/>
			<path class="st8" d="M521,861.5L521,861.5c-2.8,0-5-2-5-4.5V756.8c0-2.5,2.2-4.5,5.1-4.5h0"/>
		</g>
		<g>
			<ellipse class="st1" cx="521" cy="749.3" rx="37" ry="32.4"/>
			<ellipse class="st4" cx="529.5" cy="747.5" rx="28.5" ry="25"/>
		</g>
	</g>
	<g>
		<g>
			<path class="st7" d="M568,858.7c0,1.8-1.5,3.3-3.3,3.3h-0.4c-1.8,0-3.3-1.5-3.3-3.3v-71.4c0-1.8,1.5-3.3,3.3-3.3h0.4
				c1.8,0,3.3,1.5,3.3,3.3V858.7z"/>
			<path class="st8" d="M563.9,861.5h0.2c-1.8,0-3.1-1.4-3.1-3.2V787c0-1.8,1.3-3.2,3.1-3.2H564"/>
		</g>
		<g>
			<ellipse class="st1" cx="563.9" cy="781.6" rx="23.6" ry="23.1"/>
			<ellipse class="st4" cx="569.3" cy="780.4" rx="18.2" ry="17.8"/>
		</g>
	</g>
	<g>
		<g>
			<path class="st7" d="M675,854.1c0,3.8-3.1,6.9-6.9,6.9h-0.1c-3.8,0-6.9-3.1-6.9-6.9V699.9c0-3.8,3.1-6.9,6.9-6.9h0.1
				c3.8,0,6.9,3.1,6.9,6.9V854.1z"/>
			<path class="st8" d="M668.2,861.5h-0.1c-3.8,0-7.1-3.1-7.1-6.9V700.2c0-3.8,3.2-6.9,7.1-6.9h0.1"/>
		</g>
		<g>
			<circle class="st1" cx="668.2" cy="688.6" r="50"/>
			<circle class="st4" cx="679.6" cy="685.9" r="38.5"/>
		</g>
	</g>
	<g>
		<g>
			<path class="st7" d="M1190,856c0,2.8-2.2,5-5,5l0,0c-2.8,0-5-2.2-5-5v-99c0-2.8,2.2-5,5-5l0,0c2.8,0,5,2.2,5,5V856z"/>
			<path class="st8" d="M1185.5,861.5h-0.2c-2.8,0-5.3-2-5.3-4.5V756.8c0-2.5,2.5-4.5,5.3-4.5h0.1"/>
		</g>
		<g>
			<ellipse class="st1" cx="1185.5" cy="749.3" rx="37" ry="32.4"/>
			<ellipse class="st4" cx="1194" cy="747.5" rx="28.5" ry="25"/>
		</g>
	</g>
	<g>
		<g>
			<path class="st7" d="M1232,858.7c0,1.8-1.5,3.3-3.3,3.3h-0.4c-1.8,0-3.3-1.5-3.3-3.3v-71.4c0-1.8,1.5-3.3,3.3-3.3h0.4
				c1.8,0,3.3,1.5,3.3,3.3V858.7z"/>
			<path class="st8" d="M1228.4,861.5L1228.4,861.5c-1.9,0-3.4-1.4-3.4-3.2V787c0-1.8,1.5-3.2,3.3-3.2h0"/>
		</g>
		<g>
			<ellipse class="st1" cx="1228.4" cy="781.6" rx="23.6" ry="23.1"/>
			<ellipse class="st4" cx="1233.8" cy="780.4" rx="18.2" ry="17.8"/>
		</g>
	</g>
	<g>
		<g>
			<path class="st7" d="M1530,858.7c0,1.8-1.5,3.3-3.3,3.3h-0.4c-1.8,0-3.3-1.5-3.3-3.3v-71.4c0-1.8,1.5-3.3,3.3-3.3h0.4
				c1.8,0,3.3,1.5,3.3,3.3V858.7z"/>
			<path class="st8" d="M1526.5,861.5L1526.5,861.5c-1.9,0-3.5-1.4-3.5-3.2V787c0-1.8,1.6-3.2,3.4-3.2h0"/>
		</g>
		<g>
			<ellipse class="st1" cx="1526.5" cy="781.6" rx="23.6" ry="23.1"/>
			<ellipse class="st4" cx="1531.9" cy="780.4" rx="18.2" ry="17.8"/>
		</g>
	</g>
</g>
<g id="Oak">
	<g>
		<g>
			<path class="st9" d="M1020,598.5c0-5.2-4.3-9.5-9.5-9.5l0,0c-5.2,0-9.5,4.3-9.5,9.5v254c0,5.2,4.3,9.5,9.5,9.5l0,0
				c5.2,0,9.5-4.3,9.5-9.5V598.5z"/>
			<polygon class="st10" points="1009.3,757.5 1012.8,763.7 1005.7,763.8 			"/>
			<polygon class="st10" points="1014.4,737.9 1017.8,744 1010.8,744.1 			"/>
			<polygon class="st10" points="1008.7,721.9 1012.1,728.1 1005.1,728.2 			"/>
			<polygon class="st10" points="1015.7,702.7 1019.2,708.9 1012.1,709 			"/>
			<polygon class="st10" points="1007.3,692.2 1010.8,698.3 1003.7,698.4 			"/>
			<polygon class="st10" points="1015.7,675.6 1019.2,681.8 1012.1,681.9 			"/>
			<polygon class="st10" points="1005.8,659.4 1009.2,665.5 1002.2,665.6 			"/>
			<polygon class="st10" points="1016.3,654.8 1019.7,660.9 1012.7,661 			"/>
			<polygon class="st10" points="1010.3,846.6 1013.7,852.8 1006.7,852.9 			"/>
			<polygon class="st10" points="1016.4,826 1019.8,832.1 1012.8,832.2 			"/>
			<polygon class="st10" points="1005.8,813.6 1009.2,819.7 1002.2,819.8 			"/>
			<polygon class="st10" points="1015.4,789.4 1018.8,795.5 1011.7,795.6 			"/>
		</g>
		<g>
			<g>
				<path class="st1" d="M1155,601.1c0,30.3-24.6,54.9-54.9,54.9H917.9c-30.3,0-54.9-24.6-54.9-54.9v-0.2
					c0-30.3,24.6-54.9,54.9-54.9h182.2c30.3,0,54.9,24.6,54.9,54.9V601.1z"/>
				<path class="st1" d="M1113,522.5c0,24.6-19.9,44.5-44.5,44.5h-119c-24.6,0-44.5-19.9-44.5-44.5l0,0c0-24.6,19.9-44.5,44.5-44.5
					h119C1093.1,478,1113,497.9,1113,522.5L1113,522.5z"/>
				<path class="st1" d="M1049,463.7c0,17.3-14,31.3-31.3,31.3h-17.3c-17.3,0-31.3-14-31.3-31.3v-0.3c0-17.3,14-31.3,31.3-31.3h17.3
					c17.3,0,31.3,14,31.3,31.3V463.7z"/>
			</g>
			<g>
				<path class="st11" d="M1011,546h-93.1c-30.3,0-54.9,24.8-54.9,55.1v0c0,30.3,24.6,54.9,54.9,54.9h93.1V546z"/>
				<path class="st11" d="M1011,478h-61.2c-24.6,0-44.6,19.8-44.6,44.4v0c0,24.6,20,44.6,44.6,44.6h61.2V478z"/>
				<path class="st11" d="M1011,432h-10.5c-17.3,0-31.3,14.1-31.3,31.4v0.1c0,17.3,14,31.4,31.3,31.4h10.5V432z"/>
			</g>
			<polygon class="st2" points="929,618.9 932.4,625 925.3,625.2 			"/>
			<polygon class="st2" points="964,578.8 967.4,585 960.3,585.1 			"/>
			<polygon class="st2" points="938.9,596.8 942.3,602.9 935.2,603 			"/>
			<polygon class="st2" points="954.5,628.5 958,634.6 950.9,634.7 			"/>
			<polygon class="st2" points="982.2,620.1 985.6,626.2 978.6,626.3 			"/>
			<polygon class="st2" points="909.6,637.6 913,643.8 905.9,643.9 			"/>
			<polygon class="st2" points="893.9,611.8 897.4,617.9 890.3,618 			"/>
			<polygon class="st2" points="905.3,584.2 908.7,590.4 901.7,590.5 			"/>
			<polygon class="st2" points="933.5,563.7 936.9,569.9 929.8,570 			"/>
			<polygon class="st2" points="991.3,557.5 994.8,563.6 987.7,563.7 			"/>
			<polygon class="st2" points="965.8,540.9 969.2,547 962.2,547.2 			"/>
			<polygon class="st2" points="937,533.3 940.4,539.5 933.4,539.6 			"/>
			<polygon class="st2" points="992.2,524.9 995.6,531 988.6,531.2 			"/>
			<polygon class="st2" points="925.6,510.9 929.1,517 922,517.1 			"/>
			<polygon class="st2" points="960.4,509.4 963.9,515.6 956.8,515.7 			"/>
			<polygon class="st2" points="991.3,504.6 994.8,510.7 987.7,510.9 			"/>
			<polygon class="st2" points="951.2,486.3 954.7,492.4 947.6,492.6 			"/>
			<polygon class="st2" points="999.4,480 1002.9,486.2 995.8,486.3 			"/>
			<polygon class="st2" points="1003,440.5 1006.4,446.7 999.3,446.8 			"/>
			<polygon class="st2" points="984.3,463.5 987.7,469.7 980.7,469.8 			"/>
		</g>
	</g>
	<g>
		<g>
			<path class="st9" d="M1489,734.4c0-3.5-2.9-6.4-6.4-6.4h-0.2c-3.5,0-6.4,2.9-6.4,6.4v120.2c0,3.5,2.9,6.4,6.4,6.4h0.2
				c3.5,0,6.4-2.9,6.4-6.4V734.4z"/>
			<polygon class="st10" points="1481,810.7 1483.3,813.7 1478.6,813.7 			"/>
			<polygon class="st10" points="1484.3,801.1 1486.6,804.1 1481.9,804.1 			"/>
			<polygon class="st10" points="1480.5,793.3 1482.8,796.3 1478.1,796.3 			"/>
			<polygon class="st10" points="1485.2,783.9 1487.5,786.9 1482.8,786.9 			"/>
			<polygon class="st10" points="1479.6,778.7 1481.9,781.7 1477.2,781.8 			"/>
			<polygon class="st10" points="1485.2,770.6 1487.5,773.6 1482.8,773.7 			"/>
			<polygon class="st10" points="1478.6,762.7 1480.9,765.7 1476.2,765.8 			"/>
			<polygon class="st10" points="1485.6,760.4 1487.9,763.4 1483.2,763.5 			"/>
			<polygon class="st10" points="1481.6,854.2 1483.9,857.2 1479.2,857.3 			"/>
			<polygon class="st10" points="1485.7,844.1 1488,847.1 1483.3,847.2 			"/>
			<polygon class="st10" points="1478.6,838.1 1480.9,841.1 1476.2,841.1 			"/>
			<polygon class="st10" points="1485,826.2 1487.3,829.2 1482.6,829.3 			"/>
		</g>
		<g>
			<g>
				<path class="st1" d="M1578,734.2c0,14.8-12,26.8-26.8,26.8h-140.3c-14.8,0-26.8-12-26.8-26.8v-0.3c0-14.8,12-26.8,26.8-26.8
					h140.3c14.8,0,26.8,12,26.8,26.8V734.2z"/>
				<path class="st1" d="M1550,696.2c0,12-9.8,21.8-21.8,21.8h-94.4c-12,0-21.8-9.8-21.8-21.8v-0.4c0-12,9.8-21.8,21.8-21.8h94.4
					c12,0,21.8,9.8,21.8,21.8V696.2z"/>
				<path class="st1" d="M1507,667.7c0,8.5-6.9,15.3-15.3,15.3h-22.4c-8.5,0-15.3-6.9-15.3-15.3v-0.4c0-8.5,6.9-15.3,15.3-15.3h22.4
					c8.5,0,15.3,6.9,15.3,15.3V667.7z"/>
			</g>
			<g>
				<path class="st11" d="M1482,707h-61.8c-20.2,0-36.5,12.2-36.5,27.1v0c0,14.8,16.3,26.9,36.5,26.9h61.8V707z"/>
				<path class="st11" d="M1482,674h-40.6c-16.4,0-29.7,9.7-29.7,21.7v-0.3c0,12,13.3,21.5,29.7,21.5h40.6V674z"/>
				<path class="st11" d="M1482,652h-6.9c-11.5,0-20.8,6.7-20.8,15.1v-0.2c0,8.5,9.3,15.1,20.8,15.1h6.9V652z"/>
			</g>
			<polygon class="st2" points="1427.5,742.9 1429.8,745.9 1425.1,746 			"/>
			<polygon class="st2" points="1450.8,723.3 1453.1,726.3 1448.4,726.4 			"/>
			<polygon class="st2" points="1434.1,732.1 1436.4,735.1 1431.7,735.1 			"/>
			<polygon class="st2" points="1444.5,747.6 1446.8,750.6 1442.1,750.6 			"/>
			<polygon class="st2" points="1462.9,743.5 1465.2,746.5 1460.5,746.5 			"/>
			<polygon class="st2" points="1414.6,752 1416.9,755.1 1412.2,755.1 			"/>
			<polygon class="st2" points="1404.2,739.4 1406.5,742.4 1401.8,742.5 			"/>
			<polygon class="st2" points="1411.8,726 1414.1,729 1409.4,729 			"/>
			<polygon class="st2" points="1430.5,715.9 1432.8,718.9 1428.1,719 			"/>
			<polygon class="st2" points="1469,712.9 1471.3,715.9 1466.6,715.9 			"/>
			<polygon class="st2" points="1452,704.8 1454.3,707.8 1449.6,707.8 			"/>
			<polygon class="st2" points="1432.9,701.1 1435.1,704.1 1430.5,704.1 			"/>
			<polygon class="st2" points="1469.6,696.9 1471.9,700 1467.2,700 			"/>
			<polygon class="st2" points="1425.3,690.1 1427.6,693.1 1422.9,693.2 			"/>
			<polygon class="st2" points="1448.5,689.4 1450.7,692.4 1446,692.4 			"/>
			<polygon class="st2" points="1469,687 1471.3,690 1466.6,690.1 			"/>
			<polygon class="st2" points="1442.3,678.1 1444.6,681.1 1439.9,681.1 			"/>
			<polygon class="st2" points="1474.4,675 1476.7,678 1472,678.1 			"/>
			<polygon class="st2" points="1476.7,655.7 1479,658.7 1474.3,658.8 			"/>
			<polygon class="st2" points="1464.3,667 1466.6,670 1461.9,670 			"/>
		</g>
	</g>
</g>
<g id="Pine">
	<g>
		<g>
			<g>
				<g>
					<path class="st5" d="M1394,851.2c0,5.4-4.4,9.8-9.8,9.8h-11.3c-5.4,0-9.8-4.4-9.8-9.8V610.8c0-5.4,4.4-9.8,9.8-9.8h11.3
						c5.4,0,9.8,4.4,9.8,9.8V851.2z"/>
				</g>
				<g>
					<path class="st6" d="M1378.6,601.1c8.6,0,15.4,6.1,15.4,13.6v233.2c0,7.5-6.9,13.6-15.5,13.6"/>
				</g>
			</g>
			<polygon class="st12" points="1378.8,463.2 1514.4,669 1243.2,669 			"/>
			<polygon class="st13" points="1378.8,437 1481.2,598 1276.3,598 			"/>
			<polygon class="st14" points="1378.8,426.1 1463.3,537 1294.3,537 			"/>
			<polyline class="st2" points="1306.6,580.2 1312.4,571.6 1317.8,580.1 			"/>
			<polyline class="st2" points="1334.2,557.9 1340,549.3 1345.4,557.8 			"/>
			<polyline class="st2" points="1360.1,584.6 1365.8,575.9 1371.3,584.4 			"/>
			<polyline class="st2" points="1373.2,553.6 1378.9,544.9 1384.4,553.4 			"/>
			<polyline class="st2" points="1399.5,584.6 1405.2,575.9 1410.6,584.4 			"/>
			<polyline class="st2" points="1423.3,562.3 1429,553.6 1434.5,562.1 			"/>
			<polyline class="st2" points="1306.6,621.3 1312.4,612.6 1317.8,621.1 			"/>
			<polyline class="st2" points="1276.3,648.9 1282.1,640.2 1287.5,648.7 			"/>
			<polyline class="st2" points="1323.1,657.5 1328.8,648.9 1334.2,657.4 			"/>
			<polyline class="st2" points="1360.1,612.6 1365.8,604 1371.3,612.5 			"/>
			<polyline class="st2" points="1373.2,655.3 1378.9,646.6 1384.4,655.2 			"/>
			<polyline class="st2" points="1440.9,612.6 1446.7,604 1452.1,612.5 			"/>
			<polyline class="st2" points="1399.5,625.6 1405.2,616.9 1410.6,625.5 			"/>
			<polyline class="st2" points="1446.5,651 1452.2,642.3 1457.7,650.8 			"/>
			<polyline class="st2" points="1339.8,634.3 1345.6,625.6 1351,634.1 			"/>
			<polyline class="st2" points="1331.4,530.7 1337.1,522.1 1342.5,530.6 			"/>
			<polyline class="st2" points="1357.6,508.2 1363.3,499.5 1368.8,508 			"/>
			<polyline class="st2" points="1388.8,526.4 1394.5,517.7 1400,526.2 			"/>
			<polyline class="st2" points="1394.4,489.9 1400.1,481.2 1405.6,489.7 			"/>
			<polyline class="st2" points="1373.2,467.9 1378.9,459.2 1384.4,467.7 			"/>
		</g>
		<polyline class="st2" points="1387.6,567.9 1393.3,559.3 1398.8,567.8 		"/>
	</g>
	<g>
		<g>
			<g>
				<g>
					<path class="st5" d="M1278,851.2c0,5.4-4.4,9.8-9.8,9.8h-0.3c-5.4,0-9.8-4.4-9.8-9.8V682.8c0-5.4,4.4-9.8,9.8-9.8h0.3
						c5.4,0,9.8,4.4,9.8,9.8V851.2z"/>
				</g>
				<g>
					<path class="st6" d="M1267.3,673.2c5.4,0,9.7,4.4,9.7,9.8v168.6c0,5.4-4.4,9.8-9.8,9.8"/>
				</g>
			</g>
			<polygon class="st12" points="1267.4,574.2 1353,723 1181.8,723 			"/>
			<polygon class="st13" points="1267.4,554.6 1332,671 1202.7,671 			"/>
			<polygon class="st14" points="1267.4,546.8 1320.7,627 1214,627 			"/>
			<polyline class="st2" points="1221.8,658.2 1225.5,651.9 1228.9,658 			"/>
			<polyline class="st2" points="1239.3,642 1242.9,635.8 1246.3,641.9 			"/>
			<polyline class="st2" points="1255.6,661.3 1259.2,655 1262.6,661.2 			"/>
			<polyline class="st2" points="1263.8,638.9 1267.5,632.6 1270.9,638.8 			"/>
			<polyline class="st2" points="1280.4,661.3 1284,655 1287.5,661.2 			"/>
			<polyline class="st2" points="1295.5,645.2 1299.1,638.9 1302.5,645 			"/>
			<polyline class="st2" points="1221.8,687.8 1225.5,681.6 1228.9,687.7 			"/>
			<polyline class="st2" points="1202.7,707.8 1206.4,701.5 1209.8,707.7 			"/>
			<polyline class="st2" points="1232.2,714 1235.8,707.8 1239.3,713.9 			"/>
			<polyline class="st2" points="1255.6,681.6 1259.2,675.3 1262.6,681.5 			"/>
			<polyline class="st2" points="1263.8,712.4 1267.5,706.2 1270.9,712.3 			"/>
			<polyline class="st2" points="1306.6,681.6 1310.2,675.3 1313.6,681.5 			"/>
			<polyline class="st2" points="1280.4,691 1284,684.7 1287.5,690.8 			"/>
			<polyline class="st2" points="1310.1,709.3 1313.7,703 1317.2,709.2 			"/>
			<polyline class="st2" points="1242.8,697.2 1246.4,691 1249.9,697.1 			"/>
			<polyline class="st2" points="1237.4,622.4 1241.1,616.1 1244.5,622.2 			"/>
			<polyline class="st2" points="1254,606 1257.6,599.8 1261.1,605.9 			"/>
			<polyline class="st2" points="1273.7,619.2 1277.3,613 1280.8,619.1 			"/>
			<polyline class="st2" points="1277.2,592.8 1280.8,586.6 1284.3,592.7 			"/>
			<polyline class="st2" points="1263.8,576.9 1267.5,570.6 1270.9,576.8 			"/>
		</g>
		<polyline class="st2" points="1272.9,649.2 1276.5,643 1280,649.1 		"/>
	</g>
</g>
<g id="Tree2">
	<g>
		<path class="st5" d="M747,851.2c0,5.4-4.4,9.8-9.8,9.8h-0.3c-5.4,0-9.8-4.4-9.8-9.8V224.8c0-5.4,4.4-9.8,9.8-9.8h0.3
			c5.4,0,9.8,4.4,9.8,9.8V851.2z"/>
		<path class="st6" d="M737.1,215c5.4,0,9.9,6.7,9.9,15v616.4c0,8.3-4.4,15-9.9,15"/>
		<g>
			<path class="st15" d="M806,229.4c0,10.3-8.3,18.6-18.6,18.6H686.6c-10.3,0-18.6-8.3-18.6-18.6v-13.8c0-10.3,8.3-18.6,18.6-18.6
				h100.8c10.3,0,18.6,8.3,18.6,18.6V229.4z"/>
			<path class="st11" d="M806,223v4.8c0,11.2-8.5,20.2-18.8,20.2H686.8c-10.2,0-18.8-9-18.8-20.2V223"/>
		</g>
		<g>
			<path class="st1" d="M588.6,293.1c0-24.8,18.5-45.1,41.1-45.1h214.6c22.6,0,41.1,20.4,41.1,45.1V293c0,24.8-18.5,45-41.1,45
				H629.7C607.1,338,588.6,317.8,588.6,293.1L588.6,293.1"/>
			<path class="st12" d="M885.4,293.2v-0.1c0,24.8-18.5,44.9-41.1,44.9H629.7c-22.6,0-41.1-20.1-41.1-44.9v0.1"/>
		</g>
		<g>
			<path class="st15" d="M912,461.9c0,8.9-7.2,16.1-16.1,16.1h-88.8c-8.9,0-16.1-7.2-16.1-16.1v-2.8c0-8.9,7.2-16.1,16.1-16.1h88.8
				c8.9,0,16.1,7.2,16.1,16.1V461.9z"/>
			<path class="st11" d="M912,461v3.4c0,7.7-7.5,13.6-16.5,13.6h-87.9c-9,0-16.6-5.9-16.6-13.6V461"/>
		</g>
		<path class="st16" d="M743.2,500.5h99c8.3,0,15.3-7,15.3-16V467c0-2.4-2.1-4.5-4.3-4.5h-2c-2.2,0-3.7,2-3.7,4.5v16.4
			c0,4.8-3.9,9.1-8.3,9.1h-96c-2.2,0-4,1.8-4,4.2v-0.3C739.2,498.8,741,500.5,743.2,500.5z"/>
		<g>
			<g>
				<path class="st15" d="M881,578.2c0,6.5-5.3,11.8-11.8,11.8h-65.4c-6.5,0-11.8-5.3-11.8-11.8v-2.4c0-6.5,5.3-11.8,11.8-11.8h65.4
					c6.5,0,11.8,5.3,11.8,11.8V578.2z"/>
				<path class="st11" d="M881,577v2.8c0,5.6-4.9,10.2-11.6,10.2h-65.1c-6.6,0-12.4-4.6-12.4-10.2V577"/>
			</g>
			<path class="st16" d="M745.1,612.5h83.3c7,0,12.2-6.6,12.2-14.4v-15.1c0-2.1-1.1-3.6-2.9-3.6h-1.7c-1.9,0-3.4,1.5-3.4,3.6v14.1
				c0,4.1-3,7.3-6.7,7.3h-80.7c-1.9,0-3.4,1.8-3.4,3.9v0.2C741.7,610.6,743.2,612.5,745.1,612.5z"/>
		</g>
		<g>
			<path class="st15" d="M700,405.9c0,8.9-7.2,16.1-16.1,16.1h-88.8c-8.9,0-16.1-7.2-16.1-16.1v-2.8c0-8.9,7.2-16.1,16.1-16.1h88.8
				c8.9,0,16.1,7.2,16.1,16.1V405.9z"/>
			<path class="st11" d="M700,404v4c0,7.7-7.5,14-16.5,14h-87.9c-9,0-16.6-6.3-16.6-14v-4"/>
		</g>
		<path class="st5" d="M730.7,443h-83.3c-7,0-12.5-6.7-12.5-14.5v-15.1c0-2.1,1.3-3.5,3.2-3.5h1.7c1.9,0,3.1,1.4,3.1,3.5v14.1
			c0,4.1,3.3,7.4,7,7.4h80.7c1.9,0,3.4,1.7,3.4,3.8v0.2C734.1,441.1,732.6,443,730.7,443z"/>
	</g>
</g>
<g id="Calque_8">
	<path class="st2" d="M1710,849c0,6.6-5.4,12-12,12H234c-6.6,0-12-5.4-12-12v-9c0-6.6,5.4-12,12-12h1464c6.6,0,12,5.4,12,12V849z"/>
</g>
<g id="Calque_9">
	<polygon class="st12" points="314.8,790.2 388.6,884 240.9,884 	"/>
	<polygon class="st1" points="255.3,790.2 329.2,884 181.5,884 	"/>
	<polygon class="st12" points="433.7,790.2 507.5,884 359.8,884 	"/>
	<polygon class="st1" points="374.2,790.2 448.1,884 300.4,884 	"/>
	<polygon class="st12" points="552.6,790.2 626.4,884 478.7,884 	"/>
	<polygon class="st1" points="493.1,790.2 567,884 419.2,884 	"/>
	<polygon class="st12" points="671.4,790.2 745.3,884 597.6,884 	"/>
	<polygon class="st1" points="612,790.2 685.9,884 538.1,884 	"/>
	<polygon class="st12" points="790.3,790.2 864.2,884 716.5,884 	"/>
	<polygon class="st1" points="730.9,790.2 804.7,884 657,884 	"/>
	<polygon class="st12" points="909.2,790.2 983.1,884 835.4,884 	"/>
	<polygon class="st1" points="849.8,790.2 923.6,884 775.9,884 	"/>
	<polygon class="st12" points="1028.1,790.2 1102,884 954.3,884 	"/>
	<polygon class="st1" points="968.7,790.2 1042.5,884 894.8,884 	"/>
	<polygon class="st12" points="1147,790.2 1220.9,884 1073.2,884 	"/>
	<polygon class="st1" points="1087.6,790.2 1161.4,884 1013.7,884 	"/>
	<polygon class="st12" points="1265.9,790.2 1339.8,884 1192.1,884 	"/>
	<polygon class="st1" points="1206.5,790.2 1280.3,884 1132.6,884 	"/>
	<polygon class="st12" points="1384.8,790.2 1458.7,884 1311,884 	"/>
	<polygon class="st1" points="1325.4,790.2 1399.2,884 1251.5,884 	"/>
	<polygon class="st12" points="1503.7,790.2 1577.6,884 1429.9,884 	"/>
	<polygon class="st1" points="1444.3,790.2 1518.1,884 1370.4,884 	"/>
	<polygon class="st12" points="1622.6,790.2 1696.5,884 1548.7,884 	"/>
	<polygon class="st1" points="1563.2,790.2 1637,884 1489.3,884 	"/>
	<polygon class="st1" points="1682,790.2 1755.9,884 1608.2,884 	"/>
</g>
</svg>
