<?xml version="1.0" encoding="utf-8"?>
<!-- Generator: Adobe Illustrator 19.2.1, SVG Export Plug-In . SVG Version: 6.00 Build 0)  -->
<svg version="1.1" xmlns="http://www.w3.org/2000/svg" xmlns:xlink="http://www.w3.org/1999/xlink" x="0px" y="0px"
	 viewBox="0 0 1920 1080" style="enable-background:new 0 0 1920 1080;" xml:space="preserve">
<style type="text/css">
	.st0{fill:#C4F3F7;}
	.st1{fill:#22B573;}
	.st2{fill:#8E7B82;}
	.st3{fill:#736369;}
	.st4{fill:#75DB7B;}
	.st5{fill:#CBF2A4;}
	.st6{fill:#804104;}
	.st7{fill:#A35305;}
	.st8{fill:#7CE882;}
	.st9{fill:#6DCC72;}
	.st10{fill:#6CC971;}
	.st11{fill:#A35305;stroke:#A35305;stroke-width:3;stroke-linecap:round;stroke-linejoin:round;stroke-miterlimit:10;}
	.st12{fill:#994E05;}
	.st13{fill:#7C3A09;}
	.st14{fill:#4FA161;}
	.st15{fill:#76CE78;}
	.st16{fill:#83DD83;}
	.st17{fill:#29ABE2;}
	.st18{fill:#33C47F;}
</style>
<g id="Calque_5">
	<rect class="st0" width="1920" height="1079.3"/>
	<polygon class="st1" points="748.9,923.4 824.3,792.9 899.6,923.4 	"/>
	<g>
		<g>
			<path class="st2" d="M1581.4,724.6L1581.4,724.6c-2.8,0-5.1-2.3-5.1-5.1v-98.9c0-2.8,2.3-5.1,5.1-5.1l0,0c2.8,0,5.1,2.3,5.1,5.1
				v98.9C1586.5,722.3,1584.2,724.6,1581.4,724.6z"/>
			<path class="st3" d="M1581.4,724.6L1581.4,724.6c-2.8,0-5.1-2-5.1-4.5V619.9c0-2.5,2.3-4.5,5.1-4.5l0,0"/>
		</g>
		<g>
			<ellipse class="st4" cx="1581.4" cy="612.4" rx="37" ry="32.4"/>
			<ellipse class="st5" cx="1589.8" cy="610.6" rx="28.5" ry="25"/>
		</g>
	</g>
</g>
<g id="Calque_2">
	<g>
		<path class="st6" d="M259.9,775L259.9,775c-5.4,0-9.8-4.4-9.8-9.8V138.4c0-5.4,4.4-9.8,9.8-9.8h0c5.4,0,9.8,4.4,9.8,9.8v626.8
			C269.7,770.6,265.3,775,259.9,775z"/>
		<path class="st7" d="M259.9,128.6c5.4,0,9.8,6.7,9.8,15V760c0,8.3-4.4,15-9.8,15"/>
		<g>
			<path class="st8" d="M310.1,161.7H209.7c-10.2,0-18.6-8.4-18.6-18.6V129c0-10.2,8.4-18.6,18.6-18.6h100.4
				c10.2,0,18.6,8.4,18.6,18.6v14.2C328.7,153.4,320.3,161.7,310.1,161.7z"/>
			<path class="st9" d="M328.7,136v5.3c0,11.2-8.4,20.4-18.6,20.4H209.7c-10.2,0-18.6-9.2-18.6-20.4V136"/>
		</g>
		<g>
			<path class="st4" d="M111.5,206.7c0-24.8,18.5-45,41.1-45h214.6c22.6,0,41.1,20.3,41.1,45v0c0,24.8-18.5,45-41.1,45H152.6
				C130,251.7,111.5,231.5,111.5,206.7L111.5,206.7"/>
			<path class="st10" d="M408.3,206.7L408.3,206.7c0,24.8-18.5,45-41.1,45H152.6c-22.6,0-41.1-20.3-41.1-45v0"/>
		</g>
		<g>
			<path class="st8" d="M418.6,391.9h-88.3c-8.9,0-16.1-7.2-16.1-16.1v-3.1c0-8.9,7.2-16.1,16.1-16.1h88.3c8.9,0,16.1,7.2,16.1,16.1
				v3.1C434.7,384.7,427.5,391.9,418.6,391.9z"/>
			<path class="st9" d="M434.7,374.3v3.6c0,7.7-7.3,14-16.3,14h-87.9c-9,0-16.3-6.3-16.3-14v-3.6"/>
		</g>
		<path class="st11" d="M266.1,414.4h99c8.3,0,15-7.4,15-16.4v-17.5c0-2.4-1.8-4.4-4-4.4h-2c-2.2,0-4,2-4,4.4v16.4
			c0,4.8-3.6,8.8-8,8.8h-96c-2.2,0-4,2-4,4.4l0,0C262.1,412.5,263.9,414.4,266.1,414.4z"/>
		<g>
			<g>
				<path class="st8" d="M392.6,503.6H327c-6.5,0-11.8-5.3-11.8-11.8v-2.3c0-6.5,5.3-11.8,11.8-11.8h65.6c6.5,0,11.8,5.3,11.8,11.8
					v2.3C404.4,498.3,399.1,503.6,392.6,503.6z"/>
				<path class="st9" d="M404.4,490.6v2.7c0,5.6-5.4,10.3-12.1,10.3h-65.1c-6.6,0-12.1-4.6-12.1-10.3v-2.7"/>
			</g>
			<path class="st11" d="M267.9,525.8h83.3c7,0,12.6-6.3,12.6-14.1v-15.1c0-2.1-1.5-3.8-3.4-3.8h-1.7c-1.9,0-3.4,1.7-3.4,3.8v14.1
				c0,4.1-3,7.5-6.7,7.5h-80.7c-1.9,0-3.4,1.7-3.4,3.8l0,0C264.6,524.1,266.1,525.8,267.9,525.8z"/>
		</g>
		<g>
			<path class="st8" d="M206.6,335.5h-88.3c-8.9,0-16.1-7.2-16.1-16.1v-3.1c0-8.9,7.2-16.1,16.1-16.1h88.3c8.9,0,16.1,7.2,16.1,16.1
				v3.1C222.7,328.2,215.5,335.5,206.6,335.5z"/>
			<path class="st9" d="M222.7,317.9v3.6c0,7.7-7.3,14-16.3,14h-87.9c-9,0-16.3-6.3-16.3-14v-3.6"/>
		</g>
		<path class="st6" d="M253.6,356.2h-83.3c-7,0-12.6-6.3-12.6-14.1V327c0-2.1,1.5-3.8,3.4-3.8h1.7c1.9,0,3.4,1.7,3.4,3.8v14.1
			c0,4.1,3,7.5,6.7,7.5h80.7c1.9,0,3.4,1.7,3.4,3.8l0,0C257,354.5,255.5,356.2,253.6,356.2z"/>
	</g>
	<g>
		<path class="st6" d="M1666.2,766.7L1666.2,766.7c-5.4,0-9.8-4.4-9.8-9.8V130.1c0-5.4,4.4-9.8,9.8-9.8l0,0c5.4,0,9.8,4.4,9.8,9.8
			v626.8C1676,762.3,1671.6,766.7,1666.2,766.7z"/>
		<path class="st7" d="M1666.2,120.2c5.4,0,9.8,6.7,9.8,15v616.4c0,8.3-4.4,15-9.8,15"/>
		<g>
			<path class="st8" d="M1716.4,153.4h-100.4c-10.2,0-18.6-8.4-18.6-18.6v-14.2c0-10.2,8.4-18.6,18.6-18.6h100.4
				c10.2,0,18.6,8.4,18.6,18.6v14.2C1735,145,1726.6,153.4,1716.4,153.4z"/>
			<path class="st9" d="M1735,127.7v5.3c0,11.2-8.4,20.4-18.6,20.4h-100.4c-10.2,0-18.6-9.2-18.6-20.4v-5.3"/>
		</g>
		<g>
			<path class="st4" d="M1517.8,198.4c0-24.8,18.5-45,41.1-45h214.6c22.6,0,41.1,20.3,41.1,45v0c0,24.8-18.5,45-41.1,45h-214.6
				C1536.3,243.4,1517.8,223.2,1517.8,198.4L1517.8,198.4"/>
			<path class="st10" d="M1814.6,198.4L1814.6,198.4c0,24.8-18.5,45-41.1,45h-214.6c-22.6,0-41.1-20.3-41.1-45v0"/>
		</g>
		<g>
			<path class="st8" d="M1824.9,383.6h-88.3c-8.9,0-16.1-7.2-16.1-16.1v-3.1c0-8.9,7.2-16.1,16.1-16.1h88.3
				c8.9,0,16.1,7.2,16.1,16.1v3.1C1841,376.4,1833.7,383.6,1824.9,383.6z"/>
			<path class="st9" d="M1841,366v3.6c0,7.7-7.3,14-16.3,14h-87.9c-9,0-16.3-6.3-16.3-14V366"/>
		</g>
		<path class="st11" d="M1672.4,406.1h99c8.3,0,15-7.4,15-16.4v-17.5c0-2.4-1.8-4.4-4-4.4h-2c-2.2,0-4,2-4,4.4v16.4
			c0,4.8-3.6,8.8-8,8.8h-96c-2.2,0-4,2-4,4.4v0C1668.4,404.2,1670.2,406.1,1672.4,406.1z"/>
		<g>
			<g>
				<path class="st8" d="M1798.8,495.3h-65.6c-6.5,0-11.8-5.3-11.8-11.8v-2.3c0-6.5,5.3-11.8,11.8-11.8h65.6
					c6.5,0,11.8,5.3,11.8,11.8v2.3C1810.6,489.9,1805.3,495.3,1798.8,495.3z"/>
				<path class="st9" d="M1810.6,482.3v2.7c0,5.6-5.4,10.3-12.1,10.3h-65.1c-6.6,0-12.1-4.6-12.1-10.3v-2.7"/>
			</g>
			<path class="st11" d="M1674.2,517.5h83.3c7,0,12.6-6.3,12.6-14.1v-15.1c0-2.1-1.5-3.8-3.4-3.8h-1.7c-1.9,0-3.4,1.7-3.4,3.8v14.1
				c0,4.1-3,7.5-6.7,7.5h-80.7c-1.9,0-3.4,1.7-3.4,3.8l0,0C1670.8,515.8,1672.4,517.5,1674.2,517.5z"/>
		</g>
		<g>
			<path class="st8" d="M1612.9,327.2h-88.3c-8.9,0-16.1-7.2-16.1-16.1V308c0-8.9,7.2-16.1,16.1-16.1h88.3c8.9,0,16.1,7.2,16.1,16.1
				v3.1C1629,319.9,1621.7,327.2,1612.9,327.2z"/>
			<path class="st9" d="M1629,309.5v3.6c0,7.7-7.3,14-16.3,14h-87.9c-9,0-16.3-6.3-16.3-14v-3.6"/>
		</g>
		<path class="st6" d="M1659.9,347.9h-83.3c-7,0-12.6-6.3-12.6-14.1v-15.1c0-2.1,1.5-3.8,3.4-3.8h1.7c1.9,0,3.4,1.7,3.4,3.8v14.1
			c0,4.1,3,7.5,6.7,7.5h80.7c1.9,0,3.4,1.7,3.4,3.8v0C1663.2,346.2,1661.7,347.9,1659.9,347.9z"/>
	</g>
	<g>
		<g>
			<path class="st12" d="M453.4,449.3L453.4,449.3c-5.3,0-9.6,4.3-9.6,9.6v253.7c0,5.3,4.3,9.6,9.6,9.6l0,0c5.3,0,9.6-4.3,9.6-9.6
				V459C463,453.6,458.7,449.3,453.4,449.3z"/>
			<polygon class="st13" points="452,618.2 455.4,624.4 448.3,624.5 			"/>
			<polygon class="st13" points="457,598.6 460.4,604.7 453.4,604.9 			"/>
			<polygon class="st13" points="451.3,582.7 454.7,588.8 447.7,588.9 			"/>
			<polygon class="st13" points="458.4,563.5 461.8,569.6 454.7,569.7 			"/>
			<polygon class="st13" points="450,552.9 453.4,559.1 446.3,559.2 			"/>
			<polygon class="st13" points="458.4,536.3 461.8,542.5 454.7,542.6 			"/>
			<polygon class="st13" points="448.4,520.1 451.9,526.3 444.8,526.4 			"/>
			<polygon class="st13" points="458.9,515.5 462.3,521.6 455.3,521.8 			"/>
			<polygon class="st13" points="452.9,707.3 456.3,713.5 449.3,713.6 			"/>
			<polygon class="st13" points="459,686.7 462.4,692.9 455.4,693 			"/>
			<polygon class="st13" points="448.4,674.3 451.9,680.4 444.8,680.6 			"/>
			<polygon class="st13" points="458,650.1 461.4,656.3 454.3,656.4 			"/>
		</g>
		<g>
			<g>
				<path class="st4" d="M543.2,516.9H360.5c-30.3,0-54.9-24.6-54.9-54.9v0c0-30.3,24.6-54.9,54.9-54.9h182.6
					c30.3,0,54.9,24.6,54.9,54.9v0C598.1,492.3,573.5,516.9,543.2,516.9z"/>
				<path class="st4" d="M511.3,427.6H392.4c-24.6,0-44.6-20-44.6-44.6v0c0-24.6,20-44.6,44.6-44.6h118.9c24.6,0,44.6,20,44.6,44.6
					v0C555.9,407.6,535.9,427.6,511.3,427.6z"/>
				<path class="st4" d="M460.6,355.6h-17.4c-17.3,0-31.3-14-31.3-31.3v0c0-17.3,14-31.3,31.3-31.3h17.4c17.3,0,31.3,14,31.3,31.3v0
					C491.9,341.6,477.9,355.6,460.6,355.6z"/>
			</g>
			<g>
				<path class="st9" d="M453.4,407.1h-92.8c-30.3,0-54.9,24.6-54.9,54.9v0c0,30.3,24.6,54.9,54.9,54.9h92.8V407.1z"/>
				<path class="st9" d="M453.4,338.4h-61c-24.6,0-44.6,20-44.6,44.6v0c0,24.6,20,44.6,44.6,44.6h61V338.4z"/>
				<path class="st9" d="M453.4,292.9h-10.2c-17.3,0-31.3,14-31.3,31.3v0c0,17.3,14,31.3,31.3,31.3h10.2V292.9z"/>
			</g>
			<polygon class="st14" points="371.6,479.6 375,485.8 367.9,485.9 			"/>
			<polygon class="st14" points="406.6,439.6 410,445.7 402.9,445.8 			"/>
			<polygon class="st14" points="381.5,457.5 384.9,463.6 377.9,463.8 			"/>
			<polygon class="st14" points="397.2,489.2 400.6,495.3 393.5,495.5 			"/>
			<polygon class="st14" points="424.8,480.8 428.3,487 421.2,487.1 			"/>
			<polygon class="st14" points="352.2,498.3 355.6,504.5 348.5,504.6 			"/>
			<polygon class="st14" points="336.5,472.5 340,478.6 332.9,478.8 			"/>
			<polygon class="st14" points="347.9,445 351.3,451.1 344.3,451.2 			"/>
			<polygon class="st14" points="376.1,424.5 379.5,430.6 372.5,430.7 			"/>
			<polygon class="st14" points="434,418.2 437.4,424.4 430.3,424.5 			"/>
			<polygon class="st14" points="408.4,401.6 411.8,407.8 404.8,407.9 			"/>
			<polygon class="st14" points="379.6,394.1 383,400.2 376,400.3 			"/>
			<polygon class="st14" points="434.8,385.6 438.2,391.8 431.2,391.9 			"/>
			<polygon class="st14" points="368.3,371.6 371.7,377.7 364.6,377.9 			"/>
			<polygon class="st14" points="403,370.2 406.5,376.3 399.4,376.4 			"/>
			<polygon class="st14" points="434,365.3 437.4,371.5 430.3,371.6 			"/>
			<polygon class="st14" points="393.8,347 397.3,353.2 390.2,353.3 			"/>
			<polygon class="st14" points="442,340.8 445.5,346.9 438.4,347 			"/>
			<polygon class="st14" points="445.6,301.2 449,307.4 441.9,307.5 			"/>
			<polygon class="st14" points="426.9,324.3 430.3,330.4 423.3,330.5 			"/>
		</g>
	</g>
	<g>
		<g>
			<path class="st2" d="M368.2,716.3L368.2,716.3c-3.8,0-6.9-3.1-6.9-6.9V554.9c0-3.8,3.1-6.9,6.9-6.9l0,0c3.8,0,6.9,3.1,6.9,6.9
				v154.4C375.1,713.2,372,716.3,368.2,716.3z"/>
			<path class="st3" d="M368.2,716.3L368.2,716.3c-3.8,0-6.9-3.1-6.9-6.9V554.9c0-3.8,3.1-6.9,6.9-6.9l0,0"/>
		</g>
		<g>
			<circle class="st4" cx="368.2" cy="543.4" r="50"/>
			<circle class="st5" cx="379.6" cy="540.6" r="38.5"/>
		</g>
	</g>
	<g>
		<g>
			<path class="st2" d="M411.8,728.7L411.8,728.7c-2.8,0-5.1-2.3-5.1-5.1v-98.9c0-2.8,2.3-5.1,5.1-5.1l0,0c2.8,0,5.1,2.3,5.1,5.1
				v98.9C417,726.4,414.7,728.7,411.8,728.7z"/>
			<path class="st3" d="M411.8,728.7L411.8,728.7c-2.8,0-5.1-2-5.1-4.5V624c0-2.5,2.3-4.5,5.1-4.5l0,0"/>
		</g>
		<g>
			<ellipse class="st4" cx="411.8" cy="616.5" rx="37" ry="32.4"/>
			<ellipse class="st5" cx="420.3" cy="614.7" rx="28.5" ry="25"/>
		</g>
	</g>
	<g>
		<g>
			<g>
				<g>
					<path class="st6" d="M1501.9,711.3h-11.5c-5.4,0-9.8-4.4-9.8-9.8V460.7c0-5.4,4.4-9.8,9.8-9.8h11.5c5.4,0,9.8,4.4,9.8,9.8
						v240.8C1511.7,706.9,1507.3,711.3,1501.9,711.3z"/>
				</g>
				<g>
					<line class="st6" x1="1496.1" y1="711.3" x2="1496.1" y2="711.3"/>
					<path class="st7" d="M1496.1,450.9c8.6,0,15.6,6.1,15.6,13.6v233.2c0,7.5-7,13.6-15.6,13.6"/>
					<line class="st6" x1="1496.1" y1="450.9" x2="1496.1" y2="450.9"/>
				</g>
			</g>
			<polygon class="st10" points="1496.1,313.3 1631.7,519.1 1360.5,519.1 			"/>
			<polygon class="st15" points="1496.1,287.2 1598.5,448.2 1393.7,448.2 			"/>
			<polygon class="st16" points="1496.1,275.6 1580.6,386.5 1411.6,386.5 			"/>
			<polyline class="st14" points="1423.9,430 1429.7,421.4 1435.1,429.9 			"/>
			<polyline class="st14" points="1451.6,407.7 1457.3,399.1 1462.7,407.6 			"/>
			<polyline class="st14" points="1477.4,434.4 1483.2,425.7 1488.6,434.2 			"/>
			<polyline class="st14" points="1490.5,403.4 1496.3,394.7 1501.7,403.3 			"/>
			<polyline class="st14" points="1516.8,434.4 1522.5,425.7 1528,434.2 			"/>
			<polyline class="st14" points="1540.6,412.1 1546.3,403.4 1551.8,411.9 			"/>
			<polyline class="st14" points="1423.9,471.1 1429.7,462.4 1435.1,470.9 			"/>
			<polyline class="st14" points="1393.7,498.7 1399.4,490 1404.8,498.5 			"/>
			<polyline class="st14" points="1440.4,507.3 1446.1,498.7 1451.6,507.2 			"/>
			<polyline class="st14" points="1477.4,462.4 1483.2,453.8 1488.6,462.3 			"/>
			<polyline class="st14" points="1490.5,505.1 1496.3,496.5 1501.7,505 			"/>
			<polyline class="st14" points="1558.2,462.4 1564,453.8 1569.4,462.3 			"/>
			<polyline class="st14" points="1516.8,475.4 1522.5,466.8 1528,475.3 			"/>
			<polyline class="st14" points="1563.8,500.8 1569.6,492.1 1575,500.6 			"/>
			<polyline class="st14" points="1457.1,484.1 1462.9,475.4 1468.3,483.9 			"/>
			<polyline class="st14" points="1448.7,380.5 1454.4,371.9 1459.9,380.4 			"/>
			<polyline class="st14" points="1474.9,358 1480.6,349.3 1486.1,357.8 			"/>
			<polyline class="st14" points="1506.1,376.2 1511.9,367.5 1517.3,376 			"/>
			<polyline class="st14" points="1511.7,339.7 1517.5,331 1522.9,339.6 			"/>
			<polyline class="st14" points="1490.5,317.7 1496.3,309 1501.7,317.5 			"/>
		</g>
		<polyline class="st14" points="1504.9,417.7 1510.6,409.1 1516.1,417.6 		"/>
	</g>
</g>
<g id="Calque_1">
	<path class="st1" d="M465.3,767.3H229.6c-15.4,0-28-12.6-28-28v-10.6c0-15.4,12.6-28,28-28h235.7c15.4,0,28,12.6,28,28v10.6
		C493.3,754.7,480.7,767.3,465.3,767.3z"/>
	<path class="st1" d="M1453.7,767.3h208.2c13.8,0,25.1-11.3,25.1-25.1v-16.4c0-13.8-11.3-25.1-25.1-25.1h-208.2
		c-13.8,0-25.1,11.3-25.1,25.1v16.4C1428.6,756,1439.9,767.3,1453.7,767.3z"/>
	<path class="st17" d="M1430.4,1027.1l95-155.9c43.2-71-10.8-159.7-97.3-159.7H507.7c-86.5,0-140.5,88.7-97.3,159.7l95,155.9
		c20.1,32.9,57.1,53.2,97.3,53.2h730.4C1373.3,1080.3,1410.3,1060,1430.4,1027.1z"/>
</g>
<g id="Calque_4">
</g>
<g id="Calque_3">
	<polygon class="st18" points="224.3,774.6 299.7,644.1 375,774.6 	"/>
	<polygon class="st18" points="368.4,774.5 443.8,644 519.1,774.5 	"/>
	<polygon class="st1" points="1376.2,778.2 1451.6,647.7 1526.9,778.2 	"/>
	<polygon class="st18" points="1508.8,777.1 1584.1,646.6 1659.5,777.1 	"/>
	<polygon class="st1" points="1568.7,777.1 1644.1,646.6 1719.4,777.1 	"/>
	<polygon class="st1" points="1448,776.6 1523.4,646.1 1598.7,776.6 	"/>
	<polygon class="st1" points="154.9,774.4 230.3,643.9 305.6,774.4 	"/>
	<polygon class="st1" points="293.7,775 369,644.4 444.4,775 	"/>
</g>
<g id="Calque_6">
	<polygon class="st1" points="1437.5,1008.1 1512.9,877.5 1588.2,1008.1 	"/>
	<polygon class="st1" points="1499.6,900 1575,769.5 1650.4,900 	"/>
	<polygon class="st1" points="1353,1078.1 1428.3,947.6 1503.7,1078.1 	"/>
	<polygon class="st1" points="428.4,817 390.2,750.9 314.9,881.4 428.4,881.4 	"/>
	<polygon class="st1" points="439.2,1080 514.5,949.5 589.9,1080 	"/>
	<polygon class="st1" points="353.4,1001.3 428.8,870.8 504.1,1001.3 	"/>
	<g>
		<g>
			<path class="st2" d="M420.3,932.2L420.3,932.2c-2.8,0-5.1-2.3-5.1-5.1v-98.9c0-2.8,2.3-5.1,5.1-5.1l0,0c2.8,0,5.1,2.3,5.1,5.1
				V927C425.4,929.9,423.1,932.2,420.3,932.2z"/>
			<path class="st3" d="M420.3,932.2L420.3,932.2c-2.8,0-5.1-2-5.1-4.5V827.4c0-2.5,2.3-4.5,5.1-4.5l0,0"/>
		</g>
		<g>
			<ellipse class="st4" cx="420.3" cy="819.9" rx="37" ry="32.4"/>
			<ellipse class="st5" cx="428.8" cy="818.2" rx="28.5" ry="25"/>
		</g>
	</g>
	<g>
		<g>
			<path class="st2" d="M1507.7,934.9L1507.7,934.9c-2.8,0-5.1-2.3-5.1-5.1v-98.9c0-2.8,2.3-5.1,5.1-5.1l0,0c2.8,0,5.1,2.3,5.1,5.1
				v98.9C1512.9,932.6,1510.6,934.9,1507.7,934.9z"/>
			<path class="st3" d="M1507.7,934.9L1507.7,934.9c-2.8,0-5.1-2-5.1-4.5V830.2c0-2.5,2.3-4.5,5.1-4.5l0,0"/>
		</g>
		<g>
			<ellipse class="st4" cx="1507.7" cy="822.7" rx="37" ry="32.4"/>
			<ellipse class="st5" cx="1516.2" cy="820.9" rx="28.5" ry="25"/>
		</g>
	</g>
	<g>
		<g>
			<path class="st12" d="M1436.7,760.9L1436.7,760.9c-5.3,0-9.6,4.3-9.6,9.6v253.7c0,5.3,4.3,9.6,9.6,9.6l0,0c5.3,0,9.6-4.3,9.6-9.6
				V770.5C1446.3,765.2,1442,760.9,1436.7,760.9z"/>
			<polygon class="st13" points="1435.2,929.8 1438.7,935.9 1431.6,936 			"/>
			<polygon class="st13" points="1440.3,910.1 1443.7,916.3 1436.7,916.4 			"/>
			<polygon class="st13" points="1434.6,894.2 1438,900.3 1430.9,900.5 			"/>
			<polygon class="st13" points="1441.6,875 1445.1,881.1 1438,881.3 			"/>
			<polygon class="st13" points="1433.2,864.4 1436.7,870.6 1429.6,870.7 			"/>
			<polygon class="st13" points="1441.6,847.9 1445.1,854 1438,854.1 			"/>
			<polygon class="st13" points="1431.7,831.6 1435.1,837.8 1428.1,837.9 			"/>
			<polygon class="st13" points="1442.2,827 1445.6,833.2 1438.6,833.3 			"/>
			<polygon class="st13" points="1436.2,1018.9 1439.6,1025 1432.6,1025.1 			"/>
			<polygon class="st13" points="1442.3,998.2 1445.7,1004.4 1438.7,1004.5 			"/>
			<polygon class="st13" points="1431.7,985.8 1435.1,992 1428.1,992.1 			"/>
			<polygon class="st13" points="1441.2,961.6 1444.7,967.8 1437.6,967.9 			"/>
		</g>
		<g>
			<g>
				<path class="st4" d="M1526.4,828.5h-182.6c-30.3,0-54.9-24.6-54.9-54.9v0c0-30.3,24.6-54.9,54.9-54.9h182.6
					c30.3,0,54.9,24.6,54.9,54.9v0C1581.4,803.9,1556.8,828.5,1526.4,828.5z"/>
				<path class="st4" d="M1494.6,739.1h-118.9c-24.6,0-44.6-20-44.6-44.6v0c0-24.6,20-44.6,44.6-44.6h118.9
					c24.6,0,44.6,20,44.6,44.6v0C1539.2,719.2,1519.2,739.1,1494.6,739.1z"/>
				<path class="st4" d="M1443.8,667.1h-17.4c-17.3,0-31.3-14-31.3-31.3v0c0-17.3,14-31.3,31.3-31.3h17.4c17.3,0,31.3,14,31.3,31.3
					v0C1475.2,653.1,1461.1,667.1,1443.8,667.1z"/>
			</g>
			<g>
				<path class="st9" d="M1436.7,718.6h-92.8c-30.3,0-54.9,24.6-54.9,54.9v0c0,30.3,24.6,54.9,54.9,54.9h92.8V718.6z"/>
				<path class="st9" d="M1436.7,649.9h-61c-24.6,0-44.6,20-44.6,44.6v0c0,24.6,20,44.6,44.6,44.6h61V649.9z"/>
				<path class="st9" d="M1436.7,604.5h-10.2c-17.3,0-31.3,14-31.3,31.3v0c0,17.3,14,31.3,31.3,31.3h10.2V604.5z"/>
			</g>
			<polygon class="st14" points="1354.8,791.2 1358.3,797.3 1351.2,797.4 			"/>
			<polygon class="st14" points="1389.8,751.1 1393.3,757.2 1386.2,757.4 			"/>
			<polygon class="st14" points="1364.7,769 1368.2,775.2 1361.1,775.3 			"/>
			<polygon class="st14" points="1380.4,800.7 1383.9,806.9 1376.8,807 			"/>
			<polygon class="st14" points="1408.1,792.3 1411.5,798.5 1404.5,798.6 			"/>
			<polygon class="st14" points="1335.4,809.9 1338.9,816 1331.8,816.1 			"/>
			<polygon class="st14" points="1319.8,784 1323.2,790.2 1316.2,790.3 			"/>
			<polygon class="st14" points="1331.2,756.5 1334.6,762.7 1327.5,762.8 			"/>
			<polygon class="st14" points="1359.3,736 1362.8,742.2 1355.7,742.3 			"/>
			<polygon class="st14" points="1417.2,729.7 1420.7,735.9 1413.6,736 			"/>
			<polygon class="st14" points="1391.7,713.2 1395.1,719.3 1388,719.4 			"/>
			<polygon class="st14" points="1362.9,705.6 1366.3,711.8 1359.3,711.9 			"/>
			<polygon class="st14" points="1418.1,697.2 1421.5,703.3 1414.4,703.4 			"/>
			<polygon class="st14" points="1351.5,683.1 1355,689.3 1347.9,689.4 			"/>
			<polygon class="st14" points="1386.3,681.7 1389.7,687.8 1382.7,688 			"/>
			<polygon class="st14" points="1417.2,676.9 1420.7,683 1413.6,683.1 			"/>
			<polygon class="st14" points="1377.1,658.6 1380.6,664.7 1373.5,664.8 			"/>
			<polygon class="st14" points="1425.3,652.3 1428.7,658.5 1421.7,658.6 			"/>
			<polygon class="st14" points="1428.8,612.8 1432.3,618.9 1425.2,619 			"/>
			<polygon class="st14" points="1410.2,635.8 1413.6,642 1406.5,642.1 			"/>
		</g>
	</g>
	<g>
		<g>
			<g>
				<g>
					<path class="st6" d="M514.7,1063.8h-11.5c-5.4,0-9.8-4.4-9.8-9.8V813.2c0-5.4,4.4-9.8,9.8-9.8h11.5c5.4,0,9.8,4.4,9.8,9.8V1054
						C524.5,1059.4,520.1,1063.8,514.7,1063.8z"/>
				</g>
				<g>
					<line class="st6" x1="508.9" y1="1063.8" x2="508.9" y2="1063.8"/>
					<path class="st7" d="M508.9,803.4c8.6,0,15.6,6.1,15.6,13.6v233.2c0,7.5-7,13.6-15.6,13.6"/>
					<line class="st6" x1="508.9" y1="803.4" x2="508.9" y2="803.4"/>
				</g>
			</g>
			<polygon class="st10" points="508.9,665.8 644.5,871.6 373.3,871.6 			"/>
			<polygon class="st15" points="508.9,639.7 611.4,800.7 406.5,800.7 			"/>
			<polygon class="st16" points="508.9,628.1 593.4,739 424.4,739 			"/>
			<polyline class="st14" points="436.8,782.5 442.5,773.9 447.9,782.4 			"/>
			<polyline class="st14" points="464.4,760.2 470.1,751.6 475.6,760.1 			"/>
			<polyline class="st14" points="490.2,786.9 496,778.2 501.4,786.7 			"/>
			<polyline class="st14" points="503.3,755.9 509.1,747.2 514.5,755.7 			"/>
			<polyline class="st14" points="529.6,786.9 535.3,778.2 540.8,786.7 			"/>
			<polyline class="st14" points="553.4,764.6 559.2,755.9 564.6,764.4 			"/>
			<polyline class="st14" points="436.8,823.6 442.5,814.9 447.9,823.4 			"/>
			<polyline class="st14" points="406.5,851.2 412.2,842.5 417.7,851 			"/>
			<polyline class="st14" points="453.2,859.8 458.9,851.2 464.4,859.7 			"/>
			<polyline class="st14" points="490.2,814.9 496,806.3 501.4,814.8 			"/>
			<polyline class="st14" points="503.3,857.6 509.1,848.9 514.5,857.5 			"/>
			<polyline class="st14" points="571,814.9 576.8,806.3 582.2,814.8 			"/>
			<polyline class="st14" points="529.6,827.9 535.3,819.3 540.8,827.8 			"/>
			<polyline class="st14" points="576.6,853.3 582.4,844.6 587.8,853.1 			"/>
			<polyline class="st14" points="470,836.6 475.7,827.9 481.2,836.4 			"/>
			<polyline class="st14" points="461.5,733 467.2,724.4 472.7,732.9 			"/>
			<polyline class="st14" points="487.7,710.5 493.5,701.8 498.9,710.3 			"/>
			<polyline class="st14" points="518.9,728.7 524.7,720 530.1,728.5 			"/>
			<polyline class="st14" points="524.5,692.2 530.3,683.5 535.7,692 			"/>
			<polyline class="st14" points="503.3,670.2 509.1,661.5 514.5,670 			"/>
		</g>
		<polyline class="st14" points="517.7,770.2 523.4,761.6 528.9,770.1 		"/>
	</g>
	<g>
		<g>
			<path class="st2" d="M1389.7,1070.6L1389.7,1070.6c-2.8,0-5.1-2.3-5.1-5.1v-98.9c0-2.8,2.3-5.1,5.1-5.1l0,0
				c2.8,0,5.1,2.3,5.1,5.1v98.9C1394.9,1068.3,1392.6,1070.6,1389.7,1070.6z"/>
			<path class="st3" d="M1389.7,1070.6L1389.7,1070.6c-2.8,0-5.1-2-5.1-4.5V965.8c0-2.5,2.3-4.5,5.1-4.5l0,0"/>
		</g>
		<g>
			<ellipse class="st4" cx="1389.7" cy="958.3" rx="37" ry="32.4"/>
			<ellipse class="st5" cx="1398.2" cy="956.6" rx="28.5" ry="25"/>
		</g>
	</g>
	<g>
		<g>
			<path class="st2" d="M553.4,1070.6L553.4,1070.6c-2.8,0-5.1-2.3-5.1-5.1v-98.9c0-2.8,2.3-5.1,5.1-5.1l0,0c2.8,0,5.1,2.3,5.1,5.1
				v98.9C558.6,1068.3,556.3,1070.6,553.4,1070.6z"/>
			<path class="st3" d="M553.4,1070.6L553.4,1070.6c-2.8,0-5.1-2-5.1-4.5V965.8c0-2.5,2.3-4.5,5.1-4.5l0,0"/>
		</g>
		<g>
			<ellipse class="st4" cx="553.4" cy="958.3" rx="37" ry="32.4"/>
			<ellipse class="st5" cx="561.9" cy="956.6" rx="28.5" ry="25"/>
		</g>
	</g>
</g>
</svg>
