<?xml version="1.0" encoding="utf-8"?>
<!-- Generator: Adobe Illustrator 19.2.1, SVG Export Plug-In . SVG Version: 6.00 Build 0)  -->
<svg version="1.1" xmlns="http://www.w3.org/2000/svg" xmlns:xlink="http://www.w3.org/1999/xlink" x="0px" y="0px"
	 viewBox="0 0 1920 1080" style="enable-background:new 0 0 1920 1080;" xml:space="preserve">
<style type="text/css">
	.st0{fill:#969481;}
	.st1{fill:#FFFFFF;}
	.st2{fill:#B2B1AA;}
	.st3{fill:#C0EAFB;}
	.st4{fill:#ACE5FA;}
	.st5{fill:#86D5FF;}
	.st6{fill:#D0EFFC;}
	.st7{fill:#804104;}
	.st8{fill:#A35305;}
	.st9{fill:#8E7B82;}
	.st10{fill:#736369;}
	.st11{fill:#994E05;}
	.st12{fill:#7C3A09;}
	.st13{fill:#64C8F4;}
	.st14{fill:#4FA161;}
	.st15{fill:#A35305;stroke:#A35305;stroke-width:3;stroke-linecap:round;stroke-linejoin:round;stroke-miterlimit:10;}
</style>
<g id="Calque_2">
	<rect class="st0" width="1920" height="1080"/>
	<circle class="st1" cx="420.7" cy="304" r="3.3"/>
	<circle class="st1" cx="385.1" cy="270.3" r="3.3"/>
	<circle class="st1" cx="392.7" cy="332" r="3.3"/>
	<circle class="st1" cx="333.6" cy="310" r="3.3"/>
	<circle class="st1" cx="351.2" cy="289.3" r="3.3"/>
	<circle class="st1" cx="323.5" cy="257.8" r="3.3"/>
	<circle class="st1" cx="368.1" cy="231.7" r="3.3"/>
	<circle class="st1" cx="324.5" cy="235" r="3.3"/>
	<circle class="st1" cx="287.7" cy="284.6" r="3.3"/>
	<circle class="st1" cx="278.4" cy="243.1" r="3.3"/>
	<circle class="st1" cx="1056.2" cy="232.9" r="3.3"/>
	<circle class="st1" cx="1090.7" cy="202" r="3.3"/>
	<circle class="st1" cx="1115.3" cy="172.4" r="3.3"/>
	<circle class="st1" cx="1134.4" cy="241.4" r="3.3"/>
	<circle class="st1" cx="1042.3" cy="175.7" r="3.3"/>
	<circle class="st1" cx="995" cy="213.8" r="3.3"/>
	<circle class="st1" cx="979" cy="179.8" r="3.3"/>
	<circle class="st1" cx="948.9" cy="255.3" r="3.3"/>
	<circle class="st1" cx="935.7" cy="193" r="3.3"/>
	<circle class="st1" cx="1030.7" cy="271" r="3.3"/>
	<circle class="st1" cx="1104.7" cy="295" r="3.3"/>
	<circle class="st1" cx="989.7" cy="297.2" r="3.3"/>
	<circle class="st1" cx="1518.6" cy="245.4" r="3.3"/>
	<circle class="st1" cx="1584.5" cy="234.2" r="3.3"/>
	<circle class="st1" cx="1480.7" cy="319" r="3.3"/>
	<circle class="st1" cx="1465.6" cy="264.8" r="3.3"/>
	<circle class="st1" cx="1542.2" cy="289.8" r="3.3"/>
	<circle class="st1" cx="1546.7" cy="359" r="3.3"/>
	<circle class="st1" cx="1587.8" cy="303.2" r="3.3"/>
	<circle class="st1" cx="1426.7" cy="293" r="3.3"/>
	<circle class="st1" cx="1410.7" cy="333" r="3.3"/>
	<circle class="st1" cx="1348.7" cy="321" r="3.3"/>
	<circle class="st1" cx="1282.7" cy="289" r="3.3"/>
	<circle class="st1" cx="1345.7" cy="263" r="3.3"/>
	<circle class="st1" cx="1409.7" cy="255" r="3.3"/>
	<circle class="st1" cx="1250.7" cy="368" r="3.3"/>
	<circle class="st1" cx="1239.7" cy="315" r="3.3"/>
	<circle class="st1" cx="1417.7" cy="375" r="3.3"/>
	<circle class="st1" cx="1476.7" cy="413" r="3.3"/>
	<polygon class="st2" points="952.4,793.9 1329.1,141.3 1705.9,793.9 	"/>
	<polygon class="st2" points="148.7,796.5 591.8,29.6 1034.4,796.8 	"/>
	<polygon class="st1" points="1399.5,263.1 1329.1,141.3 1258.8,263.1 	"/>
</g>
<g id="Calque_6">
	<polygon class="st1" points="678.3,180.3 591.7,30.2 504.9,180.3 	"/>
</g>
<g id="Calque_3">
	<g>
		<path class="st3" d="M990.8,405.6L990.8,405.6c-1.8-3-0.7-6.9,2.3-8.7l62.4-36c3-1.8,6.9-0.7,8.7,2.3l0,0c1.8,3,0.7,6.9-2.3,8.7
			l-62.4,36C996.5,409.7,992.6,408.7,990.8,405.6z"/>
		<path class="st4" d="M926,601.9L926,601.9c-1.8-3-0.7-6.9,2.3-8.7l121.6-70.2c3-1.8,6.9-0.7,8.7,2.3l0,0c1.8,3,0.7,6.9-2.3,8.7
			l-121.6,70.2C931.7,606,927.8,604.9,926,601.9z"/>
		<path class="st3" d="M955.3,505L955.3,505c-1.8-3-0.7-6.9,2.3-8.7l92.3-53.3c3-1.8,6.9-0.7,8.7,2.3v0c1.8,3,0.7,6.9-2.3,8.7
			L964,507.3C961,509.1,957.1,508.1,955.3,505z"/>
		<path class="st5" d="M906.2,654.8L906.2,654.8c-1.8-3-0.7-6.9,2.3-8.7l141.4-81.7c3-1.8,6.9-0.7,8.7,2.3l0,0
			c1.8,3,0.7,6.9-2.3,8.7l-141.4,81.7C911.8,658.9,907.9,657.8,906.2,654.8z"/>
		<path class="st6" d="M977.5,492.2L977.5,492.2c-1.8-3-0.7-6.9,2.3-8.7l70.1-40.5c3-1.8,6.9-0.7,8.7,2.3v0c1.8,3,0.7,6.9-2.3,8.7
			l-70.1,40.5C983.2,496.3,979.3,495.2,977.5,492.2z"/>
		<path class="st6" d="M1012.3,393.2L1012.3,393.2c-1.8-3-0.7-6.9,2.3-8.7l40.9-23.6c3-1.8,6.9-0.7,8.7,2.3l0,0
			c1.8,3,0.7,6.9-2.3,8.7l-40.9,23.6C1018,397.3,1014.1,396.3,1012.3,393.2z"/>
		<path class="st3" d="M958.8,582.9L958.8,582.9c-1.8-3-0.7-6.9,2.3-8.7l88.8-51.3c3-1.8,6.9-0.7,8.7,2.3l0,0c1.8,3,0.7,6.9-2.3,8.7
			l-88.8,51.3C964.4,587,960.5,586,958.8,582.9z"/>
		<path class="st6" d="M998,560.3L998,560.3c-1.8-3-0.7-6.9,2.3-8.7l49.6-28.6c3-1.8,6.9-0.7,8.7,2.3l0,0c1.8,3,0.7,6.9-2.3,8.7
			l-49.6,28.6C1003.7,564.4,999.8,563.3,998,560.3z"/>
		<path class="st4" d="M933.1,639.3L933.1,639.3c-1.8-3-0.7-6.9,2.3-8.7l114.5-66.1c3-1.8,6.9-0.7,8.7,2.3l0,0
			c1.8,3,0.7,6.9-2.3,8.7l-114.5,66.1C938.7,643.4,934.8,642.3,933.1,639.3z"/>
		<path class="st3" d="M964.1,621.4L964.1,621.4c-1.8-3-0.7-6.9,2.3-8.7l83.5-48.2c3-1.8,6.9-0.7,8.7,2.3l0,0c1.8,3,0.7,6.9-2.3,8.7
			l-83.5,48.2C969.7,625.4,965.8,624.4,964.1,621.4z"/>
		<path class="st6" d="M1001.3,599.9L1001.3,599.9c-1.8-3-0.7-6.9,2.3-8.7l46.3-26.7c3-1.8,6.9-0.7,8.7,2.3l0,0
			c1.8,3,0.7,6.9-2.3,8.7l-46.3,26.7C1006.9,604,1003,602.9,1001.3,599.9z"/>
		<path class="st3" d="M966.4,458.7L966.4,458.7c-1.8-3-0.7-6.9,2.3-8.7l81.2-46.9c3-1.8,6.9-0.7,8.7,2.3l0,0c1.8,3,0.7,6.9-2.3,8.7
			L975.1,461C972.1,462.8,968.2,461.7,966.4,458.7z"/>
		<path class="st6" d="M986.2,447.2L986.2,447.2c-1.8-3-0.7-6.9,2.3-8.7l61.4-35.4c3-1.8,6.9-0.7,8.7,2.3l0,0c1.8,3,0.7,6.9-2.3,8.7
			l-61.4,35.4C991.9,451.3,988,450.3,986.2,447.2z"/>
		<path class="st3" d="M945.2,550.1L945.2,550.1c-1.8-3-0.7-6.9,2.3-8.7l102.4-59.1c3-1.8,6.9-0.7,8.7,2.3v0c1.8,3,0.7,6.9-2.3,8.7
			l-102.4,59.1C950.8,554.2,946.9,553.2,945.2,550.1z"/>
		<path class="st6" d="M969.6,536L969.6,536c-1.8-3-0.7-6.9,2.3-8.7l78-45.1c3-1.8,6.9-0.7,8.7,2.3v0c1.8,3,0.7,6.9-2.3,8.7
			l-78,45.1C975.2,540.1,971.3,539.1,969.6,536z"/>
		<path class="st3" d="M1130.9,406.9L1130.9,406.9c1.8-3,0.7-6.9-2.3-8.7l-62.4-36c-3-1.8-6.9-0.7-8.7,2.3l0,0
			c-1.8,3-0.7,6.9,2.3,8.7l62.4,36C1125.2,411,1129.1,410,1130.9,406.9z"/>
		<path class="st4" d="M1195.7,603.2L1195.7,603.2c1.8-3,0.7-6.9-2.3-8.7l-121.6-70.2c-3-1.8-6.9-0.7-8.7,2.3l0,0
			c-1.8,3-0.7,6.9,2.3,8.7l121.6,70.2C1190.1,607.3,1194,606.2,1195.7,603.2z"/>
		<path class="st3" d="M1166.4,506.3L1166.4,506.3c1.8-3,0.7-6.9-2.3-8.7l-92.3-53.3c-3-1.8-6.9-0.7-8.7,2.3l0,0
			c-1.8,3-0.7,6.9,2.3,8.7l92.3,53.3C1160.8,510.4,1164.7,509.4,1166.4,506.3z"/>
		<path class="st5" d="M1215.6,656.1L1215.6,656.1c1.8-3,0.7-6.9-2.3-8.7l-141.4-81.7c-3-1.8-6.9-0.7-8.7,2.3v0
			c-1.8,3-0.7,6.9,2.3,8.7l141.4,81.7C1209.9,660.2,1213.8,659.1,1215.6,656.1z"/>
		<path class="st6" d="M1144.2,493.5L1144.2,493.5c1.8-3,0.7-6.9-2.3-8.7l-70.1-40.5c-3-1.8-6.9-0.7-8.7,2.3l0,0
			c-1.8,3-0.7,6.9,2.3,8.7l70.1,40.5C1138.6,497.6,1142.5,496.5,1144.2,493.5z"/>
		<path class="st6" d="M1109.4,394.5L1109.4,394.5c1.8-3,0.7-6.9-2.3-8.7l-40.9-23.6c-3-1.8-6.9-0.7-8.7,2.3l0,0
			c-1.8,3-0.7,6.9,2.3,8.7l40.9,23.6C1103.7,398.6,1107.6,397.6,1109.4,394.5z"/>
		<path class="st3" d="M1163,584.2L1163,584.2c1.8-3,0.7-6.9-2.3-8.7l-88.8-51.3c-3-1.8-6.9-0.7-8.7,2.3l0,0c-1.8,3-0.7,6.9,2.3,8.7
			l88.8,51.3C1157.3,588.3,1161.2,587.3,1163,584.2z"/>
		<path class="st6" d="M1123.7,561.6L1123.7,561.6c1.8-3,0.7-6.9-2.3-8.7l-49.6-28.6c-3-1.8-6.9-0.7-8.7,2.3l0,0
			c-1.8,3-0.7,6.9,2.3,8.7l49.6,28.6C1118,565.7,1121.9,564.6,1123.7,561.6z"/>
		<path class="st4" d="M1188.7,640.6L1188.7,640.6c1.8-3,0.7-6.9-2.3-8.7l-114.5-66.1c-3-1.8-6.9-0.7-8.7,2.3v0
			c-1.8,3-0.7,6.9,2.3,8.7l114.5,66.1C1183,644.7,1186.9,643.6,1188.7,640.6z"/>
		<path class="st3" d="M1157.6,622.6L1157.6,622.6c1.8-3,0.7-6.9-2.3-8.7l-83.5-48.2c-3-1.8-6.9-0.7-8.7,2.3v0
			c-1.8,3-0.7,6.9,2.3,8.7l83.5,48.2C1152,626.7,1155.9,625.7,1157.6,622.6z"/>
		<path class="st6" d="M1120.5,601.2L1120.5,601.2c1.8-3,0.7-6.9-2.3-8.7l-46.3-26.7c-3-1.8-6.9-0.7-8.7,2.3v0
			c-1.8,3-0.7,6.9,2.3,8.7l46.3,26.7C1114.8,605.3,1118.7,604.2,1120.5,601.2z"/>
		<path class="st3" d="M1155.3,460L1155.3,460c1.8-3,0.7-6.9-2.3-8.7l-81.2-46.9c-3-1.8-6.9-0.7-8.7,2.3v0c-1.8,3-0.7,6.9,2.3,8.7
			l81.2,46.9C1149.7,464.1,1153.6,463,1155.3,460z"/>
		<path class="st6" d="M1135.5,448.5L1135.5,448.5c1.8-3,0.7-6.9-2.3-8.7l-61.4-35.4c-3-1.8-6.9-0.7-8.7,2.3v0
			c-1.8,3-0.7,6.9,2.3,8.7l61.4,35.4C1129.8,452.6,1133.7,451.6,1135.5,448.5z"/>
		<path class="st3" d="M1176.6,551.4L1176.6,551.4c1.8-3,0.7-6.9-2.3-8.7l-102.4-59.1c-3-1.8-6.9-0.7-8.7,2.3l0,0
			c-1.8,3-0.7,6.9,2.3,8.7l102.4,59.1C1170.9,555.5,1174.8,554.5,1176.6,551.4z"/>
		<path class="st6" d="M1152.2,537.3L1152.2,537.3c1.8-3,0.7-6.9-2.3-8.7l-78-45.1c-3-1.8-6.9-0.7-8.7,2.3l0,0
			c-1.8,3-0.7,6.9,2.3,8.7l78,45.1C1146.5,541.4,1150.4,540.4,1152.2,537.3z"/>
		<g>
			<path class="st7" d="M1059.5,783.2L1059.5,783.2c-5.4,0-9.8-4.4-9.8-9.8V369.7c0-5.4,4.4-9.8,9.8-9.8l0,0c5.4,0,9.8,4.4,9.8,9.8
				v403.7C1069.3,778.8,1064.9,783.2,1059.5,783.2z"/>
			<path class="st8" d="M1059.5,359.8c5.4,0,9.8,4.4,9.8,9.8v403.7c0,5.4-4.4,9.8-9.8,9.8"/>
		</g>
		<g>
			<path class="st9" d="M985.4,783.2L985.4,783.2c-2.8,0-5.1-2.3-5.1-5.1v-98.9c0-2.8,2.3-5.1,5.1-5.1l0,0c2.8,0,5.1,2.3,5.1,5.1
				v98.9C990.6,780.9,988.3,783.2,985.4,783.2z"/>
			<path class="st10" d="M985.4,783.2L985.4,783.2c-2.8,0-5.1-2-5.1-4.5V678.5c0-2.5,2.3-4.5,5.1-4.5l0,0"/>
		</g>
		<g>
			<ellipse class="st4" cx="985.4" cy="671" rx="37" ry="32.4"/>
			<ellipse class="st3" cx="993.9" cy="669.2" rx="28.5" ry="25"/>
		</g>
		<path class="st9" d="M1028.3,783.2L1028.3,783.2c-1.8,0-3.3-1.5-3.3-3.3v-71.2c0-1.8,1.5-3.3,3.3-3.3l0,0c1.8,0,3.3,1.5,3.3,3.3
			v71.2C1031.6,781.8,1030.2,783.2,1028.3,783.2z"/>
		<path class="st10" d="M1028.3,783.2L1028.3,783.2c-1.8,0-3.3-1.4-3.3-3.2v-71.3c0-1.8,1.5-3.2,3.3-3.2l0,0"/>
		<ellipse class="st4" cx="1028.3" cy="703.4" rx="23.6" ry="23.1"/>
		<ellipse class="st3" cx="1033.8" cy="702.1" rx="18.2" ry="17.8"/>
	</g>
	<g>
		<path class="st9" d="M805.2,779.8L805.2,779.8c-3.8,0-6.9-3.1-6.9-6.9V618.5c0-3.8,3.1-6.9,6.9-6.9l0,0c3.8,0,6.9,3.1,6.9,6.9
			v154.4C812.1,776.7,809,779.8,805.2,779.8z"/>
		<path class="st10" d="M805.2,779.8L805.2,779.8c-3.8,0-6.9-3.1-6.9-6.9V618.5c0-3.8,3.1-6.9,6.9-6.9l0,0"/>
	</g>
	<circle class="st4" cx="805.2" cy="607" r="50"/>
	<circle class="st3" cx="816.6" cy="604.2" r="38.5"/>
	<g>
		<path class="st9" d="M605.3,779.8L605.3,779.8c-3.8,0-6.9-3.1-6.9-6.9V618.5c0-3.8,3.1-6.9,6.9-6.9l0,0c3.8,0,6.9,3.1,6.9,6.9
			v154.4C612.3,776.7,609.2,779.8,605.3,779.8z"/>
		<path class="st10" d="M605.3,779.8L605.3,779.8c-3.8,0-6.9-3.1-6.9-6.9V618.5c0-3.8,3.1-6.9,6.9-6.9l0,0"/>
	</g>
	<circle class="st4" cx="605.3" cy="607" r="50"/>
	<circle class="st3" cx="616.8" cy="604.2" r="38.5"/>
	<g>
		<path class="st9" d="M1122.7,779.8L1122.7,779.8c-2.8,0-5.1-2.3-5.1-5.1v-98.9c0-2.8,2.3-5.1,5.1-5.1l0,0c2.8,0,5.1,2.3,5.1,5.1
			v98.9C1127.8,777.5,1125.5,779.8,1122.7,779.8z"/>
		<path class="st10" d="M1122.7,779.8L1122.7,779.8c-2.8,0-5.1-2-5.1-4.5V675.1c0-2.5,2.3-4.5,5.1-4.5l0,0"/>
	</g>
	<ellipse class="st4" cx="1122.7" cy="667.6" rx="37" ry="32.4"/>
	<ellipse class="st3" cx="1131.1" cy="665.8" rx="28.5" ry="25"/>
	<g>
		<path class="st9" d="M1165.6,779.8L1165.6,779.8c-1.8,0-3.3-1.5-3.3-3.3v-71.2c0-1.8,1.5-3.3,3.3-3.3l0,0c1.8,0,3.3,1.5,3.3,3.3
			v71.2C1168.8,778.4,1167.4,779.8,1165.6,779.8z"/>
		<path class="st10" d="M1165.6,779.8L1165.6,779.8c-1.8,0-3.3-1.4-3.3-3.2v-71.3c0-1.8,1.5-3.2,3.3-3.2l0,0"/>
	</g>
	<ellipse class="st4" cx="1165.6" cy="700" rx="23.6" ry="23.1"/>
	<ellipse class="st3" cx="1171" cy="698.7" rx="18.2" ry="17.8"/>
	<g>
		<path class="st9" d="M1463.6,779.8L1463.6,779.8c-1.8,0-3.3-1.5-3.3-3.3v-71.2c0-1.8,1.5-3.3,3.3-3.3l0,0c1.8,0,3.3,1.5,3.3,3.3
			v71.2C1466.9,778.4,1465.5,779.8,1463.6,779.8z"/>
		<path class="st10" d="M1463.6,779.8L1463.6,779.8c-1.8,0-3.3-1.4-3.3-3.2v-71.3c0-1.8,1.5-3.2,3.3-3.2l0,0"/>
	</g>
	<ellipse class="st4" cx="1463.6" cy="700" rx="23.6" ry="23.1"/>
	<ellipse class="st3" cx="1469.1" cy="698.7" rx="18.2" ry="17.8"/>
	<g>
		<path class="st11" d="M947.9,506.9L947.9,506.9c-5.3,0-9.6,4.3-9.6,9.6v253.7c0,5.3,4.3,9.6,9.6,9.6l0,0c5.3,0,9.6-4.3,9.6-9.6
			V516.5C957.6,511.2,953.3,506.9,947.9,506.9z"/>
		<polygon class="st12" points="946.5,675.8 949.9,682 942.9,682.1 		"/>
		<polygon class="st12" points="951.6,656.2 955,662.3 947.9,662.4 		"/>
		<polygon class="st12" points="945.9,640.2 949.3,646.4 942.2,646.5 		"/>
		<polygon class="st12" points="952.9,621 956.3,627.2 949.3,627.3 		"/>
		<polygon class="st12" points="944.5,610.5 947.9,616.6 940.9,616.8 		"/>
		<polygon class="st12" points="952.9,593.9 956.3,600.1 949.3,600.2 		"/>
		<polygon class="st12" points="943,577.7 946.4,583.8 939.4,584 		"/>
		<polygon class="st12" points="953.5,573.1 956.9,579.2 949.8,579.3 		"/>
		<polygon class="st12" points="947.5,764.9 950.9,771.1 943.8,771.2 		"/>
		<polygon class="st12" points="953.6,744.3 957,750.4 949.9,750.6 		"/>
		<polygon class="st12" points="943,731.9 946.4,738 939.4,738.1 		"/>
		<polygon class="st12" points="952.5,707.7 956,713.8 948.9,714 		"/>
	</g>
	<g>
		<path class="st4" d="M1037.7,574.5H855.1c-30.3,0-54.9-24.6-54.9-54.9v0c0-30.3,24.6-54.9,54.9-54.9h182.6
			c30.3,0,54.9,24.6,54.9,54.9v0C1092.6,549.9,1068.1,574.5,1037.7,574.5z"/>
		<path class="st4" d="M1005.9,485.2H887c-24.6,0-44.6-20-44.6-44.6v0c0-24.6,20-44.6,44.6-44.6h118.9c24.6,0,44.6,20,44.6,44.6v0
			C1050.5,465.2,1030.5,485.2,1005.9,485.2z"/>
		<path class="st4" d="M955.1,413.2h-17.4c-17.3,0-31.3-14-31.3-31.3v0c0-17.3,14-31.3,31.3-31.3h17.4c17.3,0,31.3,14,31.3,31.3v0
			C986.4,399.2,972.4,413.2,955.1,413.2z"/>
	</g>
	<g>
		<path class="st5" d="M947.9,464.7h-92.8c-30.3,0-54.9,24.6-54.9,54.9v0c0,30.3,24.6,54.9,54.9,54.9h92.8V464.7z"/>
		<path class="st5" d="M947.9,396h-61c-24.6,0-44.6,20-44.6,44.6v0c0,24.6,20,44.6,44.6,44.6h61V396z"/>
		<path class="st5" d="M947.9,350.5h-10.2c-17.3,0-31.3,14-31.3,31.3v0c0,17.3,14,31.3,31.3,31.3h10.2V350.5z"/>
	</g>
	<polygon class="st13" points="866.1,537.2 869.6,543.4 862.5,543.5 	"/>
	<polygon class="st13" points="901.1,497.1 904.6,503.3 897.5,503.4 	"/>
	<polygon class="st13" points="876,515.1 879.5,521.2 872.4,521.3 	"/>
	<polygon class="st13" points="891.7,546.8 895.1,552.9 888.1,553 	"/>
	<polygon class="st13" points="919.4,538.4 922.8,544.5 915.8,544.7 	"/>
	<polygon class="st13" points="846.7,555.9 850.2,562.1 843.1,562.2 	"/>
	<polygon class="st13" points="831.1,530.1 834.5,536.2 827.5,536.3 	"/>
	<polygon class="st13" points="842.4,502.6 845.9,508.7 838.8,508.8 	"/>
	<polygon class="st13" points="870.6,482.1 874.1,488.2 867,488.3 	"/>
	<polygon class="st13" points="928.5,475.8 931.9,482 924.9,482.1 	"/>
	<polygon class="st13" points="903,459.2 906.4,465.4 899.3,465.5 	"/>
	<polygon class="st13" points="874.2,451.7 877.6,457.8 870.5,457.9 	"/>
	<polygon class="st13" points="929.4,443.2 932.8,449.4 925.7,449.5 	"/>
	<polygon class="st13" points="862.8,429.2 866.2,435.3 859.2,435.4 	"/>
	<polygon class="st13" points="897.6,427.7 901,433.9 894,434 	"/>
	<polygon class="st13" points="928.5,422.9 931.9,429.1 924.9,429.2 	"/>
	<polygon class="st13" points="888.4,404.6 891.8,410.8 884.8,410.9 	"/>
	<polygon class="st13" points="936.6,398.3 940,404.5 933,404.6 	"/>
	<polygon class="st13" points="940.1,358.8 943.6,365 936.5,365.1 	"/>
	<polygon class="st13" points="921.5,381.9 924.9,388 917.8,388.1 	"/>
	<g>
		<path class="st11" d="M1419.1,646.4L1419.1,646.4c-3.5,0-6.4,2.9-6.4,6.4v120.6c0,3.5,2.9,6.4,6.4,6.4l0,0c3.5,0,6.4-2.9,6.4-6.4
			V652.8C1425.5,649.3,1422.6,646.4,1419.1,646.4z"/>
		<polygon class="st12" points="1418.1,729 1420.4,732 1415.7,732 		"/>
		<polygon class="st12" points="1421.5,719.4 1423.8,722.4 1419.1,722.4 		"/>
		<polygon class="st12" points="1417.7,711.6 1420,714.6 1415.3,714.7 		"/>
		<polygon class="st12" points="1422.4,702.2 1424.7,705.2 1420,705.3 		"/>
		<polygon class="st12" points="1416.8,697 1419.1,700.1 1414.4,700.1 		"/>
		<polygon class="st12" points="1422.4,689 1424.7,692 1420,692 		"/>
		<polygon class="st12" points="1415.8,681 1418.1,684 1413.4,684.1 		"/>
		<polygon class="st12" points="1422.8,678.8 1425.1,681.8 1420.4,681.8 		"/>
		<polygon class="st12" points="1418.8,772.5 1421.1,775.6 1416.4,775.6 		"/>
		<polygon class="st12" points="1422.8,762.5 1425.1,765.5 1420.4,765.5 		"/>
		<polygon class="st12" points="1415.8,756.4 1418.1,759.4 1413.4,759.4 		"/>
		<polygon class="st12" points="1422.1,744.6 1424.4,747.6 1419.7,747.6 		"/>
	</g>
	<g>
		<path class="st4" d="M1488.5,679.5h-140.8c-14.8,0-26.8-12-26.8-26.8v0c0-14.8,12-26.8,26.8-26.8h140.8c14.8,0,26.8,12,26.8,26.8
			v0C1515.3,667.4,1503.3,679.5,1488.5,679.5z"/>
		<path class="st4" d="M1465.5,635.8h-94.8c-12,0-21.8-9.8-21.8-21.8v0c0-12,9.8-21.8,21.8-21.8h94.8c12,0,21.8,9.8,21.8,21.8v0
			C1487.3,626,1477.5,635.8,1465.5,635.8z"/>
		<path class="st4" d="M1429.4,600.6h-22.6c-8.5,0-15.3-6.9-15.3-15.3l0,0c0-8.5,6.9-15.3,15.3-15.3h22.6c8.5,0,15.3,6.9,15.3,15.3
			l0,0C1444.7,593.7,1437.8,600.6,1429.4,600.6z"/>
	</g>
	<g>
		<path class="st5" d="M1419.1,625.8h-61.7c-20.2,0-36.5,12-36.5,26.8v0c0,14.8,16.3,26.8,36.5,26.8h61.7V625.8z"/>
		<path class="st5" d="M1419.1,592.2h-40.5c-16.4,0-29.7,9.8-29.7,21.8l0,0c0,12,13.3,21.8,29.7,21.8h40.5V592.2z"/>
		<path class="st5" d="M1419.1,570h-6.8c-11.5,0-20.8,6.9-20.8,15.3v0c0,8.5,9.3,15.3,20.8,15.3h6.8V570z"/>
	</g>
	<polygon class="st13" points="1364.7,661.2 1367,664.2 1362.3,664.3 	"/>
	<polygon class="st13" points="1388,641.6 1390.2,644.6 1385.6,644.7 	"/>
	<polygon class="st13" points="1371.3,650.4 1373.6,653.4 1368.9,653.5 	"/>
	<polygon class="st13" points="1381.7,665.9 1384,668.9 1379.3,669 	"/>
	<polygon class="st13" points="1400.1,661.8 1402.4,664.8 1397.7,664.9 	"/>
	<polygon class="st13" points="1351.8,670.4 1354.1,673.4 1349.4,673.4 	"/>
	<polygon class="st13" points="1341.4,657.7 1343.7,660.7 1339,660.8 	"/>
	<polygon class="st13" points="1348.9,644.3 1351.2,647.3 1346.5,647.3 	"/>
	<polygon class="st13" points="1367.7,634.3 1370,637.3 1365.3,637.3 	"/>
	<polygon class="st13" points="1406.2,631.2 1408.5,634.2 1403.8,634.3 	"/>
	<polygon class="st13" points="1389.2,623.1 1391.5,626.1 1386.8,626.2 	"/>
	<polygon class="st13" points="1370,619.4 1372.3,622.4 1367.6,622.5 	"/>
	<polygon class="st13" points="1406.7,615.3 1409,618.3 1404.3,618.3 	"/>
	<polygon class="st13" points="1362.5,608.4 1364.8,611.4 1360.1,611.5 	"/>
	<polygon class="st13" points="1385.6,607.7 1387.9,610.7 1383.2,610.8 	"/>
	<polygon class="st13" points="1406.2,605.3 1408.5,608.4 1403.8,608.4 	"/>
	<polygon class="st13" points="1379.5,596.4 1381.8,599.4 1377.1,599.5 	"/>
	<polygon class="st13" points="1411.6,593.3 1413.8,596.3 1409.1,596.4 	"/>
	<polygon class="st14" points="1413.9,574 1416.2,577 1411.5,577.1 	"/>
	<polygon class="st13" points="1401.5,585.3 1403.8,588.3 1399.1,588.3 	"/>
	<g>
		<g>
			<path class="st7" d="M1321.7,779.8h-11.5c-5.4,0-9.8-4.4-9.8-9.8V529.2c0-5.4,4.4-9.8,9.8-9.8h11.5c5.4,0,9.8,4.4,9.8,9.8V770
				C1331.6,775.4,1327.2,779.8,1321.7,779.8z"/>
		</g>
		<g>
			<line class="st7" x1="1316" y1="779.8" x2="1316" y2="779.8"/>
			<path class="st8" d="M1316,519.4c8.6,0,15.6,6.1,15.6,13.6v233.2c0,7.5-7,13.6-15.6,13.6"/>
			<line class="st7" x1="1316" y1="519.4" x2="1316" y2="519.4"/>
		</g>
	</g>
	<polygon class="st5" points="1316,381.8 1451.6,587.7 1180.3,587.7 	"/>
	<polygon class="st4" points="1316,355.7 1418.4,516.7 1213.5,516.7 	"/>
	<polygon class="st6" points="1316,344.1 1400.5,455 1231.4,455 	"/>
	<polyline class="st13" points="1243.8,498.6 1249.5,489.9 1255,498.4 	"/>
	<polyline class="st13" points="1271.4,476.3 1277.2,467.6 1282.6,476.1 	"/>
	<polyline class="st13" points="1297.3,502.9 1303,494.2 1308.4,502.7 	"/>
	<polyline class="st13" points="1310.4,471.9 1316.1,463.3 1321.5,471.8 	"/>
	<polyline class="st13" points="1336.6,502.9 1342.4,494.2 1347.8,502.7 	"/>
	<polyline class="st13" points="1360.5,480.6 1366.2,471.9 1371.6,480.4 	"/>
	<polyline class="st13" points="1243.8,539.6 1249.5,530.9 1255,539.4 	"/>
	<polyline class="st14" points="1213.5,567.2 1219.3,558.5 1224.7,567 	"/>
	<polyline class="st13" points="1260.2,575.9 1266,567.2 1271.4,575.7 	"/>
	<polyline class="st13" points="1297.3,530.9 1303,522.3 1308.4,530.8 	"/>
	<polyline class="st13" points="1310.4,573.6 1316.1,565 1321.5,573.5 	"/>
	<polyline class="st13" points="1378.1,530.9 1383.8,522.3 1389.3,530.8 	"/>
	<polyline class="st13" points="1336.6,543.9 1342.4,535.3 1347.8,543.8 	"/>
	<polyline class="st13" points="1383.7,569.3 1389.4,560.6 1394.9,569.1 	"/>
	<polyline class="st13" points="1277,552.6 1282.8,543.9 1288.2,552.4 	"/>
	<polyline class="st13" points="1268.5,449 1274.3,440.4 1279.7,448.9 	"/>
	<polyline class="st13" points="1294.8,426.5 1300.5,417.8 1305.9,426.3 	"/>
	<polyline class="st13" points="1326,444.7 1331.7,436 1337.2,444.6 	"/>
	<polyline class="st13" points="1331.6,408.2 1337.3,399.6 1342.7,408.1 	"/>
	<polyline class="st13" points="1310.4,386.2 1316.1,377.5 1321.5,386 	"/>
	<polyline class="st13" points="1324.7,486.2 1330.5,477.6 1335.9,486.1 	"/>
	<g>
		<g>
			<path class="st7" d="M1204.5,779.8L1204.5,779.8c-5.4,0-9.8-4.4-9.8-9.8V601.4c0-5.4,4.4-9.8,9.8-9.8l0,0c5.4,0,9.8,4.4,9.8,9.8
				V770C1214.4,775.4,1210,779.8,1204.5,779.8z"/>
		</g>
		<g>
			<line class="st7" x1="1204.5" y1="779.8" x2="1204.5" y2="779.8"/>
			<path class="st8" d="M1204.5,591.5c5.4,0,9.8,4.4,9.8,9.8V770c0,5.4-4.4,9.8-9.8,9.8"/>
			<line class="st7" x1="1204.5" y1="591.5" x2="1204.5" y2="591.5"/>
		</g>
	</g>
	<polygon class="st5" points="1204.5,492.1 1290.1,640.9 1119,640.9 	"/>
	<polygon class="st4" points="1204.5,473.2 1269.2,589.6 1139.9,589.6 	"/>
	<polygon class="st6" points="1204.5,464.8 1257.9,545 1151.2,545 	"/>
	<polyline class="st13" points="1159,576.5 1162.6,570.2 1166.1,576.4 	"/>
	<polyline class="st13" points="1176.4,560.3 1180.1,554.1 1183.5,560.2 	"/>
	<polyline class="st13" points="1192.8,579.6 1196.4,573.3 1199.8,579.5 	"/>
	<polyline class="st13" points="1201,557.2 1204.6,551 1208.1,557.1 	"/>
	<polyline class="st13" points="1217.6,579.6 1221.2,573.3 1224.6,579.5 	"/>
	<polyline class="st13" points="1232.6,563.5 1236.2,557.2 1239.7,563.4 	"/>
	<polyline class="st13" points="1159,606.1 1162.6,599.9 1166.1,606 	"/>
	<polyline class="st13" points="1139.9,626.1 1143.5,619.8 1147,626 	"/>
	<polyline class="st13" points="1169.4,632.4 1173,626.1 1176.4,632.2 	"/>
	<polyline class="st13" points="1192.8,599.9 1196.4,593.6 1199.8,599.8 	"/>
	<polyline class="st13" points="1201,630.7 1204.6,624.5 1208.1,630.6 	"/>
	<polyline class="st13" points="1243.7,599.9 1247.4,593.6 1250.8,599.8 	"/>
	<polyline class="st13" points="1217.6,609.3 1221.2,603 1224.6,609.2 	"/>
	<polyline class="st13" points="1247.3,627.6 1250.9,621.4 1254.3,627.5 	"/>
	<polyline class="st13" points="1180,615.5 1183.6,609.3 1187,615.4 	"/>
	<polyline class="st13" points="1174.6,540.7 1178.2,534.4 1181.7,540.6 	"/>
	<polyline class="st13" points="1191.2,524.4 1194.8,518.1 1198.2,524.3 	"/>
	<polyline class="st13" points="1210.9,537.5 1214.5,531.3 1217.9,537.4 	"/>
	<polyline class="st13" points="1214.4,511.2 1218,504.9 1221.5,511 	"/>
	<polyline class="st13" points="1201,495.2 1204.6,489 1208.1,495.1 	"/>
	<polyline class="st13" points="1210.1,567.6 1213.7,561.3 1217.1,567.5 	"/>
	<path class="st7" d="M674.2,779.8L674.2,779.8c-5.4,0-9.8-4.4-9.8-9.8V143.2c0-5.4,4.4-9.8,9.8-9.8l0,0c5.4,0,9.8,4.4,9.8,9.8V770
		C684,775.4,679.6,779.8,674.2,779.8z"/>
	<path class="st8" d="M674.2,133.4c5.4,0,9.8,6.7,9.8,15v616.4c0,8.3-4.4,15-9.8,15"/>
	<path class="st3" d="M724.4,166.5H623.9c-10.2,0-18.6-8.4-18.6-18.6v-14.2c0-10.2,8.4-18.6,18.6-18.6h100.4
		c10.2,0,18.6,8.4,18.6,18.6v14.2C743,158.1,734.6,166.5,724.4,166.5z"/>
	<path class="st4" d="M743,140.8v5.3c0,11.2-8.4,20.4-18.6,20.4H623.9c-10.2,0-18.6-9.2-18.6-20.4v-5.3"/>
	<path class="st3" d="M525.8,211.5c0-24.8,18.5-45,41.1-45h214.6c22.6,0,41.1,20.3,41.1,45v0c0,24.8-18.5,45-41.1,45H566.9
		C544.3,256.5,525.8,236.3,525.8,211.5L525.8,211.5"/>
	<path class="st4" d="M822.6,211.5L822.6,211.5c0,24.8-18.5,45-41.1,45H566.9c-22.6,0-41.1-20.3-41.1-45v0"/>
	<path class="st3" d="M832.9,396.7h-88.3c-8.9,0-16.1-7.2-16.1-16.1v-3.1c0-8.9,7.2-16.1,16.1-16.1h88.3c8.9,0,16.1,7.2,16.1,16.1
		v3.1C849,389.5,841.7,396.7,832.9,396.7z"/>
	<path class="st4" d="M849,379.1v3.6c0,7.7-7.3,14-16.3,14h-87.9c-9,0-16.3-6.3-16.3-14v-3.6"/>
	<path class="st15" d="M680.4,419.2h99c8.3,0,15-7.4,15-16.4v-17.5c0-2.4-1.8-4.4-4-4.4h-2c-2.2,0-4,2-4,4.4v16.4
		c0,4.8-3.6,8.8-8,8.8h-96c-2.2,0-4,2-4,4.4l0,0C676.4,417.3,678.2,419.2,680.4,419.2z"/>
	<path class="st3" d="M806.8,508.4h-65.6c-6.5,0-11.8-5.3-11.8-11.8v-2.3c0-6.5,5.3-11.8,11.8-11.8h65.6c6.5,0,11.8,5.3,11.8,11.8
		v2.3C818.7,503.1,813.3,508.4,806.8,508.4z"/>
	<path class="st4" d="M818.7,495.4v2.7c0,5.6-5.4,10.3-12.1,10.3h-65.1c-6.6,0-12.1-4.6-12.1-10.3v-2.7"/>
	<path class="st15" d="M682.2,530.6h83.3c7,0,12.6-6.3,12.6-14.1v-15.1c0-2.1-1.5-3.8-3.4-3.8H773c-1.9,0-3.4,1.7-3.4,3.8v14.1
		c0,4.1-3,7.5-6.7,7.5h-80.7c-1.9,0-3.4,1.7-3.4,3.8l0,0C678.9,528.9,680.4,530.6,682.2,530.6z"/>
	<path class="st3" d="M620.9,340.3h-88.3c-8.9,0-16.1-7.2-16.1-16.1v-3.1c0-8.9,7.2-16.1,16.1-16.1h88.3c8.9,0,16.1,7.2,16.1,16.1
		v3.1C637,333,629.8,340.3,620.9,340.3z"/>
	<path class="st4" d="M637,322.7v3.6c0,7.7-7.3,14-16.3,14h-87.9c-9,0-16.3-6.3-16.3-14v-3.6"/>
	<path class="st7" d="M667.9,361h-83.3c-7,0-12.6-6.3-12.6-14.1v-15.1c0-2.1,1.5-3.8,3.4-3.8h1.7c1.9,0,3.4,1.7,3.4,3.8v14.1
		c0,4.1,3,7.5,6.7,7.5h80.7c1.9,0,3.4,1.7,3.4,3.8l0,0C671.2,359.3,669.7,361,667.9,361z"/>
	<g>
		<path class="st3" d="M385.2,407.2L385.2,407.2c-1.8-3-0.7-6.9,2.3-8.7l62.4-36c3-1.8,6.9-0.7,8.7,2.3l0,0c1.8,3,0.7,6.9-2.3,8.7
			l-62.4,36C390.8,411.3,386.9,410.2,385.2,407.2z"/>
		<path class="st4" d="M320.3,603.4L320.3,603.4c-1.8-3-0.7-6.9,2.3-8.7l121.6-70.2c3-1.8,6.9-0.7,8.7,2.3l0,0
			c1.8,3,0.7,6.9-2.3,8.7L329,605.8C326,607.5,322.1,606.5,320.3,603.4z"/>
		<path class="st3" d="M349.6,506.6L349.6,506.6c-1.8-3-0.7-6.9,2.3-8.7l92.3-53.3c3-1.8,6.9-0.7,8.7,2.3l0,0c1.8,3,0.7,6.9-2.3,8.7
			l-92.3,53.3C355.3,510.7,351.4,509.6,349.6,506.6z"/>
		<path class="st5" d="M300.5,656.3L300.5,656.3c-1.8-3-0.7-6.9,2.3-8.7L444.3,566c3-1.8,6.9-0.7,8.7,2.3l0,0c1.8,3,0.7,6.9-2.3,8.7
			l-141.4,81.7C306.2,660.4,302.3,659.4,300.5,656.3z"/>
		<path class="st6" d="M371.9,493.7L371.9,493.7c-1.8-3-0.7-6.9,2.3-8.7l70.1-40.5c3-1.8,6.9-0.7,8.7,2.3v0c1.8,3,0.7,6.9-2.3,8.7
			l-70.1,40.5C377.5,497.8,373.6,496.8,371.9,493.7z"/>
		<path class="st6" d="M406.7,394.8L406.7,394.8c-1.8-3-0.7-6.9,2.3-8.7l40.9-23.6c3-1.8,6.9-0.7,8.7,2.3l0,0c1.8,3,0.7,6.9-2.3,8.7
			l-40.9,23.6C412.3,398.9,408.4,397.8,406.7,394.8z"/>
		<path class="st3" d="M353.1,584.5L353.1,584.5c-1.8-3-0.7-6.9,2.3-8.7l88.8-51.3c3-1.8,6.9-0.7,8.7,2.3l0,0c1.8,3,0.7,6.9-2.3,8.7
			l-88.8,51.3C358.8,588.6,354.9,587.5,353.1,584.5z"/>
		<path class="st6" d="M392.4,561.8L392.4,561.8c-1.8-3-0.7-6.9,2.3-8.7l49.6-28.6c3-1.8,6.9-0.7,8.7,2.3l0,0c1.8,3,0.7,6.9-2.3,8.7
			l-49.6,28.6C398,565.9,394.1,564.9,392.4,561.8z"/>
		<path class="st4" d="M327.4,640.8L327.4,640.8c-1.8-3-0.7-6.9,2.3-8.7L444.3,566c3-1.8,6.9-0.7,8.7,2.3l0,0c1.8,3,0.7,6.9-2.3,8.7
			l-114.5,66.1C333.1,644.9,329.2,643.9,327.4,640.8z"/>
		<path class="st3" d="M358.4,622.9L358.4,622.9c-1.8-3-0.7-6.9,2.3-8.7l83.5-48.2c3-1.8,6.9-0.7,8.7,2.3l0,0c1.8,3,0.7,6.9-2.3,8.7
			l-83.5,48.2C364.1,627,360.2,626,358.4,622.9z"/>
		<path class="st6" d="M395.6,601.4L395.6,601.4c-1.8-3-0.7-6.9,2.3-8.7l46.3-26.7c3-1.8,6.9-0.7,8.7,2.3l0,0c1.8,3,0.7,6.9-2.3,8.7
			l-46.3,26.7C401.3,605.5,397.4,604.5,395.6,601.4z"/>
		<path class="st3" d="M360.8,460.2L360.8,460.2c-1.8-3-0.7-6.9,2.3-8.7l81.2-46.9c3-1.8,6.9-0.7,8.7,2.3l0,0c1.8,3,0.7,6.9-2.3,8.7
			l-81.2,46.9C366.4,464.3,362.5,463.3,360.8,460.2z"/>
		<path class="st6" d="M380.6,448.8L380.6,448.8c-1.8-3-0.7-6.9,2.3-8.7l61.4-35.4c3-1.8,6.9-0.7,8.7,2.3h0c1.8,3,0.7,6.9-2.3,8.7
			l-61.4,35.4C386.2,452.9,382.3,451.8,380.6,448.8z"/>
		<path class="st3" d="M339.5,551.7L339.5,551.7c-1.8-3-0.7-6.9,2.3-8.7l102.4-59.1c3-1.8,6.9-0.7,8.7,2.3v0c1.8,3,0.7,6.9-2.3,8.7
			L348.2,554C345.2,555.8,341.3,554.7,339.5,551.7z"/>
		<path class="st6" d="M363.9,537.6L363.9,537.6c-1.8-3-0.7-6.9,2.3-8.7l78-45.1c3-1.8,6.9-0.7,8.7,2.3v0c1.8,3,0.7,6.9-2.3,8.7
			l-78,45.1C369.6,541.7,365.7,540.6,363.9,537.6z"/>
		<path class="st3" d="M525.3,408.5L525.3,408.5c1.8-3,0.7-6.9-2.3-8.7l-62.4-36c-3-1.8-6.9-0.7-8.7,2.3l0,0c-1.8,3-0.7,6.9,2.3,8.7
			l62.4,36C519.6,412.6,523.5,411.5,525.3,408.5z"/>
		<path class="st4" d="M590.1,604.7L590.1,604.7c1.8-3,0.7-6.9-2.3-8.7l-121.6-70.2c-3-1.8-6.9-0.7-8.7,2.3h0
			c-1.8,3-0.7,6.9,2.3,8.7L581.4,607C584.4,608.8,588.3,607.8,590.1,604.7z"/>
		<path class="st3" d="M560.8,507.9L560.8,507.9c1.8-3,0.7-6.9-2.3-8.7l-92.3-53.3c-3-1.8-6.9-0.7-8.7,2.3h0c-1.8,3-0.7,6.9,2.3,8.7
			l92.3,53.3C555.1,512,559,510.9,560.8,507.9z"/>
		<path class="st5" d="M609.9,657.6L609.9,657.6c1.8-3,0.7-6.9-2.3-8.7l-141.4-81.7c-3-1.8-6.9-0.7-8.7,2.3h0
			c-1.8,3-0.7,6.9,2.3,8.7L601.2,660C604.2,661.7,608.1,660.7,609.9,657.6z"/>
		<path class="st6" d="M538.6,495L538.6,495c1.8-3,0.7-6.9-2.3-8.7l-70.1-40.5c-3-1.8-6.9-0.7-8.7,2.3h0c-1.8,3-0.7,6.9,2.3,8.7
			l70.1,40.5C532.9,499.1,536.8,498.1,538.6,495z"/>
		<path class="st6" d="M503.7,396.1L503.7,396.1c1.8-3,0.7-6.9-2.3-8.7l-40.9-23.6c-3-1.8-6.9-0.7-8.7,2.3l0,0
			c-1.8,3-0.7,6.9,2.3,8.7l40.9,23.6C498.1,400.2,502,399.1,503.7,396.1z"/>
		<path class="st3" d="M557.3,585.8L557.3,585.8c1.8-3,0.7-6.9-2.3-8.7l-88.8-51.3c-3-1.8-6.9-0.7-8.7,2.3h0c-1.8,3-0.7,6.9,2.3,8.7
			l88.8,51.3C551.6,589.9,555.5,588.8,557.3,585.8z"/>
		<path class="st6" d="M518,563.1L518,563.1c1.8-3,0.7-6.9-2.3-8.7l-49.6-28.6c-3-1.8-6.9-0.7-8.7,2.3h0c-1.8,3-0.7,6.9,2.3,8.7
			l49.6,28.6C512.4,567.2,516.3,566.2,518,563.1z"/>
		<path class="st4" d="M583,642.1L583,642.1c1.8-3,0.7-6.9-2.3-8.7l-114.5-66.1c-3-1.8-6.9-0.7-8.7,2.3h0c-1.8,3-0.7,6.9,2.3,8.7
			l114.5,66.1C577.3,646.2,581.2,645.2,583,642.1z"/>
		<path class="st3" d="M552,624.2L552,624.2c1.8-3,0.7-6.9-2.3-8.7l-83.5-48.2c-3-1.8-6.9-0.7-8.7,2.3h0c-1.8,3-0.7,6.9,2.3,8.7
			l83.5,48.2C546.3,628.3,550.2,627.3,552,624.2z"/>
		<path class="st6" d="M514.8,602.7L514.8,602.7c1.8-3,0.7-6.9-2.3-8.7l-46.3-26.7c-3-1.8-6.9-0.7-8.7,2.3h0c-1.8,3-0.7,6.9,2.3,8.7
			l46.3,26.7C509.1,606.8,513,605.8,514.8,602.7z"/>
		<path class="st3" d="M549.7,461.5L549.7,461.5c1.8-3,0.7-6.9-2.3-8.7l-81.2-46.9c-3-1.8-6.9-0.7-8.7,2.3h0c-1.8,3-0.7,6.9,2.3,8.7
			l81.2,46.9C544,465.6,547.9,464.6,549.7,461.5z"/>
		<path class="st6" d="M529.8,450.1L529.8,450.1c1.8-3,0.7-6.9-2.3-8.7l-61.4-35.4c-3-1.8-6.9-0.7-8.7,2.3h0c-1.8,3-0.7,6.9,2.3,8.7
			l61.4,35.4C524.2,454.2,528.1,453.1,529.8,450.1z"/>
		<path class="st3" d="M570.9,553L570.9,553c1.8-3,0.7-6.9-2.3-8.7l-102.4-59.1c-3-1.8-6.9-0.7-8.7,2.3h0c-1.8,3-0.7,6.9,2.3,8.7
			l102.4,59.1C565.2,557.1,569.1,556,570.9,553z"/>
		<path class="st6" d="M546.5,538.9L546.5,538.9c1.8-3,0.7-6.9-2.3-8.7l-78-45.1c-3-1.8-6.9-0.7-8.7,2.3h0c-1.8,3-0.7,6.9,2.3,8.7
			l78,45.1C540.9,543,544.8,541.9,546.5,538.9z"/>
		<g>
			<path class="st7" d="M453.8,784.8L453.8,784.8c-5.4,0-9.8-4.4-9.8-9.8V371.2c0-5.4,4.4-9.8,9.8-9.8h0c5.4,0,9.8,4.4,9.8,9.8
				v403.7C463.7,780.4,459.3,784.8,453.8,784.8z"/>
			<path class="st8" d="M453.8,361.4c5.4,0,9.8,4.4,9.8,9.8v403.7c0,5.4-4.4,9.8-9.8,9.8"/>
		</g>
		<g>
			<path class="st9" d="M379.8,784.8L379.8,784.8c-2.8,0-5.1-2.3-5.1-5.1v-98.9c0-2.8,2.3-5.1,5.1-5.1l0,0c2.8,0,5.1,2.3,5.1,5.1
				v98.9C384.9,782.5,382.6,784.8,379.8,784.8z"/>
			<path class="st10" d="M379.8,784.8L379.8,784.8c-2.8,0-5.1-2-5.1-4.5V680.1c0-2.5,2.3-4.5,5.1-4.5l0,0"/>
		</g>
		<g>
			<ellipse class="st4" cx="379.8" cy="672.6" rx="37" ry="32.4"/>
			<ellipse class="st3" cx="388.2" cy="670.8" rx="28.5" ry="25"/>
		</g>
		<path class="st9" d="M422.7,784.8L422.7,784.8c-1.8,0-3.3-1.5-3.3-3.3v-71.2c0-1.8,1.5-3.3,3.3-3.3h0c1.8,0,3.3,1.5,3.3,3.3v71.2
			C426,783.3,424.5,784.8,422.7,784.8z"/>
		<path class="st10" d="M422.7,784.8L422.7,784.8c-1.8,0-3.3-1.4-3.3-3.2v-71.3c0-1.8,1.5-3.2,3.3-3.2h0"/>
		<ellipse class="st4" cx="422.7" cy="704.9" rx="23.6" ry="23.1"/>
		<ellipse class="st3" cx="428.1" cy="703.6" rx="18.2" ry="17.8"/>
	</g>
</g>
<g id="Calque_4">
	<path class="st1" d="M269,795.8c-1-31.9-27.2-57.5-59.4-57.5s-58.4,25.6-59.4,57.5H269z"/>
	<path class="st1" d="M364.4,795.8c-1.5-31.5-27.5-56.6-59.3-56.6s-57.9,25.1-59.3,56.6H364.4z"/>
	<path class="st1" d="M459.8,795.8c-1.7-31.3-27.6-56.1-59.3-56.1c-31.7,0-57.6,24.8-59.3,56.1H459.8z"/>
	<path class="st1" d="M555.3,795.8c-1.9-31.1-27.7-55.7-59.3-55.7c-31.6,0-57.3,24.6-59.3,55.7H555.3z"/>
	<path class="st1" d="M650.8,793.8c-1.2-31.7-27.3-57-59.4-57c-32,0-58.1,25.3-59.4,57H650.8z"/>
	<path class="st1" d="M746,795.8c-3.2-29.7-28.4-52.9-59.1-52.9s-55.8,23.2-59.1,52.9H746z"/>
	<path class="st1" d="M841.6,795.8c-2.2-30.8-27.9-55.2-59.3-55.2c-31.4,0-57.1,24.4-59.3,55.2H841.6z"/>
	<path class="st1" d="M936.8,795.8c-3.5-29.5-28.5-52.4-59-52.4c-30.5,0-55.5,22.9-59,52.4H936.8z"/>
	<path class="st1" d="M1032.2,795.8c-3.7-29.3-28.6-52-58.9-52s-55.3,22.7-58.9,52H1032.2z"/>
	<path class="st1" d="M1128.1,794.8c-0.8-32.1-27.1-58-59.4-58c-32.3,0-58.6,25.8-59.4,58H1128.1z"/>
	<path class="st1" d="M1223.4,795.8c-2.4-30.6-28-54.7-59.2-54.7c-31.2,0-56.8,24.1-59.2,54.7H1223.4z"/>
	<path class="st1" d="M1318.9,794.8c-2.6-30.4-28.1-54.3-59.2-54.3c-31.1,0-56.6,23.9-59.2,54.3H1318.9z"/>
	<path class="st1" d="M1414.3,795.8c-3-30-28.3-53.4-59.1-53.4s-56.1,23.4-59.1,53.4H1414.3z"/>
	<path class="st1" d="M1509.8,794.8c-2.8-30.2-28.2-53.8-59.1-53.8c-30.9,0-56.3,23.6-59.1,53.8H1509.8z"/>
	<path class="st1" d="M1605,795.8c-3.9-29.1-28.7-51.5-58.9-51.5c-30.1,0-55,22.4-58.9,51.5H1605z"/>
	<path class="st1" d="M1700.4,794.8c-4.1-28.9-28.8-51.1-58.8-51.1s-54.8,22.2-58.8,51.1H1700.4z"/>
	<path class="st1" d="M1781,795.8c-4.1-28.9-28.8-51.1-58.8-51.1c-30,0-54.8,22.2-58.8,51.1H1781z"/>
</g>
<g id="Calque_1">
</g>
<g id="Calque_5">
	<path class="st1" d="M1130.4,140.8H928.8c-12.3,0-22.4-10.1-22.4-22.4v-15.5c0-12.3,10.1-22.4,22.4-22.4h201.6
		c12.3,0,22.4,10.1,22.4,22.4v15.5C1152.7,130.8,1142.7,140.8,1130.4,140.8z"/>
	<path class="st1" d="M1429.2,242.1h-167.3c-14.1,0-25.7-11.6-25.7-25.7v-2.6c0-14.1,11.6-25.7,25.7-25.7h167.3
		c14.1,0,25.7,11.6,25.7,25.7v2.6C1454.9,230.6,1443.3,242.1,1429.2,242.1z"/>
	<path class="st1" d="M432.9,201.1H273.8c-11.5,0-20.9-9.4-20.9-20.9V178c0-11.5,9.4-20.9,20.9-20.9h159.1
		c11.5,0,20.9,9.4,20.9,20.9v2.1C453.8,191.7,444.4,201.1,432.9,201.1z"/>
	<path class="st1" d="M448.6,166.5h-73.9c-8.3,0-15.1-6.8-15.1-15.1v0c0-8.3,6.8-15.1,15.1-15.1h73.9c8.3,0,15.1,6.8,15.1,15.1v0
		C463.7,159.7,456.9,166.5,448.6,166.5z"/>
	<path class="st1" d="M1042.9,85.8H929.9c-9.1,0-16.6-7.5-16.6-16.6v0c0-9.1,7.5-16.6,16.6-16.6h113.1c9.1,0,16.6,7.5,16.6,16.6v0
		C1059.5,78.4,1052,85.8,1042.9,85.8z"/>
	<path class="st1" d="M1564.8,193.1h-126.6c-10.9,0-19.7-8.9-19.7-19.7v0c0-10.9,8.9-19.7,19.7-19.7h126.6
		c10.9,0,19.7,8.9,19.7,19.7v0C1584.5,184.3,1575.6,193.1,1564.8,193.1z"/>
	<circle class="st1" cx="449.7" cy="234" r="3.3"/>
	<circle class="st1" cx="396.7" cy="310" r="3.3"/>
</g>
</svg>
