<?xml version="1.0" encoding="utf-8"?>
<!-- Generator: Adobe Illustrator 19.2.1, SVG Export Plug-In . SVG Version: 6.00 Build 0)  -->
<svg version="1.1" xmlns="http://www.w3.org/2000/svg" xmlns:xlink="http://www.w3.org/1999/xlink" x="0px" y="0px"
	 viewBox="0 0 1920 1080" style="enable-background:new 0 0 1920 1080;" xml:space="preserve">
<style type="text/css">
	.st0{fill:#B4EDD2;}
	.st1{fill:#994E05;}
	.st2{fill:#7C3A09;}
	.st3{fill:#A691B5;}
	.st4{fill:#9774AD;}
	.st5{fill:#7E6093;}
	.st6{fill:#22B573;}
	.st7{fill:#8E7B82;}
	.st8{fill:#736369;}
	.st9{fill:#804104;}
	.st10{fill:#A35305;}
	.st11{fill:#A35305;stroke:#A35305;stroke-width:3;stroke-linecap:round;stroke-linejoin:round;stroke-miterlimit:10;}
	.st12{fill:#7CE882;}
	.st13{fill:#6DCC72;}
	.st14{fill:#4FA161;}
	.st15{fill:#2BE0AC;}
	.st16{fill:#BAB374;}
	.st17{fill:#33C47F;}
	.st18{fill:#9E9741;}
	.st19{fill:#8BEA8C;}
	.st20{fill:#B5F4B5;}
</style>
<g id="Calque_2">
	<rect class="st0" width="1920" height="1080"/>
</g>
<g id="Calque_1">
	<g>
		<path class="st1" d="M1527.4,499.9L1527.4,499.9c-5.3,0-9.6,4.3-9.6,9.6v253.7c0,5.3,4.3,9.6,9.6,9.6l0,0c5.3,0,9.6-4.3,9.6-9.6
			V509.5C1537.1,504.2,1532.8,499.9,1527.4,499.9z"/>
		<polygon class="st2" points="1526,668.8 1529.4,675 1522.4,675.1 		"/>
		<polygon class="st2" points="1531.1,649.2 1534.5,655.3 1527.4,655.4 		"/>
		<polygon class="st2" points="1525.4,633.2 1528.8,639.4 1521.7,639.5 		"/>
		<polygon class="st2" points="1532.4,614 1535.8,620.2 1528.8,620.3 		"/>
		<polygon class="st2" points="1524,603.5 1527.4,609.6 1520.4,609.7 		"/>
		<polygon class="st2" points="1532.4,586.9 1535.8,593.1 1528.8,593.2 		"/>
		<polygon class="st2" points="1522.5,570.7 1525.9,576.8 1518.9,576.9 		"/>
		<polygon class="st2" points="1533,566.1 1536.4,572.2 1529.3,572.3 		"/>
		<polygon class="st2" points="1527,757.9 1530.4,764.1 1523.3,764.2 		"/>
		<polygon class="st2" points="1533.1,737.3 1536.5,743.4 1529.4,743.5 		"/>
		<polygon class="st2" points="1522.5,724.9 1525.9,731 1518.9,731.1 		"/>
		<polygon class="st2" points="1532,700.7 1535.4,706.8 1528.4,706.9 		"/>
	</g>
	<g>
		<path class="st3" d="M1617.2,567.5h-182.6c-30.3,0-54.9-24.6-54.9-54.9v0c0-30.3,24.6-54.9,54.9-54.9h182.6
			c30.3,0,54.9,24.6,54.9,54.9v0C1672.1,542.9,1647.6,567.5,1617.2,567.5z"/>
		<path class="st3" d="M1585.4,478.2h-118.9c-24.6,0-44.6-20-44.6-44.6v0c0-24.6,20-44.6,44.6-44.6h118.9c24.6,0,44.6,20,44.6,44.6
			v0C1630,458.2,1610,478.2,1585.4,478.2z"/>
		<path class="st3" d="M1534.6,406.2h-17.4c-17.3,0-31.3-14-31.3-31.3v0c0-17.3,14-31.3,31.3-31.3h17.4c17.3,0,31.3,14,31.3,31.3v0
			C1565.9,392.1,1551.9,406.2,1534.6,406.2z"/>
	</g>
	<g>
		<path class="st4" d="M1527.4,457.7h-92.8c-30.3,0-54.9,24.6-54.9,54.9v0c0,30.3,24.6,54.9,54.9,54.9h92.8V457.7z"/>
		<path class="st4" d="M1527.4,389h-61c-24.6,0-44.6,20-44.6,44.6v0c0,24.6,20,44.6,44.6,44.6h61V389z"/>
		<path class="st4" d="M1527.4,343.5h-10.2c-17.3,0-31.3,14-31.3,31.3v0c0,17.3,14,31.3,31.3,31.3h10.2V343.5z"/>
	</g>
	<polygon class="st5" points="1445.6,530.2 1449.1,536.4 1442,536.5 	"/>
	<polygon class="st5" points="1480.6,490.1 1484.1,496.3 1477,496.4 	"/>
	<polygon class="st5" points="1455.5,508.1 1459,514.2 1451.9,514.3 	"/>
	<polygon class="st5" points="1471.2,539.8 1474.6,545.9 1467.6,546 	"/>
	<polygon class="st5" points="1498.9,531.4 1502.3,537.5 1495.3,537.6 	"/>
	<polygon class="st5" points="1426.2,548.9 1429.7,555.1 1422.6,555.2 	"/>
	<polygon class="st5" points="1410.6,523.1 1414,529.2 1407,529.3 	"/>
	<polygon class="st5" points="1421.9,495.6 1425.4,501.7 1418.3,501.8 	"/>
	<polygon class="st5" points="1450.1,475.1 1453.6,481.2 1446.5,481.3 	"/>
	<polygon class="st5" points="1508,468.8 1511.4,474.9 1504.4,475.1 	"/>
	<polygon class="st5" points="1482.5,452.2 1485.9,458.4 1478.8,458.5 	"/>
	<polygon class="st5" points="1453.7,444.6 1457.1,450.8 1450,450.9 	"/>
	<polygon class="st5" points="1508.9,436.2 1512.3,442.3 1505.2,442.5 	"/>
	<polygon class="st5" points="1442.3,422.2 1445.7,428.3 1438.7,428.4 	"/>
	<polygon class="st5" points="1477.1,420.7 1480.5,426.9 1473.5,427 	"/>
	<polygon class="st5" points="1508,415.9 1511.4,422.1 1504.4,422.2 	"/>
	<polygon class="st5" points="1467.9,397.6 1471.3,403.8 1464.3,403.9 	"/>
	<polygon class="st5" points="1516.1,391.3 1519.5,397.5 1512.5,397.6 	"/>
	<polygon class="st5" points="1519.6,351.8 1523.1,358 1516,358.1 	"/>
	<polygon class="st5" points="1501,374.8 1504.4,381 1497.3,381.1 	"/>
	<polygon class="st6" points="748.9,922.4 824.3,791.9 899.6,922.4 	"/>
	<path class="st7" d="M1581.4,723.6L1581.4,723.6c-2.8,0-5.1-2.3-5.1-5.1v-98.9c0-2.8,2.3-5.1,5.1-5.1l0,0c2.8,0,5.1,2.3,5.1,5.1
		v98.9C1586.5,721.3,1584.2,723.6,1581.4,723.6z"/>
	<path class="st8" d="M1581.4,723.6L1581.4,723.6c-2.8,0-5.1-2-5.1-4.5V618.9c0-2.5,2.3-4.5,5.1-4.5l0,0"/>
	<ellipse class="st4" cx="1581.4" cy="611.4" rx="37" ry="32.4"/>
	<ellipse class="st3" cx="1589.8" cy="609.6" rx="28.5" ry="25"/>
	<path class="st9" d="M259.9,774L259.9,774c-5.4,0-9.8-4.4-9.8-9.8V137.4c0-5.4,4.4-9.8,9.8-9.8h0c5.4,0,9.8,4.4,9.8,9.8v626.8
		C269.7,769.6,265.3,774,259.9,774z"/>
	<path class="st10" d="M259.9,127.6c5.4,0,9.8,6.7,9.8,15V759c0,8.3-4.4,15-9.8,15"/>
	<path class="st3" d="M310.1,160.7H209.7c-10.2,0-18.6-8.4-18.6-18.6V128c0-10.2,8.4-18.6,18.6-18.6h100.4
		c10.2,0,18.6,8.4,18.6,18.6v14.2C328.7,152.4,320.3,160.7,310.1,160.7z"/>
	<path class="st4" d="M328.7,135v5.3c0,11.2-8.4,20.4-18.6,20.4H209.7c-10.2,0-18.6-9.2-18.6-20.4V135"/>
	<path class="st3" d="M111.5,205.7c0-24.8,18.5-45,41.1-45h214.6c22.6,0,41.1,20.3,41.1,45v0c0,24.8-18.5,45-41.1,45H152.6
		C130,250.7,111.5,230.5,111.5,205.7L111.5,205.7"/>
	<path class="st4" d="M408.3,205.7L408.3,205.7c0,24.8-18.5,45-41.1,45H152.6c-22.6,0-41.1-20.3-41.1-45v0"/>
	<path class="st3" d="M418.6,390.9h-88.3c-8.9,0-16.1-7.2-16.1-16.1v-3.1c0-8.9,7.2-16.1,16.1-16.1h88.3c8.9,0,16.1,7.2,16.1,16.1
		v3.1C434.7,383.7,427.5,390.9,418.6,390.9z"/>
	<path class="st4" d="M434.7,373.3v3.6c0,7.7-7.3,14-16.3,14h-87.9c-9,0-16.3-6.3-16.3-14v-3.6"/>
	<path class="st11" d="M266.1,413.4h99c8.3,0,15-7.4,15-16.4v-17.5c0-2.4-1.8-4.4-4-4.4h-2c-2.2,0-4,2-4,4.4v16.4
		c0,4.8-3.6,8.8-8,8.8h-96c-2.2,0-4,2-4,4.4l0,0C262.1,411.5,263.9,413.4,266.1,413.4z"/>
	<g>
		<g>
			<path class="st12" d="M392.6,502.6H327c-6.5,0-11.8-5.3-11.8-11.8v-2.3c0-6.5,5.3-11.8,11.8-11.8h65.6c6.5,0,11.8,5.3,11.8,11.8
				v2.3C404.4,497.3,399.1,502.6,392.6,502.6z"/>
			<path class="st13" d="M404.4,489.6v2.7c0,5.6-5.4,10.3-12.1,10.3h-65.1c-6.6,0-12.1-4.6-12.1-10.3v-2.7"/>
		</g>
		<path class="st11" d="M267.9,524.8h83.3c7,0,12.6-6.3,12.6-14.1v-15.1c0-2.1-1.5-3.8-3.4-3.8h-1.7c-1.9,0-3.4,1.7-3.4,3.8v14.1
			c0,4.1-3,7.5-6.7,7.5h-80.7c-1.9,0-3.4,1.7-3.4,3.8l0,0C264.6,523.1,266.1,524.8,267.9,524.8z"/>
	</g>
	<path class="st3" d="M206.6,334.5h-88.3c-8.9,0-16.1-7.2-16.1-16.1v-3.1c0-8.9,7.2-16.1,16.1-16.1h88.3c8.9,0,16.1,7.2,16.1,16.1
		v3.1C222.7,327.2,215.5,334.5,206.6,334.5z"/>
	<path class="st4" d="M222.7,316.9v3.6c0,7.7-7.3,14-16.3,14h-87.9c-9,0-16.3-6.3-16.3-14v-3.6"/>
	<path class="st9" d="M253.6,355.2h-83.3c-7,0-12.6-6.3-12.6-14.1V326c0-2.1,1.5-3.8,3.4-3.8h1.7c1.9,0,3.4,1.7,3.4,3.8v14.1
		c0,4.1,3,7.5,6.7,7.5h80.7c1.9,0,3.4,1.7,3.4,3.8l0,0C257,353.5,255.5,355.2,253.6,355.2z"/>
	<path class="st9" d="M1666.2,765.7L1666.2,765.7c-5.4,0-9.8-4.4-9.8-9.8V129.1c0-5.4,4.4-9.8,9.8-9.8l0,0c5.4,0,9.8,4.4,9.8,9.8
		v626.8C1676,761.3,1671.6,765.7,1666.2,765.7z"/>
	<path class="st10" d="M1666.2,119.2c5.4,0,9.8,6.7,9.8,15v616.4c0,8.3-4.4,15-9.8,15"/>
	<path class="st3" d="M1716.4,152.4h-100.4c-10.2,0-18.6-8.4-18.6-18.6v-14.2c0-10.2,8.4-18.6,18.6-18.6h100.4
		c10.2,0,18.6,8.4,18.6,18.6v14.2C1735,144,1726.6,152.4,1716.4,152.4z"/>
	<path class="st4" d="M1735,126.7v5.3c0,11.2-8.4,20.4-18.6,20.4h-100.4c-10.2,0-18.6-9.2-18.6-20.4v-5.3"/>
	<path class="st3" d="M1517.8,197.4c0-24.8,18.5-45,41.1-45h214.6c22.6,0,41.1,20.3,41.1,45v0c0,24.8-18.5,45-41.1,45h-214.6
		C1536.3,242.4,1517.8,222.2,1517.8,197.4L1517.8,197.4"/>
	<path class="st4" d="M1814.6,197.4L1814.6,197.4c0,24.8-18.5,45-41.1,45h-214.6c-22.6,0-41.1-20.3-41.1-45v0"/>
	<path class="st3" d="M1824.9,382.6h-88.3c-8.9,0-16.1-7.2-16.1-16.1v-3.1c0-8.9,7.2-16.1,16.1-16.1h88.3c8.9,0,16.1,7.2,16.1,16.1
		v3.1C1841,375.4,1833.7,382.6,1824.9,382.6z"/>
	<path class="st4" d="M1841,365v3.6c0,7.7-7.3,14-16.3,14h-87.9c-9,0-16.3-6.3-16.3-14V365"/>
	<path class="st11" d="M1672.4,405.1h99c8.3,0,15-7.4,15-16.4v-17.5c0-2.4-1.8-4.4-4-4.4h-2c-2.2,0-4,2-4,4.4v16.4
		c0,4.8-3.6,8.8-8,8.8h-96c-2.2,0-4,2-4,4.4v0C1668.4,403.2,1670.2,405.1,1672.4,405.1z"/>
	<path class="st3" d="M1798.8,494.3h-65.6c-6.5,0-11.8-5.3-11.8-11.8v-2.3c0-6.5,5.3-11.8,11.8-11.8h65.6c6.5,0,11.8,5.3,11.8,11.8
		v2.3C1810.6,488.9,1805.3,494.3,1798.8,494.3z"/>
	<path class="st4" d="M1810.6,481.3v2.7c0,5.6-5.4,10.3-12.1,10.3h-65.1c-6.6,0-12.1-4.6-12.1-10.3v-2.7"/>
	<path class="st11" d="M1674.2,516.5h83.3c7,0,12.6-6.3,12.6-14.1v-15.1c0-2.1-1.5-3.8-3.4-3.8h-1.7c-1.9,0-3.4,1.7-3.4,3.8v14.1
		c0,4.1-3,7.5-6.7,7.5h-80.7c-1.9,0-3.4,1.7-3.4,3.8l0,0C1670.8,514.8,1672.4,516.5,1674.2,516.5z"/>
	<path class="st3" d="M1612.9,326.2h-88.3c-8.9,0-16.1-7.2-16.1-16.1V307c0-8.9,7.2-16.1,16.1-16.1h88.3c8.9,0,16.1,7.2,16.1,16.1
		v3.1C1629,318.9,1621.7,326.2,1612.9,326.2z"/>
	<path class="st4" d="M1629,308.5v3.6c0,7.7-7.3,14-16.3,14h-87.9c-9,0-16.3-6.3-16.3-14v-3.6"/>
	<path class="st9" d="M1659.9,346.9h-83.3c-7,0-12.6-6.3-12.6-14.1v-15.1c0-2.1,1.5-3.8,3.4-3.8h1.7c1.9,0,3.4,1.7,3.4,3.8v14.1
		c0,4.1,3,7.5,6.7,7.5h80.7c1.9,0,3.4,1.7,3.4,3.8v0C1663.2,345.2,1661.7,346.9,1659.9,346.9z"/>
	<g>
		<path class="st1" d="M453.4,448.3L453.4,448.3c-5.3,0-9.6,4.3-9.6,9.6v253.7c0,5.3,4.3,9.6,9.6,9.6l0,0c5.3,0,9.6-4.3,9.6-9.6V458
			C463,452.6,458.7,448.3,453.4,448.3z"/>
		<polygon class="st2" points="452,617.2 455.4,623.4 448.3,623.5 		"/>
		<polygon class="st2" points="457,597.6 460.4,603.7 453.4,603.9 		"/>
		<polygon class="st2" points="451.3,581.7 454.7,587.8 447.7,587.9 		"/>
		<polygon class="st2" points="458.4,562.5 461.8,568.6 454.7,568.7 		"/>
		<polygon class="st2" points="450,551.9 453.4,558.1 446.3,558.2 		"/>
		<polygon class="st2" points="458.4,535.3 461.8,541.5 454.7,541.6 		"/>
		<polygon class="st2" points="448.4,519.1 451.9,525.3 444.8,525.4 		"/>
		<polygon class="st2" points="458.9,514.5 462.3,520.6 455.3,520.8 		"/>
		<polygon class="st2" points="452.9,706.3 456.3,712.5 449.3,712.6 		"/>
		<polygon class="st2" points="459,685.7 462.4,691.9 455.4,692 		"/>
		<polygon class="st2" points="448.4,673.3 451.9,679.4 444.8,679.6 		"/>
		<polygon class="st2" points="458,649.1 461.4,655.3 454.3,655.4 		"/>
	</g>
	<g>
		<path class="st3" d="M543.2,515.9H360.5c-30.3,0-54.9-24.6-54.9-54.9v0c0-30.3,24.6-54.9,54.9-54.9h182.6
			c30.3,0,54.9,24.6,54.9,54.9v0C598.1,491.3,573.5,515.9,543.2,515.9z"/>
		<path class="st3" d="M511.3,426.6H392.4c-24.6,0-44.6-20-44.6-44.6v0c0-24.6,20-44.6,44.6-44.6h118.9c24.6,0,44.6,20,44.6,44.6v0
			C555.9,406.6,535.9,426.6,511.3,426.6z"/>
		<path class="st3" d="M460.6,354.6h-17.4c-17.3,0-31.3-14-31.3-31.3v0c0-17.3,14-31.3,31.3-31.3h17.4c17.3,0,31.3,14,31.3,31.3v0
			C491.9,340.6,477.9,354.6,460.6,354.6z"/>
	</g>
	<g>
		<path class="st4" d="M453.4,406.1h-92.8c-30.3,0-54.9,24.6-54.9,54.9v0c0,30.3,24.6,54.9,54.9,54.9h92.8V406.1z"/>
		<path class="st4" d="M453.4,337.4h-61c-24.6,0-44.6,20-44.6,44.6v0c0,24.6,20,44.6,44.6,44.6h61V337.4z"/>
		<path class="st4" d="M453.4,291.9h-10.2c-17.3,0-31.3,14-31.3,31.3v0c0,17.3,14,31.3,31.3,31.3h10.2V291.9z"/>
	</g>
	<polygon class="st5" points="371.6,478.6 375,484.8 367.9,484.9 	"/>
	<polygon class="st5" points="406.6,438.6 410,444.7 402.9,444.8 	"/>
	<polygon class="st5" points="381.5,456.5 384.9,462.6 377.9,462.8 	"/>
	<polygon class="st5" points="397.2,488.2 400.6,494.3 393.5,494.5 	"/>
	<polygon class="st5" points="424.8,479.8 428.3,486 421.2,486.1 	"/>
	<polygon class="st14" points="352.2,497.3 355.6,503.5 348.5,503.6 	"/>
	<polygon class="st5" points="336.5,471.5 340,477.6 332.9,477.8 	"/>
	<polygon class="st5" points="347.9,444 351.3,450.1 344.3,450.2 	"/>
	<polygon class="st5" points="376.1,423.5 379.5,429.6 372.5,429.7 	"/>
	<polygon class="st5" points="434,417.2 437.4,423.4 430.3,423.5 	"/>
	<polygon class="st5" points="408.4,400.6 411.8,406.8 404.8,406.9 	"/>
	<polygon class="st5" points="379.6,393.1 383,399.2 376,399.3 	"/>
	<polygon class="st5" points="434.8,384.6 438.2,390.8 431.2,390.9 	"/>
	<polygon class="st5" points="368.3,370.6 371.7,376.7 364.6,376.9 	"/>
	<polygon class="st5" points="403,369.2 406.5,375.3 399.4,375.4 	"/>
	<polygon class="st5" points="434,364.3 437.4,370.5 430.3,370.6 	"/>
	<polygon class="st5" points="393.8,346 397.3,352.2 390.2,352.3 	"/>
	<polygon class="st5" points="442,339.8 445.5,345.9 438.4,346 	"/>
	<polygon class="st5" points="445.6,300.2 449,306.4 441.9,306.5 	"/>
	<polygon class="st5" points="426.9,323.3 430.3,329.4 423.3,329.5 	"/>
	<g>
		<path class="st7" d="M368.2,715.3L368.2,715.3c-3.8,0-6.9-3.1-6.9-6.9V553.9c0-3.8,3.1-6.9,6.9-6.9l0,0c3.8,0,6.9,3.1,6.9,6.9
			v154.4C375.1,712.2,372,715.3,368.2,715.3z"/>
		<path class="st8" d="M368.2,715.3L368.2,715.3c-3.8,0-6.9-3.1-6.9-6.9V553.9c0-3.8,3.1-6.9,6.9-6.9l0,0"/>
	</g>
	<circle class="st4" cx="368.2" cy="542.4" r="50"/>
	<circle class="st3" cx="379.6" cy="539.6" r="38.5"/>
	<g>
		<path class="st7" d="M411.8,727.7L411.8,727.7c-2.8,0-5.1-2.3-5.1-5.1v-98.9c0-2.8,2.3-5.1,5.1-5.1l0,0c2.8,0,5.1,2.3,5.1,5.1
			v98.9C417,725.4,414.7,727.7,411.8,727.7z"/>
		<path class="st8" d="M411.8,727.7L411.8,727.7c-2.8,0-5.1-2-5.1-4.5V623c0-2.5,2.3-4.5,5.1-4.5l0,0"/>
	</g>
	<ellipse class="st4" cx="411.8" cy="615.5" rx="37" ry="32.4"/>
	<ellipse class="st3" cx="420.3" cy="613.7" rx="28.5" ry="25"/>
	<path class="st6" d="M465.3,766.3H229.6c-15.4,0-28-12.6-28-28v-10.6c0-15.4,12.6-28,28-28h235.7c15.4,0,28,12.6,28,28v10.6
		C493.3,753.7,480.7,766.3,465.3,766.3z"/>
	<path class="st6" d="M1453.7,766.3h208.2c13.8,0,25.1-11.3,25.1-25.1v-16.4c0-13.8-11.3-25.1-25.1-25.1h-208.2
		c-13.8,0-25.1,11.3-25.1,25.1v16.4C1428.6,755,1439.9,766.3,1453.7,766.3z"/>
	<path class="st15" d="M1430.4,1026.1l95-155.9c43.2-71-10.8-159.7-97.3-159.7H507.7c-86.5,0-140.5,88.7-97.3,159.7l95,155.9
		c20.1,32.9,57.1,53.2,97.3,53.2h730.4C1373.3,1079.3,1410.3,1059,1430.4,1026.1z"/>
	<polygon class="st16" points="224.3,773.6 299.7,643.1 375,773.6 	"/>
	<polygon class="st17" points="368.4,773.5 443.8,643 519.1,773.5 	"/>
	<polygon class="st6" points="1376.2,777.2 1451.6,646.7 1526.9,777.2 	"/>
	<polygon class="st16" points="1508.8,776.1 1584.1,645.6 1659.5,776.1 	"/>
	<polygon class="st18" points="1568.7,776.1 1644.1,645.6 1719.4,776.1 	"/>
	<polygon class="st18" points="1448,775.6 1523.4,645.1 1598.7,775.6 	"/>
	<polygon class="st18" points="154.9,773.4 230.3,642.9 305.6,773.4 	"/>
	<polygon class="st18" points="293.7,774 369,643.4 444.4,774 	"/>
	<polygon class="st18" points="1437.5,1007.1 1512.9,876.5 1588.2,1007.1 	"/>
	<polygon class="st18" points="1499.6,899 1575,768.5 1650.4,899 	"/>
	<polygon class="st18" points="1353,1077.1 1428.3,946.6 1503.7,1077.1 	"/>
	<polygon class="st18" points="428.4,816 390.2,749.9 314.9,880.4 428.4,880.4 	"/>
	<polygon class="st18" points="439.2,1079 514.5,948.5 589.9,1079 	"/>
	<polygon class="st18" points="353.4,1000.3 428.8,869.8 504.1,1000.3 	"/>
	<g>
		<path class="st7" d="M420.3,931.2L420.3,931.2c-2.8,0-5.1-2.3-5.1-5.1v-98.9c0-2.8,2.3-5.1,5.1-5.1l0,0c2.8,0,5.1,2.3,5.1,5.1V926
			C425.4,928.9,423.1,931.2,420.3,931.2z"/>
		<path class="st8" d="M420.3,931.2L420.3,931.2c-2.8,0-5.1-2-5.1-4.5V826.4c0-2.5,2.3-4.5,5.1-4.5l0,0"/>
	</g>
	<ellipse class="st4" cx="420.3" cy="818.9" rx="37" ry="32.4"/>
	<ellipse class="st3" cx="428.8" cy="817.2" rx="28.5" ry="25"/>
	<g>
		<path class="st1" d="M1436.7,759.9L1436.7,759.9c-5.3,0-9.6,4.3-9.6,9.6v253.7c0,5.3,4.3,9.6,9.6,9.6l0,0c5.3,0,9.6-4.3,9.6-9.6
			V769.5C1446.3,764.2,1442,759.9,1436.7,759.9z"/>
		<polygon class="st2" points="1435.2,928.8 1438.7,934.9 1431.6,935 		"/>
		<polygon class="st2" points="1440.3,909.1 1443.7,915.3 1436.7,915.4 		"/>
		<polygon class="st2" points="1434.6,893.2 1438,899.3 1430.9,899.5 		"/>
		<polygon class="st2" points="1441.6,874 1445.1,880.1 1438,880.3 		"/>
		<polygon class="st2" points="1433.2,863.4 1436.7,869.6 1429.6,869.7 		"/>
		<polygon class="st2" points="1441.6,846.9 1445.1,853 1438,853.1 		"/>
		<polygon class="st2" points="1431.7,830.6 1435.1,836.8 1428.1,836.9 		"/>
		<polygon class="st2" points="1442.2,826 1445.6,832.2 1438.6,832.3 		"/>
		<polygon class="st2" points="1436.2,1017.9 1439.6,1024 1432.6,1024.1 		"/>
		<polygon class="st2" points="1442.3,997.2 1445.7,1003.4 1438.7,1003.5 		"/>
		<polygon class="st2" points="1431.7,984.8 1435.1,991 1428.1,991.1 		"/>
		<polygon class="st2" points="1441.2,960.6 1444.7,966.8 1437.6,966.9 		"/>
	</g>
	<g>
		<path class="st3" d="M1526.4,827.5h-182.6c-30.3,0-54.9-24.6-54.9-54.9v0c0-30.3,24.6-54.9,54.9-54.9h182.6
			c30.3,0,54.9,24.6,54.9,54.9v0C1581.4,802.9,1556.8,827.5,1526.4,827.5z"/>
		<path class="st3" d="M1494.6,738.1h-118.9c-24.6,0-44.6-20-44.6-44.6v0c0-24.6,20-44.6,44.6-44.6h118.9c24.6,0,44.6,20,44.6,44.6
			v0C1539.2,718.2,1519.2,738.1,1494.6,738.1z"/>
		<path class="st3" d="M1443.8,666.1h-17.4c-17.3,0-31.3-14-31.3-31.3v0c0-17.3,14-31.3,31.3-31.3h17.4c17.3,0,31.3,14,31.3,31.3v0
			C1475.2,652.1,1461.1,666.1,1443.8,666.1z"/>
	</g>
	<g>
		<path class="st4" d="M1436.7,717.6h-92.8c-30.3,0-54.9,24.6-54.9,54.9v0c0,30.3,24.6,54.9,54.9,54.9h92.8V717.6z"/>
		<path class="st4" d="M1436.7,648.9h-61c-24.6,0-44.6,20-44.6,44.6v0c0,24.6,20,44.6,44.6,44.6h61V648.9z"/>
		<path class="st4" d="M1436.7,603.5h-10.2c-17.3,0-31.3,14-31.3,31.3v0c0,17.3,14,31.3,31.3,31.3h10.2V603.5z"/>
	</g>
	<polygon class="st5" points="1354.8,790.2 1358.3,796.3 1351.2,796.4 	"/>
	<polygon class="st5" points="1389.8,750.1 1393.3,756.2 1386.2,756.4 	"/>
	<polygon class="st5" points="1364.7,768 1368.2,774.2 1361.1,774.3 	"/>
	<polygon class="st5" points="1380.4,799.7 1383.9,805.9 1376.8,806 	"/>
	<polygon class="st5" points="1408.1,791.3 1411.5,797.5 1404.5,797.6 	"/>
	<polygon class="st5" points="1335.4,808.9 1338.9,815 1331.8,815.1 	"/>
	<polygon class="st5" points="1319.8,783 1323.2,789.2 1316.2,789.3 	"/>
	<polygon class="st5" points="1331.2,755.5 1334.6,761.7 1327.5,761.8 	"/>
	<polygon class="st5" points="1359.3,735 1362.8,741.2 1355.7,741.3 	"/>
	<polygon class="st5" points="1417.2,728.7 1420.7,734.9 1413.6,735 	"/>
	<polygon class="st5" points="1391.7,712.2 1395.1,718.3 1388,718.4 	"/>
	<polygon class="st5" points="1362.9,704.6 1366.3,710.8 1359.3,710.9 	"/>
	<polygon class="st5" points="1418.1,696.2 1421.5,702.3 1414.4,702.4 	"/>
	<polygon class="st5" points="1351.5,682.1 1355,688.3 1347.9,688.4 	"/>
	<polygon class="st5" points="1386.3,680.7 1389.7,686.8 1382.7,687 	"/>
	<polygon class="st5" points="1417.2,675.9 1420.7,682 1413.6,682.1 	"/>
	<polygon class="st5" points="1377.1,657.6 1380.6,663.7 1373.5,663.8 	"/>
	<polygon class="st5" points="1425.3,651.3 1428.7,657.5 1421.7,657.6 	"/>
	<polygon class="st5" points="1428.8,611.8 1432.3,617.9 1425.2,618 	"/>
	<polygon class="st5" points="1410.2,634.8 1413.6,641 1406.5,641.1 	"/>
	<g>
		<path class="st1" d="M484.8,760.7L484.8,760.7c-5.3,0-9.6,4.3-9.6,9.6v253.7c0,5.3,4.3,9.6,9.6,9.6h0c5.3,0,9.6-4.3,9.6-9.6V770.3
			C494.5,765,490.1,760.7,484.8,760.7z"/>
		<polygon class="st2" points="483.4,929.6 486.8,935.7 479.8,935.8 		"/>
		<polygon class="st2" points="488.5,909.9 491.9,916.1 484.8,916.2 		"/>
		<polygon class="st2" points="482.8,894 486.2,900.1 479.1,900.2 		"/>
		<polygon class="st2" points="489.8,874.8 493.2,880.9 486.2,881.1 		"/>
		<polygon class="st2" points="481.4,864.2 484.8,870.4 477.8,870.5 		"/>
		<polygon class="st2" points="489.8,847.7 493.2,853.8 486.2,853.9 		"/>
		<polygon class="st2" points="479.9,831.4 483.3,837.6 476.3,837.7 		"/>
		<polygon class="st2" points="490.4,826.8 493.8,833 486.7,833.1 		"/>
		<polygon class="st2" points="484.4,1018.7 487.8,1024.8 480.7,1024.9 		"/>
		<polygon class="st2" points="490.5,998 493.9,1004.2 486.8,1004.3 		"/>
		<polygon class="st2" points="479.9,985.6 483.3,991.8 476.3,991.9 		"/>
		<polygon class="st2" points="489.4,961.4 492.8,967.6 485.8,967.7 		"/>
	</g>
	<g>
		<path class="st3" d="M574.6,828.2H392c-30.3,0-54.9-24.6-54.9-54.9v0c0-30.3,24.6-54.9,54.9-54.9h182.6
			c30.3,0,54.9,24.6,54.9,54.9v0C629.5,803.7,604.9,828.2,574.6,828.2z"/>
		<path class="st3" d="M542.8,738.9H423.9c-24.6,0-44.6-20-44.6-44.6v0c0-24.6,20-44.6,44.6-44.6h118.9c24.6,0,44.6,20,44.6,44.6v0
			C587.4,719,567.4,738.9,542.8,738.9z"/>
		<path class="st3" d="M492,666.9h-17.4c-17.3,0-31.3-14-31.3-31.3v0c0-17.3,14-31.3,31.3-31.3H492c17.3,0,31.3,14,31.3,31.3v0
			C523.3,652.9,509.3,666.9,492,666.9z"/>
	</g>
	<g>
		<path class="st4" d="M484.8,718.4H392c-30.3,0-54.9,24.6-54.9,54.9v0c0,30.3,24.6,54.9,54.9,54.9h92.8V718.4z"/>
		<path class="st4" d="M484.8,649.7h-61c-24.6,0-44.6,20-44.6,44.6v0c0,24.6,20,44.6,44.6,44.6h61V649.7z"/>
		<path class="st4" d="M484.8,604.3h-10.2c-17.3,0-31.3,14-31.3,31.3v0c0,17.3,14,31.3,31.3,31.3h10.2V604.3z"/>
	</g>
	<polygon class="st5" points="403,791 406.5,797.1 399.4,797.2 	"/>
	<polygon class="st5" points="438,750.9 441.5,757 434.4,757.2 	"/>
	<polygon class="st5" points="412.9,768.8 416.4,775 409.3,775.1 	"/>
	<polygon class="st5" points="428.6,800.5 432,806.7 425,806.8 	"/>
	<polygon class="st5" points="456.3,792.1 459.7,798.3 452.7,798.4 	"/>
	<polygon class="st5" points="383.6,809.7 387.1,815.8 380,815.9 	"/>
	<polygon class="st5" points="368,783.8 371.4,790 364.4,790.1 	"/>
	<polygon class="st5" points="379.3,756.3 382.8,762.5 375.7,762.6 	"/>
	<polygon class="st5" points="407.5,735.8 411,742 403.9,742.1 	"/>
	<polygon class="st5" points="465.4,729.5 468.8,735.7 461.8,735.8 	"/>
	<polygon class="st5" points="439.9,713 443.3,719.1 436.2,719.2 	"/>
	<polygon class="st5" points="411.1,705.4 414.5,711.6 407.4,711.7 	"/>
	<polygon class="st5" points="466.3,697 469.7,703.1 462.6,703.2 	"/>
	<polygon class="st5" points="399.7,682.9 403.1,689.1 396.1,689.2 	"/>
	<polygon class="st5" points="434.5,681.5 437.9,687.6 430.9,687.7 	"/>
	<polygon class="st5" points="465.4,676.7 468.8,682.8 461.8,682.9 	"/>
	<polygon class="st5" points="425.3,658.4 428.7,664.5 421.7,664.6 	"/>
	<polygon class="st5" points="473.5,652.1 476.9,658.2 469.9,658.4 	"/>
	<polygon class="st5" points="477,612.6 480.5,618.7 473.4,618.8 	"/>
	<polygon class="st5" points="458.4,635.6 461.8,641.8 454.7,641.9 	"/>
	<g>
		<path class="st7" d="M1507.7,933.9L1507.7,933.9c-2.8,0-5.1-2.3-5.1-5.1v-98.9c0-2.8,2.3-5.1,5.1-5.1l0,0c2.8,0,5.1,2.3,5.1,5.1
			v98.9C1512.9,931.6,1510.6,933.9,1507.7,933.9z"/>
		<path class="st8" d="M1507.7,933.9L1507.7,933.9c-2.8,0-5.1-2-5.1-4.5V829.2c0-2.5,2.3-4.5,5.1-4.5l0,0"/>
	</g>
	<ellipse class="st4" cx="1507.7" cy="821.7" rx="37" ry="32.4"/>
	<ellipse class="st3" cx="1516.2" cy="819.9" rx="28.5" ry="25"/>
</g>
<g id="Calque_3">
	<g>
		<path class="st19" d="M1473.1,967.6L1473.1,967.6c-1.3,0-2.4-1.1-2.4-2.4V860c0-1.3,1.1-2.4,2.4-2.4l0,0c1.3,0,2.4,1.1,2.4,2.4
			v105.2C1475.5,966.5,1474.4,967.6,1473.1,967.6z"/>
		<path class="st20" d="M1473.1,857.7L1473.1,857.7c1.3,0,2.4,1.1,2.4,2.4v105.2c0,1.3-1.1,2.4-2.4,2.4l0,0"/>
	</g>
	<g>
		<path class="st19" d="M1482.1,973.2L1482.1,973.2c-1.3,0-2.4-1.1-2.4-2.4V828c0-1.3,1.1-2.4,2.4-2.4l0,0c1.3,0,2.4,1.1,2.4,2.4
			v142.8C1484.5,972.2,1483.4,973.2,1482.1,973.2z"/>
		<path class="st20" d="M1482.1,825.7L1482.1,825.7c1.3,0,2.4,1.4,2.4,3.2v141.2c0,1.8-1.1,3.2-2.4,3.2l0,0"/>
	</g>
	<g>
		<path class="st19" d="M1491.1,963.2L1491.1,963.2c-1.3,0-2.4-1.1-2.4-2.4V855.6c0-1.3,1.1-2.4,2.4-2.4l0,0c1.3,0,2.4,1.1,2.4,2.4
			v105.2C1493.5,962.1,1492.4,963.2,1491.1,963.2z"/>
		<path class="st20" d="M1491.1,853.2L1491.1,853.2c1.3,0,2.4,1.1,2.4,2.4v105.2c0,1.3-1.1,2.4-2.4,2.4l0,0"/>
	</g>
	<g>
		<path class="st19" d="M525.7,1056.9L525.7,1056.9c-1.3,0-2.4-1.1-2.4-2.4V949.3c0-1.3,1.1-2.4,2.4-2.4l0,0c1.3,0,2.4,1.1,2.4,2.4
			v105.2C528.1,1055.8,527,1056.9,525.7,1056.9z"/>
		<path class="st20" d="M525.7,947L525.7,947c1.3,0,2.4,1.1,2.4,2.4v105.2c0,1.3-1.1,2.4-2.4,2.4l0,0"/>
	</g>
	<g>
		<path class="st19" d="M534.7,1062.5L534.7,1062.5c-1.3,0-2.4-1.1-2.4-2.4V917.3c0-1.3,1.1-2.4,2.4-2.4l0,0c1.3,0,2.4,1.1,2.4,2.4
			v142.8C537.1,1061.5,536,1062.5,534.7,1062.5z"/>
		<path class="st20" d="M534.7,915L534.7,915c1.3,0,2.4,1.4,2.4,3.2v141.2c0,1.8-1.1,3.2-2.4,3.2l0,0"/>
	</g>
	<g>
		<path class="st19" d="M543.7,1052.5L543.7,1052.5c-1.3,0-2.4-1.1-2.4-2.4V944.9c0-1.3,1.1-2.4,2.4-2.4l0,0c1.3,0,2.4,1.1,2.4,2.4
			v105.2C546.1,1051.4,545,1052.5,543.7,1052.5z"/>
		<path class="st20" d="M543.7,942.5L543.7,942.5c1.3,0,2.4,1.1,2.4,2.4v105.2c0,1.3-1.1,2.4-2.4,2.4l0,0"/>
	</g>
	<g>
		<path class="st19" d="M440.3,951.7L440.3,951.7c-1.3,0-2.4-1.1-2.4-2.4V844.1c0-1.3,1.1-2.4,2.4-2.4h0c1.3,0,2.4,1.1,2.4,2.4
			v105.2C442.7,950.6,441.6,951.7,440.3,951.7z"/>
		<path class="st20" d="M440.3,841.8L440.3,841.8c1.3,0,2.4,1.1,2.4,2.4v105.2c0,1.3-1.1,2.4-2.4,2.4h0"/>
	</g>
	<g>
		<path class="st19" d="M449.3,977.5L449.3,977.5c-1.3,0-2.4-1.1-2.4-2.4V832.3c0-1.3,1.1-2.4,2.4-2.4h0c1.3,0,2.4,1.1,2.4,2.4
			v142.8C451.7,976.5,450.6,977.5,449.3,977.5z"/>
		<path class="st20" d="M449.3,830L449.3,830c1.3,0,2.4,1.4,2.4,3.2v141.2c0,1.8-1.1,3.2-2.4,3.2h0"/>
	</g>
	<g>
		<path class="st19" d="M458.3,967.4L458.3,967.4c-1.3,0-2.4-1.1-2.4-2.4V859.9c0-1.3,1.1-2.4,2.4-2.4h0c1.3,0,2.4,1.1,2.4,2.4
			v105.2C460.7,966.4,459.6,967.4,458.3,967.4z"/>
		<path class="st20" d="M458.3,857.5L458.3,857.5c1.3,0,2.4,1.1,2.4,2.4v105.2c0,1.3-1.1,2.4-2.4,2.4h0"/>
	</g>
	<g>
		<path class="st19" d="M1397.5,1028.8L1397.5,1028.8c-1.3,0-2.4-1.1-2.4-2.4V921.2c0-1.3,1.1-2.4,2.4-2.4l0,0
			c1.3,0,2.4,1.1,2.4,2.4v105.2C1399.9,1027.7,1398.9,1028.8,1397.5,1028.8z"/>
		<path class="st20" d="M1397.5,918.8L1397.5,918.8c1.3,0,2.4,1.1,2.4,2.4v105.2c0,1.3-1.1,2.4-2.4,2.4l0,0"/>
	</g>
	<g>
		<path class="st19" d="M1406.5,1034.4L1406.5,1034.4c-1.3,0-2.4-1.1-2.4-2.4V889.2c0-1.3,1.1-2.4,2.4-2.4l0,0
			c1.3,0,2.4,1.1,2.4,2.4v142.8C1408.9,1033.4,1407.9,1034.4,1406.5,1034.4z"/>
		<path class="st20" d="M1406.5,886.8L1406.5,886.8c1.3,0,2.4,1.4,2.4,3.2v141.2c0,1.8-1.1,3.2-2.4,3.2l0,0"/>
	</g>
	<g>
		<path class="st19" d="M1415.5,1024.3L1415.5,1024.3c-1.3,0-2.4-1.1-2.4-2.4V916.8c0-1.3,1.1-2.4,2.4-2.4l0,0
			c1.3,0,2.4,1.1,2.4,2.4V1022C1417.9,1023.3,1416.9,1024.3,1415.5,1024.3z"/>
		<path class="st20" d="M1415.5,914.4L1415.5,914.4c1.3,0,2.4,1.1,2.4,2.4V1022c0,1.3-1.1,2.4-2.4,2.4l0,0"/>
	</g>
</g>
</svg>
