<?xml version="1.0" encoding="utf-8"?>
<!-- Generator: Adobe Illustrator 19.2.1, SVG Export Plug-In . SVG Version: 6.00 Build 0)  -->
<svg version="1.1" xmlns="http://www.w3.org/2000/svg" xmlns:xlink="http://www.w3.org/1999/xlink" x="0px" y="0px"
	 viewBox="0 0 1920 1080" style="enable-background:new 0 0 1920 1080;" xml:space="preserve">
<style type="text/css">
	.st0{fill:#E5D9ED;}
	.st1{fill:#994E05;}
	.st2{fill:#7C3A09;}
	.st3{fill:#A691B5;}
	.st4{fill:#9774AD;}
	.st5{fill:#7E6093;}
	.st6{fill:#5F6C70;}
	.st7{fill:#6F7E84;}
	.st8{fill:#959A9B;}
	.st9{fill:#6B6D6D;}
	.st10{fill:#838C8E;}
	.st11{fill:#404A68;}
	.st12{fill:#535E7A;}
	.st13{fill:#697591;}
	.st14{fill:#804104;}
	.st15{fill:#A35305;}
	.st16{fill:#A35305;stroke:#A35305;stroke-width:3;stroke-linecap:round;stroke-linejoin:round;stroke-miterlimit:10;}
	.st17{fill:#8E7B82;}
	.st18{fill:#736369;}
	.st19{fill:#DBBF46;}
	.st20{fill:#A3A7A8;}
</style>
<g id="Calque_1">
	<path class="st0" d="M1908,1080H12c-6.6,0-12-5.4-12-12V12C0,5.4,5.4,0,12,0h1896c6.6,0,12,5.4,12,12v1056
		C1920,1074.6,1914.6,1080,1908,1080z"/>
</g>
<g id="Calque_5">
	<g>
		<g>
			<path class="st1" d="M698.5,807.2L698.5,807.2c-3.9,0-7,3.1-7,7v193c0,3.9,3.1,7,7,7l0,0c3.9,0,7-3.1,7-7v-193
				C705.4,810.4,702.3,807.2,698.5,807.2z"/>
			<polygon class="st2" points="697.4,935.3 699.9,940 694.8,940.1 			"/>
			<polygon class="st2" points="701.1,920.4 703.6,925.1 698.5,925.2 			"/>
			<polygon class="st2" points="697,908.3 699.4,913 694.3,913.1 			"/>
			<polygon class="st2" points="702.1,893.8 704.6,898.4 699.4,898.5 			"/>
			<polygon class="st2" points="696,885.8 698.5,890.4 693.4,890.5 			"/>
			<polygon class="st2" points="702.1,873.2 704.6,877.9 699.4,878 			"/>
			<polygon class="st2" points="694.9,860.9 697.4,865.6 692.2,865.6 			"/>
			<polygon class="st2" points="702.5,857.4 705,862.1 699.8,862.2 			"/>
			<polygon class="st2" points="698.1,1002.9 700.6,1007.6 695.5,1007.6 			"/>
			<polygon class="st2" points="702.5,987.2 705,991.9 699.9,992 			"/>
			<polygon class="st2" points="694.9,977.8 697.4,982.5 692.2,982.6 			"/>
			<polygon class="st2" points="701.8,959.5 704.3,964.2 699.2,964.2 			"/>
		</g>
		<g>
			<path class="st3" d="M761.7,858.5H633c-23,0-41.6-18.6-41.6-41.6v0c0-23,18.6-41.6,41.6-41.6h128.7c23,0,41.6,18.6,41.6,41.6v0
				C803.3,839.8,784.7,858.5,761.7,858.5z"/>
			<path class="st3" d="M738.9,790.8h-83.2c-18.7,0-33.8-15.1-33.8-33.8v0c0-18.7,15.1-33.8,33.8-33.8h83.2
				c18.7,0,33.8,15.1,33.8,33.8v0C772.8,775.6,757.6,790.8,738.9,790.8z"/>
			<path class="st3" d="M702.6,736.1h-10.5c-13.1,0-23.8-10.6-23.8-23.8l0,0c0-13.1,10.6-23.8,23.8-23.8h10.5
				c13.1,0,23.8,10.6,23.8,23.8l0,0C726.4,725.5,715.7,736.1,702.6,736.1z"/>
		</g>
		<g>
			<path class="st4" d="M698.5,775.2h-67.3c-22,0-39.8,18.6-39.8,41.6v0c0,23,17.8,41.6,39.8,41.6h67.3V775.2z"/>
			<path class="st4" d="M698.5,723.1h-44.2c-17.9,0-32.3,15.1-32.3,33.8l0,0c0,18.7,14.5,33.8,32.3,33.8h44.2V723.1z"/>
			<path class="st4" d="M698.5,688.6h-7.4c-12.5,0-22.7,10.6-22.7,23.8v0c0,13.1,10.2,23.8,22.7,23.8h7.4V688.6z"/>
		</g>
		<polygon class="st5" points="639.2,830.2 641.7,834.9 636.5,835 		"/>
		<polygon class="st5" points="664.5,799.8 667,804.5 661.9,804.6 		"/>
		<polygon class="st5" points="646.4,813.4 648.8,818.1 643.7,818.2 		"/>
		<polygon class="st5" points="657.7,837.5 660.2,842.1 655.1,842.2 		"/>
		<polygon class="st5" points="677.8,831.1 680.3,835.8 675.1,835.8 		"/>
		<polygon class="st5" points="625.1,844.4 627.6,849.1 622.5,849.1 		"/>
		<polygon class="st5" points="613.8,824.8 616.3,829.5 611.2,829.5 		"/>
		<polygon class="st5" points="622,803.9 624.5,808.6 619.4,808.7 		"/>
		<polygon class="st5" points="642.4,788.4 644.9,793 639.8,793.1 		"/>
		<polygon class="st5" points="684.4,783.6 686.9,788.3 681.8,788.4 		"/>
		<polygon class="st5" points="665.9,771.1 668.4,775.7 663.2,775.8 		"/>
		<polygon class="st5" points="645,765.3 647.5,770 642.4,770.1 		"/>
		<polygon class="st5" points="685,758.9 687.5,763.6 682.4,763.7 		"/>
		<polygon class="st5" points="636.8,748.3 639.3,752.9 634.1,753 		"/>
		<polygon class="st5" points="662,747.2 664.5,751.8 659.4,751.9 		"/>
		<polygon class="st5" points="684.4,743.5 686.9,748.2 681.8,748.3 		"/>
		<polygon class="st5" points="655.3,729.6 657.8,734.3 652.7,734.4 		"/>
		<polygon class="st5" points="690.2,724.9 692.7,729.6 687.6,729.6 		"/>
		<polygon class="st5" points="692.8,694.9 695.3,699.6 690.2,699.7 		"/>
		<polygon class="st5" points="679.3,712.4 681.8,717 676.6,717.1 		"/>
	</g>
	<g>
		<g>
			<path class="st1" d="M1584.2,778.2L1584.2,778.2c-4.3,0-7.8,3.5-7.8,7.8v184.7c0,4.3,3.5,7.8,7.8,7.8l0,0c4.3,0,7.8-3.5,7.8-7.8
				V786.1C1592.1,781.7,1588.6,778.2,1584.2,778.2z"/>
			<polygon class="st2" points="1583.1,902.2 1585.9,906.7 1580.1,906.8 			"/>
			<polygon class="st2" points="1587.2,887.8 1590,892.3 1584.2,892.4 			"/>
			<polygon class="st2" points="1582.6,876.1 1585.3,880.6 1579.6,880.7 			"/>
			<polygon class="st2" points="1588.3,862 1591.1,866.5 1585.3,866.6 			"/>
			<polygon class="st2" points="1581.5,854.3 1584.2,858.8 1578.5,858.9 			"/>
			<polygon class="st2" points="1588.3,842.1 1591.1,846.6 1585.3,846.7 			"/>
			<polygon class="st2" points="1580.2,830.2 1583,834.7 1577.3,834.8 			"/>
			<polygon class="st2" points="1588.7,826.8 1591.5,831.3 1585.8,831.4 			"/>
			<polygon class="st2" points="1583.9,967.6 1586.6,972.2 1580.9,972.2 			"/>
			<polygon class="st2" points="1588.8,952.5 1591.6,957 1585.9,957.1 			"/>
			<polygon class="st2" points="1580.2,943.4 1583,947.9 1577.3,948 			"/>
			<polygon class="st2" points="1588,925.6 1590.8,930.1 1585,930.2 			"/>
		</g>
		<g>
			<path class="st3" d="M1661.5,827.9h-156.9c-22.3,0-40.3-18-40.3-40.3v0c0-22.3,18-40.3,40.3-40.3h156.9c22.3,0,40.3,18,40.3,40.3
				v0C1701.8,809.8,1683.7,827.9,1661.5,827.9z"/>
			<path class="st3" d="M1634.8,762.3h-103.5c-18.1,0-32.8-14.7-32.8-32.8v0c0-18.1,14.7-32.8,32.8-32.8h103.5
				c18.1,0,32.8,14.7,32.8,32.8v0C1667.5,747.6,1652.9,762.3,1634.8,762.3z"/>
			<path class="st3" d="M1592.5,709.4h-19c-12.7,0-23-10.3-23-23v0c0-12.7,10.3-23,23-23h19c12.7,0,23,10.3,23,23v0
				C1615.5,699.1,1605.2,709.4,1592.5,709.4z"/>
		</g>
		<g>
			<path class="st4" d="M1584.2,747.2h-75.4c-24.6,0-44.6,18-44.6,40.3v0c0,22.3,20,40.3,44.6,40.3h75.4V747.2z"/>
			<path class="st4" d="M1584.2,696.8h-49.5c-20,0-36.2,14.7-36.2,32.8v0c0,18.1,16.2,32.8,36.2,32.8h49.5V696.8z"/>
			<path class="st4" d="M1584.2,663.4h-8.3c-14.1,0-25.4,10.3-25.4,23v0c0,12.7,11.4,23,25.4,23h8.3V663.4z"/>
		</g>
		<polygon class="st5" points="1517.8,800.5 1520.6,805 1514.9,805.1 		"/>
		<polygon class="st5" points="1546.2,771.1 1549,775.6 1543.3,775.7 		"/>
		<polygon class="st5" points="1525.8,784.2 1528.6,788.8 1522.9,788.8 		"/>
		<polygon class="st5" points="1538.6,807.5 1541.4,812 1535.6,812.1 		"/>
		<polygon class="st5" points="1561.1,801.3 1563.8,805.9 1558.1,805.9 		"/>
		<polygon class="st5" points="1502,814.2 1504.8,818.7 1499.1,818.8 		"/>
		<polygon class="st5" points="1489.3,795.2 1492.1,799.8 1486.4,799.8 		"/>
		<polygon class="st5" points="1498.6,775 1501.3,779.6 1495.6,779.6 		"/>
		<polygon class="st5" points="1521.5,760 1524.2,764.5 1518.5,764.6 		"/>
		<polygon class="st5" points="1568.5,755.4 1571.3,759.9 1565.5,760 		"/>
		<polygon class="st5" points="1547.7,743.2 1550.5,747.7 1544.8,747.8 		"/>
		<polygon class="st5" points="1524.3,737.7 1527.1,742.2 1521.4,742.3 		"/>
		<polygon class="st5" points="1569.2,731.5 1571.9,736 1566.2,736.1 		"/>
		<polygon class="st5" points="1515.1,721.2 1517.9,725.7 1512.2,725.8 		"/>
		<polygon class="st5" points="1543.4,720.1 1546.1,724.6 1540.4,724.7 		"/>
		<polygon class="st5" points="1568.5,716.6 1571.3,721.1 1565.5,721.2 		"/>
		<polygon class="st5" points="1535.9,703.1 1538.7,707.7 1532.9,707.7 		"/>
		<polygon class="st5" points="1575,698.5 1577.8,703.1 1572.1,703.1 		"/>
		<polygon class="st5" points="1577.9,669.5 1580.7,674.1 1575,674.1 		"/>
		<polygon class="st5" points="1562.7,686.4 1565.5,691 1559.8,691 		"/>
	</g>
</g>
<g id="Calque_3">
	<path class="st6" d="M987.1,992.9L987.1,992.9c-94,0-170.1-76.2-170.1-170.1V339.5c0-94,76.2-170.1,170.1-170.1h0
		c94,0,170.1,76.2,170.1,170.1v483.3C1157.2,916.7,1081,992.9,987.1,992.9z"/>
	<path class="st7" d="M987.1,168.3c94,0,170.1,76.2,170.1,170.1v483.3c0,94-76.2,170.1-170.1,170.1"/>
	<path class="st8" d="M1010.2,931.6H964c-7.8,0-14-6.3-14-14V834c0-7.8,6.3-14,14-14h46.2c7.8,0,14,6.3,14,14v83.6
		C1024.2,925.3,1017.9,931.6,1010.2,931.6z"/>
	<path class="st9" d="M1001.1,932.1h-28c-7.8,0-14-6.3-14-14v-59.8c0-7.8,6.3-14,14-14h28c7.8,0,14,6.3,14,14v59.8
		C1015.1,925.8,1008.8,932.1,1001.1,932.1z"/>
	<rect x="1012.2" y="528.5" class="st10" width="20.2" height="11.5"/>
	<rect x="1045.7" y="505.3" class="st10" width="20.2" height="11.5"/>
	<rect x="1065.9" y="555.9" class="st10" width="20.2" height="11.5"/>
	<rect x="1099.1" y="505.3" class="st10" width="20.2" height="11.5"/>
	<rect x="1003.4" y="467.3" class="st10" width="20.2" height="11.5"/>
	<rect x="1061.2" y="467.3" class="st10" width="20.2" height="11.5"/>
	<rect x="1123.2" y="454.5" class="st10" width="20.2" height="11.5"/>
	<rect x="1031.2" y="434.4" class="st10" width="20.2" height="11.5"/>
	<rect x="1087.5" y="421.5" class="st10" width="20.2" height="11.5"/>
	<rect x="1129.2" y="390.6" class="st10" width="20.2" height="11.5"/>
	<rect x="994.5" y="410.5" class="st10" width="20.2" height="11.5"/>
	<rect x="1042.7" y="393.5" class="st10" width="20.2" height="11.5"/>
	<rect x="998.7" y="357.5" class="st10" width="20.2" height="11.5"/>
	<rect x="1087.5" y="357.5" class="st10" width="20.2" height="11.5"/>
	<rect x="1012.2" y="584.8" class="st10" width="20.2" height="11.5"/>
	<rect x="1119.3" y="548.3" class="st10" width="20.2" height="11.5"/>
	<rect x="1076" y="602.2" class="st10" width="20.2" height="11.5"/>
	<rect x="1014.9" y="621.3" class="st10" width="20.2" height="11.5"/>
	<rect x="1125.7" y="648.5" class="st10" width="20.2" height="11.5"/>
	<rect x="1074.8" y="645.6" class="st10" width="20.2" height="11.5"/>
	<rect x="1012.2" y="674" class="st10" width="20.2" height="11.5"/>
	<rect x="1072.1" y="691.2" class="st10" width="20.2" height="11.5"/>
	<rect x="1125.7" y="706.4" class="st10" width="20.2" height="11.5"/>
	<rect x="1014.9" y="725.9" class="st10" width="20.2" height="11.5"/>
	<rect x="1065.9" y="751.2" class="st10" width="20.2" height="11.5"/>
	<rect x="1118" y="751.2" class="st10" width="20.2" height="11.5"/>
	<rect x="1036.2" y="782.5" class="st10" width="20.2" height="11.5"/>
	<rect x="1093.2" y="785.5" class="st10" width="20.2" height="11.5"/>
	<rect x="1100.2" y="828.5" class="st10" width="20.2" height="11.5"/>
	<rect x="1045.2" y="836.5" class="st10" width="20.2" height="11.5"/>
	<rect x="1072.2" y="876.5" class="st10" width="20.2" height="11.5"/>
	<rect x="1070.2" y="909.5" class="st10" width="20.2" height="11.5"/>
	<rect x="1024.2" y="920.1" class="st10" width="20.2" height="11.5"/>
	<g>
		<path class="st11" d="M1149.7,321.5H821.3c-36.3,0-65.7-29.4-65.7-65.7v0c0-36.3,29.4-65.7,65.7-65.7h328.4
			c36.3,0,65.7,29.4,65.7,65.7v0C1215.4,292,1186,321.5,1149.7,321.5z"/>
		<path class="st12" d="M1107.5,218.5H866.6c-23.2,0-41.9-18.8-41.9-41.9v0c0-23.2,18.8-41.9,41.9-41.9h240.9
			c23.2,0,41.9,18.8,41.9,41.9v0C1149.4,199.7,1130.6,218.5,1107.5,218.5z"/>
		<path class="st13" d="M1000.8,29.5l86,75.9c14.3,12.6,5.4,36.2-13.7,36.2H901.1c-19.1,0-28-23.6-13.7-36.2l86-75.9
			C981.2,22.6,992.9,22.6,1000.8,29.5z"/>
	</g>
	<g>
		<path class="st14" d="M1373.3,950.3L1373.3,950.3c-5.4,0-9.8-4.4-9.8-9.8V313.7c0-5.4,4.4-9.8,9.8-9.8l0,0c5.4,0,9.8,4.4,9.8,9.8
			v626.8C1383.2,945.9,1378.7,950.3,1373.3,950.3z"/>
		<path class="st15" d="M1373.3,303.9c5.4,0,9.8,6.7,9.8,15v616.4c0,8.3-4.4,15-9.8,15"/>
	</g>
	<path class="st3" d="M1423.5,337h-100.4c-10.2,0-18.6-8.4-18.6-18.6v-14.2c0-10.2,8.4-18.6,18.6-18.6h100.4
		c10.2,0,18.6,8.4,18.6,18.6v14.2C1442.1,328.7,1433.8,337,1423.5,337z"/>
	<path class="st4" d="M1442.1,311.3v5.3c0,11.2-8.4,20.4-18.6,20.4h-100.4c-10.2,0-18.6-9.2-18.6-20.4v-5.3"/>
	<g>
		<path class="st3" d="M1224.9,382c0-24.8,18.5-45,41.1-45h214.6c22.6,0,41.1,20.3,41.1,45v0c0,24.8-18.5,45-41.1,45H1266
			C1243.4,427,1224.9,406.8,1224.9,382L1224.9,382"/>
		<path class="st4" d="M1521.7,382L1521.7,382c0,24.8-18.5,45-41.1,45H1266c-22.6,0-41.1-20.3-41.1-45v0"/>
	</g>
	<g>
		<path class="st3" d="M1532,567.2h-88.3c-8.9,0-16.1-7.2-16.1-16.1v-3.1c0-8.9,7.2-16.1,16.1-16.1h88.3c8.9,0,16.1,7.2,16.1,16.1
			v3.1C1548.1,560,1540.9,567.2,1532,567.2z"/>
		<path class="st4" d="M1548.1,549.6v3.6c0,7.7-7.3,14-16.3,14h-87.9c-9,0-16.3-6.3-16.3-14v-3.6"/>
	</g>
	<path class="st16" d="M1379.5,589.7h99c8.3,0,15-7.4,15-16.4v-17.5c0-2.4-1.8-4.4-4-4.4h-2c-2.2,0-4,2-4,4.4v16.4
		c0,4.8-3.6,8.8-8,8.8h-96c-2.2,0-4,2-4,4.4l0,0C1375.5,587.8,1377.3,589.7,1379.5,589.7z"/>
	<g>
		<path class="st3" d="M1506,678.9h-65.6c-6.5,0-11.8-5.3-11.8-11.8v-2.3c0-6.5,5.3-11.8,11.8-11.8h65.6c6.5,0,11.8,5.3,11.8,11.8
			v2.3C1517.8,673.6,1512.5,678.9,1506,678.9z"/>
		<path class="st4" d="M1517.8,665.9v2.7c0,5.6-5.4,10.3-12.1,10.3h-65.1c-6.6,0-12.1-4.6-12.1-10.3v-2.7"/>
	</g>
	<path class="st16" d="M1381.4,701.1h83.3c7,0,12.6-6.3,12.6-14.1v-15.1c0-2.1-1.5-3.8-3.4-3.8h-1.7c-1.9,0-3.4,1.7-3.4,3.8V686
		c0,4.1-3,7.5-6.7,7.5h-80.7c-1.9,0-3.4,1.7-3.4,3.8l0,0C1378,699.4,1379.5,701.1,1381.4,701.1z"/>
	<g>
		<path class="st3" d="M1320,510.8h-88.3c-8.9,0-16.1-7.2-16.1-16.1v-3.1c0-8.9,7.2-16.1,16.1-16.1h88.3c8.9,0,16.1,7.2,16.1,16.1
			v3.1C1336.1,503.6,1328.9,510.8,1320,510.8z"/>
		<path class="st4" d="M1336.1,493.2v3.6c0,7.7-7.3,14-16.3,14h-87.9c-9,0-16.3-6.3-16.3-14v-3.6"/>
	</g>
	<path class="st14" d="M1367,531.5h-83.3c-7,0-12.6-6.3-12.6-14.1v-15.1c0-2.1,1.5-3.8,3.4-3.8h1.7c1.9,0,3.4,1.7,3.4,3.8v14.1
		c0,4.1,3,7.5,6.7,7.5h80.7c1.9,0,3.4,1.7,3.4,3.8l0,0C1370.4,529.8,1368.9,531.5,1367,531.5z"/>
	<g>
		<path class="st14" d="M740.2,939.8L740.2,939.8c-5.4,0-9.8-4.4-9.8-9.8V303.2c0-5.4,4.4-9.8,9.8-9.8l0,0c5.4,0,9.8,4.4,9.8,9.8
			V930C750.1,935.4,745.7,939.8,740.2,939.8z"/>
		<path class="st15" d="M740.2,293.4c5.4,0,9.8,6.7,9.8,15v616.4c0,8.3-4.4,15-9.8,15"/>
	</g>
	<path class="st3" d="M790.4,326.5H690c-10.2,0-18.6-8.4-18.6-18.6v-14.2c0-10.2,8.4-18.6,18.6-18.6h100.4
		c10.2,0,18.6,8.4,18.6,18.6v14.2C809,318.1,800.7,326.5,790.4,326.5z"/>
	<path class="st4" d="M809,300.8v5.3c0,11.2-8.4,20.4-18.6,20.4H690c-10.2,0-18.6-9.2-18.6-20.4v-5.3"/>
	<g>
		<path class="st3" d="M591.8,371.5c0-24.8,18.5-45,41.1-45h214.6c22.6,0,41.1,20.3,41.1,45v0c0,24.8-18.5,45-41.1,45H632.9
			C610.3,416.5,591.8,396.3,591.8,371.5L591.8,371.5"/>
		<path class="st4" d="M888.6,371.5L888.6,371.5c0,24.8-18.5,45-41.1,45H632.9c-22.6,0-41.1-20.3-41.1-45v0"/>
	</g>
	<g>
		<path class="st3" d="M898.9,556.7h-88.3c-8.9,0-16.1-7.2-16.1-16.1v-3.1c0-8.9,7.2-16.1,16.1-16.1h88.3c8.9,0,16.1,7.2,16.1,16.1
			v3.1C915,549.5,907.8,556.7,898.9,556.7z"/>
		<path class="st4" d="M915,539.1v3.6c0,7.7-7.3,14-16.3,14h-87.9c-9,0-16.3-6.3-16.3-14v-3.6"/>
	</g>
	<path class="st16" d="M746.4,579.2h99c8.3,0,15-7.4,15-16.4v-17.5c0-2.4-1.8-4.4-4-4.4h-2c-2.2,0-4,2-4,4.4v16.4
		c0,4.8-3.6,8.8-8,8.8h-96c-2.2,0-4,2-4,4.4l0,0C742.4,577.3,744.2,579.2,746.4,579.2z"/>
	<g>
		<path class="st3" d="M872.9,668.4h-65.6c-6.5,0-11.8-5.3-11.8-11.8v-2.3c0-6.5,5.3-11.8,11.8-11.8h65.6c6.5,0,11.8,5.3,11.8,11.8
			v2.3C884.7,663,879.4,668.4,872.9,668.4z"/>
		<path class="st4" d="M884.7,655.4v2.7c0,5.6-5.4,10.3-12.1,10.3h-65.1c-6.6,0-12.1-4.6-12.1-10.3v-2.7"/>
	</g>
	<path class="st16" d="M748.3,690.6h83.3c7,0,12.6-6.3,12.6-14.1v-15.1c0-2.1-1.5-3.8-3.4-3.8h-1.7c-1.9,0-3.4,1.7-3.4,3.8v14.1
		c0,4.1-3,7.5-6.7,7.5h-80.7c-1.9,0-3.4,1.7-3.4,3.8l0,0C744.9,688.9,746.4,690.6,748.3,690.6z"/>
	<g>
		<path class="st3" d="M687,500.3h-88.3c-8.9,0-16.1-7.2-16.1-16.1v-3.1c0-8.9,7.2-16.1,16.1-16.1H687c8.9,0,16.1,7.2,16.1,16.1v3.1
			C703.1,493,695.8,500.3,687,500.3z"/>
		<path class="st4" d="M703.1,482.7v3.6c0,7.7-7.3,14-16.3,14h-87.9c-9,0-16.3-6.3-16.3-14v-3.6"/>
	</g>
	<path class="st14" d="M733.9,521h-83.3c-7,0-12.6-6.3-12.6-14.1v-15.1c0-2.1,1.5-3.8,3.4-3.8h1.7c1.9,0,3.4,1.7,3.4,3.8v14.1
		c0,4.1,3,7.5,6.7,7.5h80.7c1.9,0,3.4,1.7,3.4,3.8l0,0C737.3,519.3,735.8,521,733.9,521z"/>
	<g>
		<path class="st17" d="M1235.6,933.2L1235.6,933.2c-2.8,0-5.1-2.3-5.1-5.1v-98.9c0-2.8,2.3-5.1,5.1-5.1l0,0c2.8,0,5.1,2.3,5.1,5.1
			v98.9C1240.7,930.9,1238.4,933.2,1235.6,933.2z"/>
		<path class="st18" d="M1235.6,933.2L1235.6,933.2c-2.8,0-5.1-2-5.1-4.5V828.5c0-2.5,2.3-4.5,5.1-4.5l0,0"/>
	</g>
	<ellipse class="st4" cx="1235.6" cy="821" rx="37" ry="32.4"/>
	<ellipse class="st3" cx="1244.1" cy="819.2" rx="28.5" ry="25"/>
	<g>
		<path class="st17" d="M1442.1,979.1L1442.1,979.1c-2.8,0-5.1-2.3-5.1-5.1v-98.9c0-2.8,2.3-5.1,5.1-5.1l0,0c2.8,0,5.1,2.3,5.1,5.1
			V974C1447.3,976.8,1445,979.1,1442.1,979.1z"/>
		<path class="st18" d="M1442.1,979.1L1442.1,979.1c-2.8,0-5.1-2-5.1-4.5V874.4c0-2.5,2.3-4.5,5.1-4.5l0,0"/>
	</g>
	<ellipse class="st4" cx="1442.1" cy="866.9" rx="37" ry="32.4"/>
	<ellipse class="st3" cx="1450.6" cy="865.1" rx="28.5" ry="25"/>
	<g>
		<path class="st17" d="M549.7,976.8L549.7,976.8c-2.8,0-5.1-2.3-5.1-5.1v-98.9c0-2.8,2.3-5.1,5.1-5.1h0c2.8,0,5.1,2.3,5.1,5.1v98.9
			C554.8,974.5,552.5,976.8,549.7,976.8z"/>
		<path class="st18" d="M549.7,976.8L549.7,976.8c-2.8,0-5.1-2-5.1-4.5V872.1c0-2.5,2.3-4.5,5.1-4.5h0"/>
	</g>
	<ellipse class="st4" cx="549.7" cy="864.6" rx="37" ry="32.4"/>
	<ellipse class="st3" cx="558.2" cy="862.8" rx="28.5" ry="25"/>
	<g>
		<path class="st17" d="M472.9,939.9L472.9,939.9c-2.8,0-5.1-2.3-5.1-5.1v-98.9c0-2.8,2.3-5.1,5.1-5.1l0,0c2.8,0,5.1,2.3,5.1,5.1
			v98.9C478,937.6,475.7,939.9,472.9,939.9z"/>
		<path class="st18" d="M472.9,939.9L472.9,939.9c-2.8,0-5.1-2-5.1-4.5V835.2c0-2.5,2.3-4.5,5.1-4.5l0,0"/>
	</g>
	<ellipse class="st4" cx="472.9" cy="827.7" rx="37" ry="32.4"/>
	<ellipse class="st3" cx="481.3" cy="825.9" rx="28.5" ry="25"/>
	<g>
		<path class="st17" d="M1070.7,993.9L1070.7,993.9c-2.8,0-5.1-2.3-5.1-5.1v-98.9c0-2.8,2.3-5.1,5.1-5.1l0,0c2.8,0,5.1,2.3,5.1,5.1
			v98.9C1075.9,991.6,1073.6,993.9,1070.7,993.9z"/>
		<path class="st18" d="M1070.7,993.9L1070.7,993.9c-2.8,0-5.1-2-5.1-4.5V889.2c0-2.5,2.3-4.5,5.1-4.5l0,0"/>
	</g>
	<ellipse class="st4" cx="1070.7" cy="881.7" rx="37" ry="32.4"/>
	<ellipse class="st3" cx="1079.2" cy="879.9" rx="28.5" ry="25"/>
	<g>
		<path class="st17" d="M811.8,943.4L811.8,943.4c-1.3,0-2.4-1.1-2.4-2.4v-39.4c0-1.3,1.1-2.4,2.4-2.4l0,0c1.3,0,2.4,1.1,2.4,2.4
			V941C814.1,942.3,813.1,943.4,811.8,943.4z"/>
		<path class="st18" d="M811.8,943.4L811.8,943.4c-1.3,0-2.4-0.8-2.4-1.8V901c0-1,1.1-1.8,2.4-1.8l0,0"/>
	</g>
	<ellipse class="st4" cx="811.8" cy="898" rx="17.2" ry="13.1"/>
	<ellipse class="st3" cx="815.7" cy="897.3" rx="13.3" ry="10.1"/>
	<g>
		<path class="st17" d="M1190.1,940L1190.1,940c-1.3,0-2.4-1.1-2.4-2.4v-39.4c0-1.3,1.1-2.4,2.4-2.4l0,0c1.3,0,2.4,1.1,2.4,2.4v39.4
			C1192.5,938.9,1191.5,940,1190.1,940z"/>
		<path class="st18" d="M1190.1,940L1190.1,940c-1.3,0-2.4-0.8-2.4-1.8v-40.5c0-1,1.1-1.8,2.4-1.8l0,0"/>
	</g>
	<ellipse class="st4" cx="1190.1" cy="894.6" rx="17.2" ry="13.1"/>
	<ellipse class="st3" cx="1194.1" cy="893.9" rx="13.3" ry="10.1"/>
	<g>
		<path class="st17" d="M1535.6,955.1L1535.6,955.1c-1.3,0-2.4-1.1-2.4-2.4v-39.4c0-1.3,1.1-2.4,2.4-2.4l0,0c1.3,0,2.4,1.1,2.4,2.4
			v39.4C1538,954,1537,955.1,1535.6,955.1z"/>
		<path class="st18" d="M1535.6,955.1L1535.6,955.1c-1.3,0-2.4-0.8-2.4-1.8v-40.5c0-1,1.1-1.8,2.4-1.8l0,0"/>
	</g>
	<ellipse class="st4" cx="1535.6" cy="909.7" rx="17.2" ry="13.1"/>
	<ellipse class="st3" cx="1539.6" cy="909" rx="13.3" ry="10.1"/>
</g>
<g id="Calque_4">
	<path class="st6" d="M839.5,718.3h-118c-7.2,0-13-5.8-13-13v-70c0-7.2,5.8-13,13-13h16c7.2,0,13,5.8,13,13l0,44c0,7.2,5.8,13,13,13
		h76c7.2,0,13,5.8,13,13l0,0C852.5,712.4,846.7,718.3,839.5,718.3z"/>
	<path class="st6" d="M703.5,676.2h50.3c18.4,0,33.4-14.9,33.4-33.4v-50.3c0-18.4-14.9-33.4-33.4-33.4h-50.3
		c-18.4,0-33.4,14.9-33.4,33.4v50.3C670.1,661.3,685,676.2,703.5,676.2z"/>
	<path class="st19" d="M721.3,650.1H736c7,0,12.8-5.7,12.8-12.8v-14.7c0-7-5.7-12.8-12.8-12.8h-14.7c-7,0-12.8,5.7-12.8,12.8v14.7
		C708.5,644.3,714.2,650.1,721.3,650.1z"/>
	<path class="st7" d="M1134.7,644.3h118c7.2,0,13-5.8,13-13v-70c0-7.2-5.8-13-13-13h-16c-7.2,0-13,5.8-13,13l0,44
		c0,7.2-5.8,13-13,13h-76c-7.2,0-13,5.8-13,13l0,0C1121.7,638.4,1127.5,644.3,1134.7,644.3z"/>
	<path class="st7" d="M1270.8,602.2h-50.3c-18.4,0-33.4-14.9-33.4-33.4v-50.3c0-18.4,14.9-33.4,33.4-33.4h50.3
		c18.4,0,33.4,14.9,33.4,33.4v50.3C1304.2,587.3,1289.2,602.2,1270.8,602.2z"/>
	<path class="st19" d="M1253.9,576.1h-16.6c-6.5,0-11.8-5.3-11.8-11.8v-16.6c0-6.5,5.3-11.8,11.8-11.8h16.6
		c6.5,0,11.8,5.3,11.8,11.8v16.6C1265.7,570.8,1260.5,576.1,1253.9,576.1z"/>
	<rect x="1169.9" y="620.8" class="st10" width="20.2" height="11.5"/>
	<rect x="1215.4" y="624" class="st10" width="20.2" height="11.5"/>
	<rect x="1237.5" y="602.2" class="st10" width="20.2" height="11.5"/>
	<rect x="1210.9" y="584" class="st10" width="20.2" height="11.5"/>
	<rect x="1193.7" y="559.7" class="st10" width="20.2" height="11.5"/>
	<rect x="1269.2" y="572.5" class="st10" width="20.2" height="11.5"/>
	<rect x="1272.7" y="535.8" class="st10" width="20.2" height="11.5"/>
	<rect x="1207" y="521.5" class="st10" width="20.2" height="11.5"/>
	<g>
		<path class="st11" d="M817.4,595.7H639.8c-18.4,0-33.3-14.9-33.3-33.3v0c0-18.4,14.9-33.3,33.3-33.3h177.6
			c18.4,0,33.3,14.9,33.3,33.3v0C850.7,580.8,835.8,595.7,817.4,595.7z"/>
		<path class="st12" d="M797.9,543.6H659.3c-11.7,0-21.2-9.5-21.2-21.2v0c0-11.7,9.5-21.2,21.2-21.2h138.6
			c11.7,0,21.2,9.5,21.2,21.2v0C819.1,534.1,809.6,543.6,797.9,543.6z"/>
		<path class="st13" d="M735.3,447l35.2,40.7c4.9,5.7,0.9,14.5-6.6,14.5h-70.3c-7.5,0-11.6-8.8-6.6-14.5L722,447
			C725.5,442.9,731.8,442.9,735.3,447z"/>
	</g>
	<g>
		<path class="st11" d="M1336.4,524.1h-177.6c-18.4,0-33.3-14.9-33.3-33.3v0c0-18.4,14.9-33.3,33.3-33.3h177.6
			c18.4,0,33.3,14.9,33.3,33.3v0C1369.7,509.2,1354.8,524.1,1336.4,524.1z"/>
		<path class="st12" d="M1316.9,472h-138.6c-11.7,0-21.2-9.5-21.2-21.2v0c0-11.7,9.5-21.2,21.2-21.2h138.6
			c11.7,0,21.2,9.5,21.2,21.2v0C1338.1,462.5,1328.6,472,1316.9,472z"/>
		<path class="st13" d="M1255.4,376.7l31.8,36.8c5.8,6.7,1,17.1-7.8,17.1h-63.6c-8.8,0-13.6-10.4-7.8-17.1l31.8-36.8
			C1243.9,372,1251.3,372,1255.4,376.7z"/>
	</g>
	<path class="st19" d="M939.2,633.8h14.7c7,0,12.8-5.7,12.8-12.8v-14.7c0-7-5.7-12.8-12.8-12.8h-14.7c-7,0-12.8,5.7-12.8,12.8v14.7
		C926.4,628.1,932.2,633.8,939.2,633.8z"/>
	<path class="st19" d="M868.9,754.5h14.7c7,0,12.8-5.7,12.8-12.8V727c0-7-5.7-12.8-12.8-12.8h-14.7c-7,0-12.8,5.7-12.8,12.8v14.7
		C856.2,748.8,861.9,754.5,868.9,754.5z"/>
	<path class="st19" d="M868.9,519h14.7c7,0,12.8-5.7,12.8-12.8v-14.7c0-7-5.7-12.8-12.8-12.8h-14.7c-7,0-12.8,5.7-12.8,12.8v14.7
		C856.2,513.3,861.9,519,868.9,519z"/>
	<path class="st19" d="M939.2,410.7h14.7c7,0,12.8-5.7,12.8-12.8v-14.7c0-7-5.7-12.8-12.8-12.8h-14.7c-7,0-12.8,5.7-12.8,12.8v14.7
		C926.4,405,932.2,410.7,939.2,410.7z"/>
	<path class="st19" d="M1080.1,519h14.7c7.1,0,12.8-5.7,12.8-12.8v-14.7c0-7-5.7-12.8-12.8-12.8h-14.7c-7,0-12.8,5.7-12.8,12.8v14.7
		C1067.4,513.3,1073.1,519,1080.1,519z"/>
	<path class="st19" d="M1028.8,633.8h14.7c7,0,12.8-5.7,12.8-12.8v-14.7c0-7-5.7-12.8-12.8-12.8h-14.7c-7,0-12.8,5.7-12.8,12.8v14.7
		C1016.1,628.1,1021.8,633.8,1028.8,633.8z"/>
	<path class="st19" d="M1088.8,754.5h14.7c7.1,0,12.8-5.7,12.8-12.8V727c0-7-5.7-12.8-12.8-12.8h-14.7c-7.1,0-12.8,5.7-12.8,12.8
		v14.7C1076.1,748.8,1081.8,754.5,1088.8,754.5z"/>
	<path class="st19" d="M1023.8,410.7h14.7c7.1,0,12.8-5.7,12.8-12.8v-14.7c0-7-5.7-12.8-12.8-12.8h-14.7c-7,0-12.8,5.7-12.8,12.8
		v14.7C1011.1,405,1016.8,410.7,1023.8,410.7z"/>
</g>
<g id="Calque_7">
	<path class="st20" d="M1339.8,128.4h-105.3c-9.6,0-17.5-7.9-17.5-17.5v0c0-9.6,7.9-17.5,17.5-17.5h105.3c9.6,0,17.5,7.9,17.5,17.5
		v0C1357.3,120.5,1349.5,128.4,1339.8,128.4z"/>
	<path class="st20" d="M1260,98.5h-49.5c-8.7,0-15.9-7.2-15.9-15.9v0c0-8.7,7.2-15.9,15.9-15.9h49.5c8.7,0,15.9,7.2,15.9,15.9v0
		C1275.9,91.3,1268.7,98.5,1260,98.5z"/>
	<path class="st20" d="M1529.6,82.6h-100.4c-9.8,0-17.8-8-17.8-17.8v0c0-9.8,8-17.8,17.8-17.8h100.4c9.8,0,17.8,8,17.8,17.8v0
		C1547.4,74.6,1539.4,82.6,1529.6,82.6z"/>
	<path class="st20" d="M1438.7,54.6h-29.9c-6.6,0-12.1-5.4-12.1-12.1v0c0-6.6,5.4-12.1,12.1-12.1h29.9c6.6,0,12.1,5.4,12.1,12.1v0
		C1450.8,49.2,1445.3,54.6,1438.7,54.6z"/>
	<path class="st20" d="M1655.5,176.6h-112.8c-11.5,0-21-9.4-21-21v0c0-11.5,9.4-21,21-21h112.8c11.5,0,21,9.4,21,21v0
		C1676.4,167.1,1667,176.6,1655.5,176.6z"/>
	<path class="st20" d="M1677,137.3h-40.2c-6.3,0-11.5-5.2-11.5-11.5v0c0-6.3,5.2-11.5,11.5-11.5h40.2c6.3,0,11.5,5.2,11.5,11.5v0
		C1688.5,132.1,1683.3,137.3,1677,137.3z"/>
</g>
<g id="Calque_6">
	<polygon class="st4" points="327.7,938.7 296.7,884.9 265.7,938.7 	"/>
	<polygon class="st4" points="380.2,938.7 352.5,890.5 324.7,938.7 	"/>
	<polygon class="st4" points="427.3,938.7 394.2,881.4 361.2,938.7 	"/>
	<polygon class="st4" points="485.9,938.7 452.8,881.3 419.7,938.7 	"/>
	<polygon class="st4" points="548.5,938.7 512.7,876.7 476.9,938.7 	"/>
	<polygon class="st4" points="622,938.7 586.7,877.5 551.4,938.7 	"/>
	<polygon class="st4" points="688.5,938.7 648.8,869.9 609.2,938.7 	"/>
	<polygon class="st4" points="757.8,938.7 719.9,872.9 682,938.7 	"/>
	<polygon class="st4" points="830.7,938.7 787.6,864.1 744.6,938.7 	"/>
	<polygon class="st4" points="887.6,938.7 861,892.5 834.3,938.7 	"/>
	<polygon class="st4" points="929.9,938.7 908,900.8 886.2,938.7 	"/>
	<polygon class="st4" points="1140.4,938.7 1120.4,904 1100.4,938.7 	"/>
	<polygon class="st4" points="1183.6,938.7 1160.9,899.4 1138.2,938.7 	"/>
	<polygon class="st4" points="1238.2,938.7 1215.5,899.4 1192.8,938.7 	"/>
	<polygon class="st4" points="1304.3,938.7 1275.1,888.2 1245.9,938.7 	"/>
	<polygon class="st4" points="1367.3,938.7 1329.3,872.9 1291.4,938.7 	"/>
	<polygon class="st4" points="1431.8,938.7 1397.1,878.4 1362.3,938.7 	"/>
	<polygon class="st4" points="1495.9,938.7 1464.8,884.7 1433.7,938.7 	"/>
	<polygon class="st4" points="1612.5,938.7 1581.4,884.7 1550.2,938.7 	"/>
	<polygon class="st4" points="1528,938.7 1504.8,898.4 1481.6,938.7 	"/>
	<polygon class="st4" points="1650.2,938.7 1616.7,880.7 1583.3,938.7 	"/>
	<path class="st11" d="M1173.6,247.3l-7.9-3.3c-3.3-1.4-4.9-5.2-3.5-8.5l36.1-86.3c1.4-3.3,5.2-4.9,8.5-3.5l7.9,3.3
		c3.3,1.4,4.9,5.2,3.5,8.5l-36.1,86.3C1180.7,247.1,1176.9,248.7,1173.6,247.3z"/>
</g>
<g id="Calque_2">
	<path class="st4" d="M1635.3,1031.8H279.1c-27.7,0-50.1-22.4-50.1-50.1v0c0-27.7,22.4-50.1,50.1-50.1h1356.2
		c27.7,0,50.1,22.4,50.1,50.1v0C1685.4,1009.4,1663,1031.8,1635.3,1031.8z"/>
</g>
</svg>
